<?xml version="1.0" encoding="utf-8"?>
<!-- Generator: Adobe Illustrator 27.7.0, SVG Export Plug-In . SVG Version: 6.00 Build 0)  -->
<svg version="1.1" id="Layer_1" xmlns="http://www.w3.org/2000/svg" xmlns:xlink="http://www.w3.org/1999/xlink" x="0px" y="0px"
	 viewBox="0 0 100 100" style="enable-background:new 0 0 100 100;" xml:space="preserve">
<style type="text/css">
	.st0{fill:#FFFFFF;}
	.st1{fill:url(#SVGID_1_);}
	.st2{fill:#F72585;}
</style>
<g>
	<rect x="30.9" y="19.5" class="st0" width="38.8" height="24.7"/>
	<g>
		<linearGradient id="SVGID_1_" gradientUnits="userSpaceOnUse" x1="50" y1="84.5145" x2="50" y2="8.0972">
			<stop  offset="0" style="stop-color:#B5179E"/>
			<stop  offset="1" style="stop-color:#F72585"/>
		</linearGradient>
		<path class="st1" d="M60.9,9.8c-12.8-6-28-0.6-34.1,12.2c-3.3,6.9-3.3,15,0,21.9L50,92.7l23.1-48.9C79.2,31.1,73.7,15.8,60.9,9.8z
			 M66.8,35.3h-6.4v6.4H54v-6.4h-6.4v6.4h-6.4v-6.4h-6.4V29h6.4v-6.4h6.4V29l6.4,0v-6.4h6.4V29h6.4V35.3z"/>
	</g>
	<g>
		<rect x="54" y="29" class="st2" width="6.4" height="6.4"/>
	</g>
	<g>
		<rect x="41.2" y="29" class="st2" width="6.4" height="6.4"/>
	</g>
</g>
<g>
	<rect x="-60.4" y="6.4" class="st0" width="38.8" height="24.7"/>
	<g>
		<path d="M-64.9,31c-3.4-7.1-3.4-15.2,0-22.3c4.3-9.1,13.6-14.9,23.6-14.9c3.9,0,7.6,0.8,11.1,2.5c6.3,3,11.1,8.2,13.4,14.8
			c2.3,6.6,2,13.6-1,19.9l-23.6,49.8L-64.9,31z M-31.4,28.2v-6.4h6.4v-5.4h-6.4V10h-5.4v6.4h-7.4V10h-5.4v6.4H-56v5.4h6.4v6.4h5.4
			v-6.4h7.4v6.4H-31.4z"/>
		<path class="st0" d="M-41.3-5.8c3.7,0,7.4,0.8,10.9,2.5c12.8,6,18.2,21.3,12.2,34.1l-23.1,48.9l-23.1-48.9c-3.3-6.9-3.3-15,0-21.9
			C-60-0.3-50.9-5.8-41.3-5.8 M-37.3,15.9l-6.4,0V9.5h-6.4v6.4h-6.4v6.4h6.4v6.4h6.4v-6.4h6.4v6.4h6.4v-6.4h6.4v-6.4h-6.4V9.5h-6.4
			V15.9 M-41.3-6.8c-10.2,0-19.7,6-24,15.2c-3.4,7.2-3.4,15.5,0,22.7l23.1,48.9l0.9,1.9l0.9-1.9l23.1-48.9c3-6.4,3.4-13.6,1-20.3
			c-2.4-6.7-7.2-12-13.7-15.1C-33.5-5.9-37.3-6.8-41.3-6.8L-41.3-6.8z M-36.3,10.5h4.4v5.4v1h1h5.4v4.4h-5.4h-1v1v5.4h-4.4v-5.4v-1
			h-1h-6.4h-1v1v5.4h-4.4v-5.4v-1h-1h-5.4v-4.4h5.4h1v-1v-5.4h4.4v5.4v1l1,0l6.4,0l1,0v-1V10.5L-36.3,10.5z"/>
	</g>
	<g>
		<rect x="-37.3" y="15.9" width="6.4" height="6.4"/>
	</g>
	<g>
		<rect x="-50.1" y="15.9" width="6.4" height="6.4"/>
	</g>
</g>
</svg>
