<?xml version="1.0" encoding="utf-8"?>
<!-- Generator: Adobe Illustrator 27.7.0, SVG Export Plug-In . SVG Version: 6.00 Build 0)  -->
<svg version="1.1" id="ëÎÓÈ_1" xmlns="http://www.w3.org/2000/svg" xmlns:xlink="http://www.w3.org/1999/xlink" x="0px" y="0px"
	 viewBox="0 0 5000 3000" style="enable-background:new 0 0 5000 3000;" xml:space="preserve">
<style type="text/css">
	.st0{fill:#B7B7B7;}
	.st1{fill:#E5E5E5;}
	.st2{fill:#FFFFFF;}
	.st3{fill:#FF5043;}
	.st4{fill:#FFE600;}
	.st5{fill:#0067E2;}
	.st6{fill:#B22234;}
	.st7{fill:#3C3B6E;}
</style>
<g>
	<g>
		<path class="st0" d="M4587.9,645.8c0.4-26.6-8.9-52.4-27.4-72.9c-17.1-19-38.2-30.8-62.6-35.2c-16.9-3-31.6-1.7-42.4-0.7
			c-1.1,0.1-2.2,0.2-3.4,0.3c-79.7,6.8-157,24.5-231.7,41.7c-23.6,5.4-48,11.1-71.7,16.1l-27.9,6c-123.8,26.5-251.9,53.9-377.9,73.7
			c-151.7,23.8-290.1,41.7-422.9,54.8c-27,0.3-52.6,3.6-77.5,6.8c-11.7,1.5-22.7,2.9-33.2,3.9c-14.2,1.4-28.4,2.8-42.6,4.2
			c-23.9,2.4-48.5,4.8-72.7,7c-76.2,7-153.6,13.3-230,18.7c-113,8-229.1,10.2-341.4,12.4c-35.8,0.7-72.8,1.4-109.3,2.3l-298.9,7.3
			l-83.3,1.9c-35.9,0.8-68.9,20.9-86.2,52.3c-8.6,15.6-12.7,33-12.4,50.3c0,1.1,0,2.3,0,3.4c0,1.1,0,2.3,0,3.4c0,1.1,0,2.3,0,3.4
			c0,1.1,0,2.3,0,3.4c0,1.1,0,2.3,0,3.4c0,1.1,0,2.3,0,3.4c0,1.1,0,2.3,0,3.4c0,1.1,0,2.3,0,3.4c0,1.1,0,2.3,0,3.4
			c0,1.1,0,2.3,0,3.4c0,1.1,0,2.3,0,3.4c0,1.1,0,2.3,0,3.4c0,1.1,0,2.3,0,3.4c0,1.1,0,2.3,0,3.4c0,1.1,0,2.3,0,3.4
			c0,1.1,0,2.3,0,3.4c0,1.1,0,2.3,0,3.4c0,1.1,0,2.3,0,3.4c0,1.1,0,2.3,0,3.4c0,1.1,0,2.3,0,3.4c0,1.1,0,2.3,0,3.4
			c0,1.1,0,2.3,0,3.4c0,1.1,0,2.3,0,3.4c0,1.1,0,2.3,0,3.4c0,1.1,0,2.3,0,3.4c0,1.1,0,2.3,0,3.4c0,1.1,0,2.3,0,3.4
			c0,1.1,0,2.3,0,3.4c0,1.1,0,2.3,0,3.4c0,0.3,0,0.5,0,0.8c-26.9-20.6-55.7-32.9-85.6-36.6c-56.6-7-76.6-5.7-84.3-4.8
			c-24.6,2.6-55.4,16.4-73.6,48.3c-6.7,11.8-13.7,30.1-13.4,54.7c0,1.1,0,2.2,0,3.4c0,1.1,0,2.2,0,3.4c0,1.1,0,2.2,0,3.4
			c0,1.1,0,2.2,0,3.4c0,1.1,0,2.2,0,3.4c0,1.1,0,2.2,0,3.4c0,1.1,0,2.2,0,3.4c0,1.1,0,2.2,0,3.4c0,1.1,0,2.2,0,3.4
			c0,1.1,0,2.2,0,3.4c0,1.1,0,2.2,0,3.4c0,1.1,0,2.2,0,3.4c0,1.1,0,2.2,0,3.4c0,1.1,0,2.2,0,3.4c0,1.1,0,2.2,0,3.4
			c0,1.1,0,2.2,0,3.4c0,1.1,0,2.2,0,3.4c0,1.1,0,2.2,0,3.4c0,1.1,0,2.2,0,3.4c0,1.1,0,2.2,0,3.4c0,1.1,0,2.2,0,3.4
			c0,1.1,0,2.2,0,3.4c0,1.1,0,2.2,0,3.4c0,1.1,0,2.2,0,3.4c0,1.1,0,2.2,0,3.4c0,1.1,0,2.2,0,3.4c0,1.1,0,2.2,0,3.4
			c0,1.1,0,2.2,0,3.4c0,1.1,0,2.2,0,3.4c0,1.1,0,2.2,0,3.4c0,1.1,0,2.2,0,3.4c0,1.1,0,2.2,0,3.4c0,1.1,0,2.2,0,3.4
			c-0.1,7.1,0.4,14.8,1.7,23c3.5,21.3,12,44.4,26,70.6c32.9,61.4,61.2,126.6,87.4,188.2c4.7,11,9.7,22,14.6,32.7
			c6.3,13.8,12.7,27.7,18.1,41.2c-4.8,11.7-10.3,23.2-16.2,33.7c-10.3,18.3-26.6,31.5-51.2,41.4c-13.4,5.4-27.9,10.2-43.2,15.3
			c-14.2,4.7-28.9,9.6-44,15.3c-31.7,12.1-76.2,5.1-136.2-21.5c-29.3-13-68.5-36.6-89.2-75.2c-21.7-40.5-45.4-80.1-66-114.1
			c-35.7-58.9-75.4-123-121.3-195.9l-3.7-5.9l-10.8-15.2c-39-54.8-110.4-75.1-177.9-50.6l-209.7,70.4l-278.3,94.9l-28.4,9.8
			c-37.4,12.9-64.6,43.6-72.7,82.3c-1.8,8.4-2.6,16.8-2.5,25.1c0,1.1,0,2.3,0,3.4c0,1.1,0,2.3,0,3.4c0,1.1,0,2.3,0,3.4
			c0,1.1,0,2.3,0,3.4c0,1.1,0,2.3,0,3.4c0,1.1,0,2.3,0,3.4c0,1.1,0,2.3,0,3.4c0,1.1,0,2.3,0,3.4c0,1.1,0,2.3,0,3.4
			c0,1.1,0,2.3,0,3.4c0,1.1,0,2.3,0,3.4c0,1.1,0,2.3,0,3.4c0,1.1,0,2.3,0,3.4c0,1.1,0,2.3,0,3.4c0,1.1,0,2.3,0,3.4
			c0,1.1,0,2.3,0,3.4c0,1.1,0,2.3,0,3.4c0,1.1,0,2.3,0,3.4c0,1.1,0,2.3,0,3.4c0,1.1,0,2.3,0,3.4c0,1.1,0,2.3,0,3.4
			c0,1.1,0,2.3,0,3.4c0,1.1,0,2.3,0,3.4c0,1.1,0,2.3,0,3.4c0,1.1,0,2.3,0,3.4c0,1.1,0,2.3,0,3.4c0,1.1,0,2.3,0,3.4
			c0,1.1,0,2.3,0,3.4c0,1.1,0,2.3,0,3.4c0,1.1,0,2.3,0,3.4c0,1.1,0,2.3,0,3.4c0,1.1,0,2.3,0,3.4c0,1.1,0,2.3,0,3.4
			c-0.5,31.2,12.1,61.2,35.6,83L637.4,1749l344.4,325.7l418.3,395l138.4,129c8.3,7.7,16.8,15.8,25,23.6
			c51.3,48.8,104.4,99.2,176.3,133.9c9.3,4.5,18.9,7.9,28.5,10.1c9.2,2.1,18.3,3.1,27.1,3.1c26.5,0,50.9-9.3,69.6-26.8
			c22.3-21.1,33.8-51.4,33.5-87.2c0-1.1,0-2.2,0-3.4c0-1.1,0-2.2,0-3.4c0-1.1,0-2.2,0-3.4c0-1.1,0-2.2,0-3.4c0-1.1,0-2.2,0-3.4
			c0-1.1,0-2.2,0-3.4c0-1.1,0-2.2,0-3.4c0-1.1,0-2.2,0-3.4c0-1.1,0-2.2,0-3.4c0-1.1,0-2.2,0-3.4c0-1.1,0-2.2,0-3.4
			c0-1.1,0-2.2,0-3.4c0-1.1,0-2.2,0-3.4c0-1.1,0-2.2,0-3.4c0-1.1,0-2.2,0-3.4c0-1.1,0-2.2,0-3.4c0-1.1,0-2.2,0-3.4
			c0-1.1,0-2.2,0-3.4c0-1.1,0-2.2,0-3.4c0-1.1,0-2.2,0-3.4c0-1.1,0-2.2,0-3.4c0-1.1,0-2.2,0-3.4c0-1.1,0-2.2,0-3.4
			c0-1.1,0-2.2,0-3.4c0-1.1,0-2.2,0-3.4c0-1.1,0-2.2,0-3.4c0-1.1,0-2.2,0-3.4c0-1.1,0-2.2,0-3.4c0-1.1,0-2.2,0-3.4
			c0-1.1,0-2.2,0-3.4c0-1.1,0-2.2,0-3.4c0-1.1,0-2.2,0-3.4c0-1.1,0-2.2,0-3.4c0.1-10.2-0.7-20.8-2.6-31.9
			c-10.1-59.8-62.5-259.6-63-261.5c-1-4-2-8-2.9-12c7.5-29.8,21.9-56.2,45.2-74c15.2-11.6,36.3-22,58.7-32.9
			c11.1-5.4,22.6-11.1,34-17.2l168.4-82.3c7.8-3.8,15.8-7.6,24.3-11.5c46.8-21.9,99.8-46.8,142-93.4c19.4-21.5,31.1-45.1,40.4-64.2
			c2.1-4.4,4.2-8.5,6.2-12.3c4.3-8.2,8.3-17.1,12.3-25.6c5.6-12.1,11.4-24.7,17.4-35c4.3-7.2,7.3-11,8.9-12.8
			c4.6-1.3,9.2-2.6,14.1-3.9c42.1-11.6,89.8-24.8,133.3-54.1c38.3-25.8,64.3-62.4,79.5-112.1c3.7-12.1,7-24.2,10.1-36
			c6.4-23.8,12.5-46.2,20.7-63.5c1.7-3.5,3.2-6.8,4.6-10c3.7-8.1,6.9-15.1,9.3-17.6c10.6-11.2,22.5-21.5,35.5-30.4
			c46.8-32.2,99.5-46.4,128.2-34.6c21.7,9,44,23.7,67.5,39.2c8,5.3,16.2,10.7,24.6,16.1c18.9,12,41.5,26.1,65.7,39
			c2.1,1.1,4.2,2.3,6.4,3.4c21.8,11.9,51.6,28.1,88.2,30.6c72.7,5,128.7-37.2,165.7-65.2c32-24.1,62.6-53.4,91-87
			c19.2-22.7,39.6-33.7,51.3-34.5c2.6-0.2,7.1-0.5,15.1,6.8c4.9,4.4,9.3,10.1,13.2,16.8c0.7,1.5,1.9,5.1,2.8,7.7
			c4.8,13.9,12,34.9,29.1,54.1c31,34.7,75.1,42.5,98.6,44c27.7,1.8,53.4-2.1,76-5.6c6.6-1,12.9-2,18.7-2.7l61.4-7.7
			c9.3-1.2,18.7-2.3,28-3.5c52.1-6.5,106-13.2,159.2-21.3c37.9-5.8,72-16.9,101.3-33.1c26.2-14.5,45.8-34.4,61.6-50.4
			c3.3-3.3,6.4-6.5,9.3-9.3c13.6-13.3,26.4-26.8,38.9-39.9c17.7-18.6,34.4-36.1,51.7-51.7l1.6-1.4l71.9-72.3l264.7-267.4
			c13.6-13.7,27.1-28.9,42.6-47.7c2.5-3,5.8-6.7,9.4-10.5c10.2-11.2,23-25.1,33.4-43.3c11.1-19.4,16.4-40.3,16-60.6
			c0-1.1,0-2.3,0-3.4c0-1.1,0-2.3,0-3.4c0-1.1,0-2.3,0-3.4c0-1.1,0-2.3,0-3.4c0-1.1,0-2.3,0-3.4c0-1.1,0-2.3,0-3.4
			c0-1.1,0-2.3,0-3.4c0-1.1,0-2.3,0-3.4c0-1.1,0-2.3,0-3.4c0-1.1,0-2.3,0-3.4c0-1.1,0-2.3,0-3.4c0-1.1,0-2.3,0-3.4
			c0-1.1,0-2.3,0-3.4c0-1.1,0-2.3,0-3.4c0-1.1,0-2.3,0-3.4c0-1.1,0-2.3,0-3.4c0-1.1,0-2.3,0-3.4c0-1.1,0-2.3,0-3.4
			c0-1.1,0-2.3,0-3.4c0-1.1,0-2.3,0-3.4c0-1.1,0-2.3,0-3.4c0-1.1,0-2.3,0-3.4c0-1.1,0-2.3,0-3.4c0-1.1,0-2.3,0-3.4
			c0-1.1,0-2.3,0-3.4c0-1.1,0-2.3,0-3.4c0-1.1,0-2.3,0-3.4c0-1.1,0-2.3,0-3.4c0-1.1,0-2.3,0-3.4c0-1.1,0-2.3,0-3.4
			c0-1.1,0-2.3,0-3.4c0-1.1,0-2.3,0-3.4C4587.9,648.1,4587.9,647,4587.9,645.8z M903.4,1483l210.5-70.6l2.3-0.8
			c1.2-0.4,2.2-0.7,3.1-0.9l5.4,7.6l1.4,2.2c45.4,72.2,84.7,135.5,119.9,193.7c19.5,32.2,42.1,69.8,61.9,106.9
			c32.7,61.1,88.8,110.6,162.5,143.3c41.9,18.6,79.3,30.5,114.5,36.3c50.3,8.4,97.2,4.4,139.2-11.7c11.7-4.5,24.1-8.6,37.3-12.9
			c17-5.6,34.5-11.4,52.5-18.7c57-23,99.9-59.5,127.5-108.5c20.8-36.8,37.1-78.4,46-117.3c3.8-16.6,5.4-32.9,5.3-48.9
			c0-1.1,0-2.3,0-3.4c0-1.1,0-2.3,0-3.4c0-1.1,0-2.3,0-3.4c0-1.1,0-2.3,0-3.4c0-1.1,0-2.3,0-3.4c0-1.1,0-2.3,0-3.4
			c0-1.1,0-2.3,0-3.4c0-1.1,0-2.3,0-3.4c0-1.1,0-2.3,0-3.4c0-1.1,0-2.3,0-3.4c0-1.1,0-2.3,0-3.4c0-1.1,0-2.3,0-3.4
			c0-1.1,0-2.3,0-3.4c0-1.1,0-2.3,0-3.4c0-1.1,0-2.3,0-3.4c0-1.1,0-2.3,0-3.4c0-1.1,0-2.3,0-3.4c0-1.1,0-2.3,0-3.4
			c0-1.1,0-2.3,0-3.4c0-1.1,0-2.3,0-3.4c0-1.1,0-2.3,0-3.4c0-1.1,0-2.3,0-3.4c0-1.1,0-2.3,0-3.4c0-1.1,0-2.3,0-3.4
			c0-1.1,0-2.3,0-3.4c0-1.1,0-2.3,0-3.4c0-1.1,0-2.3,0-3.4c0-1.1,0-2.3,0-3.4c0-1.1,0-2.3,0-3.4c0-1.1,0-2.3,0-3.4
			c0-1.1,0-2.3,0-3.4c0-0.1,0-0.1,0-0.2c22.1,10.8,44.9,15.2,61.7,18.4l6.8,1.3c23,4.5,46.8,9.1,72.4,11.5c1.8,0.2,4,0.4,6.3,0.7
			c23.2,2.7,66.5,7.7,104.2-20.4c30.3-22.6,46.4-57.7,45.8-96.6c0-1.1,0-2.3,0-3.4c0-1.1,0-2.3,0-3.4c0-1.1,0-2.3,0-3.4
			c0-1.1,0-2.3,0-3.4c0-1.1,0-2.3,0-3.4c0-1.1,0-2.3,0-3.4c0-1.1,0-2.3,0-3.4c0-1.1,0-2.3,0-3.4c0-1.1,0-2.3,0-3.4
			c0-1.1,0-2.3,0-3.4c0-1.1,0-2.3,0-3.4c0-1.1,0-2.3,0-3.4c0-1.1,0-2.3,0-3.4c0-1.1,0-2.3,0-3.4c0-1.1,0-2.3,0-3.4
			c0-1.1,0-2.3,0-3.4c0-1.1,0-2.3,0-3.4c0-1.1,0-2.3,0-3.4c0-1.1,0-2.3,0-3.4c0-1.1,0-2.3,0-3.4c0-1.1,0-2.3,0-3.4
			c0-1.1,0-2.3,0-3.4c0-1.1,0-2.3,0-3.4c0-1.1,0-2.3,0-3.4c0-1.1,0-2.3,0-3.4c0-1.1,0-2.3,0-3.4c0-1.1,0-2.3,0-3.4
			c0-1.1,0-2.3,0-3.4c0-1.1,0-2.3,0-3.4c0-1.1,0-2.3,0-3.4c0-1.1,0-2.3,0-3.4c0-1.1,0-2.3,0-3.4c0-1.1,0-2.3,0-3.4
			c0.1-13.8-1.8-28.1-6.1-42.5c-13.8-46.9-38.5-88.2-60.3-124.5c-6.6-11-12.8-21.3-18.5-31.5l-13.1-23.2l225.1-5.5
			c36.1-0.9,72.9-1.6,108.5-2.3c114.2-2.2,232.4-4.5,349.3-12.8c77.4-5.5,155.9-11.8,233.2-18.9c24.7-2.3,49.6-4.7,73.7-7.1
			c14.1-1.4,28.2-2.8,42.3-4.1c13-1.3,25.7-2.9,38.1-4.5c22.2-2.9,43.2-5.6,61.8-5.6h3.8l3.7-0.4c136.8-13.4,279.2-31.8,435.3-56.2
			c130.2-20.4,260.4-48.3,386.3-75.2l27.8-6c14.2-3,28.5-6.2,42.6-9.4l-110.9,112.1l-68.9,69.3c-21.1,19.2-40.2,39.1-58.6,58.5
			c-12.1,12.7-23.5,24.7-35.2,36.1c-3.9,3.9-7.7,7.7-11.4,11.4c-9.2,9.3-19.5,19.9-26,23.5c-13.2,7.3-30.6,12.7-50.1,15.7
			c-51.3,7.8-104.1,14.4-155.2,20.7c-9.4,1.2-18.8,2.3-28.1,3.5l-61.4,7.7c-7.9,1-15.5,2.2-22.9,3.3c-13.5,2.1-26.4,4-36.6,4.3
			c-2.8-8-6.6-17.8-12.3-27.7c-12.1-21.2-26.9-39.9-44.2-55.4c-37-33.4-81.5-49.4-128.7-46.2c-31.2,2.1-62.2,12.4-92,30.7
			c-24,14.7-47,34.8-66.6,58c-21,24.8-43.2,46.2-66.1,63.4c-18.6,14-46.5,35.1-62,34.5c-5.1-1.1-17.9-8.1-25.6-12.2
			c-2.5-1.3-4.9-2.7-7.3-4c-19.7-10.5-39.2-22.7-55.7-33.2c-7.3-4.6-14.6-9.5-22.4-14.6c-27.3-18-58.2-38.5-93.7-53.1
			c-44.8-18.5-97.8-20.7-153-6.3c-52.1,13.6-94.6,38.1-121.1,56.3c-22,15.1-42.3,32.5-60.4,51.7c-19.7,20.9-29.3,42-37.1,58.9
			c-1.3,2.8-2.5,5.4-3.7,8c-14.2,29.9-22.8,61.6-30.4,89.6c-3,11-5.8,21.4-8.7,31c-5.8,19-12.2,25.3-18.3,29.4
			c-22.7,15.3-54.6,24.1-88.4,33.4c-6.4,1.8-12.9,3.6-19.5,5.5c-32.9,9.4-61.5,31.4-84.8,65.3c-15.2,22-26.2,45.9-35,65.1
			c-3.3,7.3-6.5,14.1-9.1,19.1c-2.7,5.3-5.2,10.4-7.7,15.3c-5.6,11.4-11.4,23.3-16.4,28.7c-21.4,23.7-56.3,40-93.1,57.3
			c-8.7,4.1-17.6,8.3-26.5,12.6l-169.7,82.9l-1.4,0.7l-1.4,0.7c-9.1,4.9-19.2,9.9-29.9,15.1c-26.9,13.2-57.4,28.1-84.8,49.1h0
			c-53.7,41.2-89.8,101.8-104.5,175.3c-4.9,24.7-7.3,50.7-7.3,77.2c0,1.1,0,2.3,0,3.4c0,1.1,0,2.3,0,3.4c0,1.1,0,2.3,0,3.4
			c0,1.1,0,2.3,0,3.4c0,1.1,0,2.3,0,3.4c0,1.1,0,2.3,0,3.4c0,1.1,0,2.3,0,3.4c0,1.1,0,2.3,0,3.4c0,1.1,0,2.3,0,3.4
			c0,1.1,0,2.3,0,3.4c0,1.1,0,2.3,0,3.4c0,1.1,0,2.3,0,3.4c0,1.1,0,2.3,0,3.4c0,1.1,0,2.3,0,3.4c0,1.1,0,2.3,0,3.4
			c0,1.1,0,2.3,0,3.4c0,1.1,0,2.3,0,3.4c0,1.1,0,2.3,0,3.4c0,1.1,0,2.3,0,3.4c0,1.1,0,2.3,0,3.4c0,1.1,0,2.3,0,3.4
			c0,1.1,0,2.3,0,3.4c0,1.1,0,2.3,0,3.4c0,1.1,0,2.3,0,3.4c0,1.1,0,2.3,0,3.4c0,1.1,0,2.3,0,3.4c0,1.1,0,2.3,0,3.4
			c0,1.1,0,2.3,0,3.4c0,1.1,0,2.3,0,3.4c0,1.1,0,2.3,0,3.4c0,1.1,0,2.3,0,3.4c0,1.1,0,2.3,0,3.4c0,1.1,0,2.3,0,3.4
			c-0.2,37.6,4.6,76.1,14.2,113.1c0.5,2,1.1,4.1,1.7,6.4c-5.3-5-10.6-10-15.9-15.1c-8.5-8-17.2-16.3-26-24.6l-137.9-128.5
			l-418.1-394.7l-332.3-314.3L903.4,1483z"/>
	</g>
	<g>
		<g>
			<path class="st1" d="M1795.3,2654.3c-8.9,0-18-1-27.1-3.1c-9.6-2.2-19.2-5.6-28.5-10.1c-71.8-34.7-124.9-85.1-176.3-133.9
				c-8.2-7.8-16.7-15.8-25-23.6l-138.4-129l-418.3-395L637.4,1634l-129.4-120.3c-29-26.9-41.4-66.1-33.2-104.7
				c8.2-38.7,35.4-69.4,72.7-82.3l28.4-9.8l278.3-94.9l209.7-70.4c67.5-24.5,138.9-4.2,177.9,50.6l10.8,15.2l3.7,5.9
				c45.9,72.9,85.6,137,121.3,195.9c20.6,34,44.4,73.6,66,114.1c20.6,38.6,59.9,62.2,89.2,75.2c60,26.6,104.5,33.7,136.2,21.5
				c15.1-5.8,29.8-10.6,44-15.3c15.3-5.1,29.8-9.9,43.2-15.3c24.6-9.9,40.8-23.1,51.2-41.4c13.3-23.5,24.4-51.8,29.9-75.9
				c6.8-29.7-12.8-72.6-31.8-114c-4.9-10.7-9.9-21.7-14.6-32.7c-26.2-61.6-54.6-126.8-87.4-188.2c-14.1-26.2-22.6-49.3-26-70.6
				c-5.6-34.6,3.2-59.5,11.7-74.3c18.2-31.9,49-45.7,73.6-48.3c7.7-0.9,27.7-2.2,84.3,4.8c32.2,4,63,17.9,91.7,41.4
				c21,17.2,37.8,37,51.6,54.1c33.6,41.7,57.8,89.1,70.1,137.1c2.7,10.5,4.1,20.2,5.3,28c0.3,2.1,0.7,4.6,1,6.8
				c5.5,1.4,12.7,2.8,16.9,3.6l7,1.4c8.8,1.7,17.5,3.4,25.9,4.9c-7.5-14-16.1-28.3-24.9-43c-6.8-11.4-13.8-23.1-20.6-35l-47.8-84.8
				c-7.1-11.7-76.1-126.1-76.1-126.1c-18.5-30.7-19.3-69.3-2-100.8c17.3-31.4,50.3-51.5,86.2-52.3l83.3-1.9l298.9-7.3
				c36.5-0.9,73.5-1.6,109.3-2.3c112.3-2.2,228.5-4.4,341.4-12.4c76.4-5.4,153.8-11.7,230-18.7c24.1-2.2,48.8-4.7,72.7-7
				c14.2-1.4,28.4-2.8,42.6-4.2c10.5-1,21.5-2.4,33.2-3.9c24.8-3.2,50.5-6.5,77.5-6.8c132.8-13.1,271.2-31,422.9-54.8
				c126-19.7,254.1-47.2,377.9-73.7l27.9-6c23.7-5.1,48.1-10.7,71.7-16.1c74.7-17.2,152-35,231.7-41.7c1.1-0.1,2.3-0.2,3.4-0.3
				c10.8-1,25.5-2.3,42.4,0.7c24.4,4.4,45.5,16.2,62.6,35.2c31.9,35.4,36.4,86.4,11.4,130.1c-10.4,18.2-23.2,32.1-33.4,43.3
				c-3.5,3.9-6.9,7.5-9.4,10.5c-15.5,18.8-29,34-42.6,47.7L4221.8,1072l-71.9,72.3l-1.6,1.4c-17.4,15.6-34.1,33.2-51.7,51.7
				c-12.5,13.1-25.3,26.6-38.9,39.9c-2.9,2.8-6,6-9.3,9.3c-15.7,16-35.3,36-61.6,50.4c-29.4,16.2-63.5,27.3-101.3,33.1
				c-53.3,8.1-107.2,14.8-159.2,21.3c-9.3,1.2-18.7,2.3-28,3.5l-61.4,7.7c-5.8,0.7-12.1,1.7-18.7,2.7c-22.6,3.5-48.3,7.4-76,5.6
				c-23.5-1.5-67.6-9.3-98.6-44c-17.1-19.2-24.3-40.2-29.1-54.1c-0.9-2.6-2.1-6.1-2.8-7.7c-3.9-6.7-8.3-12.3-13.2-16.8
				c-8.1-7.3-12.5-7-15.1-6.8c-11.7,0.8-32.1,11.8-51.3,34.5c-28.4,33.6-59,62.8-91,87c-37,27.9-93,70.2-165.7,65.2
				c-36.6-2.5-66.4-18.7-88.2-30.6c-2.1-1.2-4.3-2.3-6.4-3.4c-24.2-12.9-46.8-27-65.7-39c-8.4-5.4-16.7-10.8-24.6-16.1
				c-23.6-15.6-45.8-30.3-67.5-39.2c-28.6-11.8-81.3,2.4-128.2,34.6c-12.9,8.9-24.9,19.1-35.5,30.4c-2.4,2.5-5.6,9.5-9.3,17.6
				c-1.4,3.2-2.9,6.4-4.6,10c-8.2,17.3-14.3,39.7-20.7,63.5c-3.2,11.7-6.4,23.9-10.1,36c-15.2,49.6-41.2,86.3-79.5,112.1
				c-43.5,29.3-91.2,42.5-133.3,54.1c-4.9,1.3-9.5,2.6-14.1,3.9c-1.6,1.8-4.7,5.5-8.9,12.8c-6.1,10.3-11.8,22.9-17.4,35
				c-3.9,8.6-8,17.4-12.3,25.6c-2,3.8-4,7.9-6.2,12.3c-9.3,19-21,42.7-40.4,64.2c-42.2,46.7-95.2,71.5-142,93.4
				c-8.5,4-16.5,7.7-24.3,11.5l-168.4,82.3c-11.4,6.1-22.9,11.7-34,17.2c-22.4,11-43.6,21.3-58.7,32.9
				c-54.6,41.9-60.6,131.1-42.3,201c0.5,1.9,52.9,201.8,63,261.5c8.2,48.1-2.8,89.2-30.9,115.7
				C1846.3,2645.1,1821.8,2654.3,1795.3,2654.3z M1505.5,2242.5l137.9,128.5c8.8,8.2,17.6,16.5,26,24.6
				c18.1,17.2,35.7,33.9,53.7,49.4c-14-57.4-31-123.4-39.4-155.7c-16.2-61.9-18.7-128.3-7-186.9c14.7-73.5,50.8-134.2,104.5-175.3h0
				c27.4-21,57.9-35.9,84.8-49.1c10.7-5.2,20.8-10.2,29.9-15.1l1.4-0.7l1.4-0.7l169.7-82.9c8.9-4.4,17.9-8.6,26.5-12.6
				c36.9-17.3,71.7-33.6,93.1-57.3c4.9-5.4,10.7-17.3,16.4-28.7c2.4-4.9,4.9-10,7.7-15.3c2.6-5,5.7-11.9,9.1-19.1
				c8.8-19.2,19.8-43.1,35-65.1c23.4-33.9,51.9-55.8,84.8-65.3c6.6-1.9,13.1-3.7,19.5-5.5c33.8-9.3,65.6-18.1,88.4-33.4
				c6-4.1,12.4-10.5,18.3-29.4c2.9-9.6,5.7-20,8.7-31c7.6-28,16.1-59.7,30.4-89.6c1.2-2.5,2.4-5.2,3.7-8c7.8-16.9,17.4-38,37.1-58.9
				c18.1-19.2,38.4-36.6,60.4-51.7c26.5-18.2,69-42.8,121.1-56.3c55.3-14.4,108.2-12.2,153,6.3c35.5,14.6,66.4,35.1,93.7,53.1
				c7.8,5.1,15.1,10,22.4,14.6c16.5,10.5,36,22.6,55.7,33.2c2.4,1.3,4.9,2.6,7.3,4c7.7,4.2,20.5,11.1,25.6,12.2
				c15.4,0.6,43.4-20.5,62-34.5c22.9-17.2,45.1-38.6,66.1-63.4c19.6-23.2,42.6-43.2,66.6-58c29.8-18.3,60.7-28.7,92-30.7
				c47.2-3.2,91.8,12.8,128.7,46.2c17.2,15.6,32.1,34.2,44.2,55.4c5.7,10,9.5,19.7,12.3,27.7c10.3-0.2,23.1-2.2,36.6-4.3
				c7.4-1.1,15-2.3,22.9-3.3l61.4-7.7c9.4-1.2,18.8-2.3,28.1-3.5c51.1-6.4,103.9-13,155.2-20.7c19.6-3,36.9-8.4,50.1-15.7
				c6.5-3.6,16.9-14.1,26-23.5c3.6-3.7,7.4-7.5,11.4-11.4c11.7-11.4,23.1-23.4,35.2-36.1c18.4-19.4,37.5-39.3,58.6-58.5l68.9-69.3
				l256.3-259c-37.3,7-75,15.7-113.9,24.7c-24.2,5.6-49.2,11.3-74,16.6l-27.8,6c-125.9,26.9-256.1,54.8-386.3,75.2
				c-156.1,24.5-298.4,42.8-435.3,56.2l-3.7,0.4h-3.8c-18.6,0-39.6,2.7-61.8,5.6c-12.3,1.6-25.1,3.2-38.1,4.5
				c-14.1,1.4-28.2,2.8-42.3,4.1c-24.1,2.4-49.1,4.9-73.7,7.1c-77.3,7.1-155.8,13.5-233.2,18.9c-116.9,8.2-235,10.5-349.3,12.8
				c-35.6,0.7-72.4,1.4-108.5,2.3l-291,7.1l26.1,43.3c1.4,2.3,2.9,4.8,4.4,7.5l0.1,0l48.4,85.8c5.7,10.1,11.9,20.5,18.5,31.5
				c21.8,36.4,46.5,77.6,60.3,124.5c15.7,53.7,0.5,105.7-39.7,135.7c-37.7,28.1-81,23.1-104.2,20.4c-2.4-0.3-4.6-0.5-6.3-0.7
				c-25.6-2.4-49.4-7.1-72.4-11.5l-6.8-1.3c-17.6-3.4-41.7-8.1-64.9-20c-9.7-5-18.6-11-26.6-17.7c21.3,50.8,39,109.6,24.5,173.2
				c-8.9,38.9-25.2,80.5-46,117.3c-27.6,48.9-70.5,85.4-127.5,108.5c-18,7.3-35.5,13.1-52.5,18.7c-13.1,4.3-25.5,8.4-37.3,12.9
				c-42.1,16.1-88.9,20.1-139.2,11.7c-35.2-5.8-72.7-17.7-114.5-36.3c-73.6-32.7-129.8-82.2-162.5-143.3
				c-19.9-37.1-42.4-74.6-61.9-106.9c-35.3-58.2-74.5-121.5-119.9-193.7l-1.4-2.2l-5.4-7.6c-0.9,0.2-1.9,0.4-3.1,0.9l-2.3,0.8
				L903.4,1368l-238.6,81.3l78.1,72.6l344.5,325.9L1505.5,2242.5z M2136.2,1282.1C2136.2,1282.1,2136.2,1282.1,2136.2,1282.1
				C2136.2,1282.1,2136.2,1282.1,2136.2,1282.1z M3411.5,1264.9C3411.5,1264.9,3411.5,1264.9,3411.5,1264.9
				C3411.5,1264.9,3411.5,1264.9,3411.5,1264.9z M3563,1230.9C3563,1230.9,3563,1230.9,3563,1230.9
				C3563,1230.9,3563,1230.9,3563,1230.9z"/>
		</g>
	</g>
	<g>
		<path d="M1795.6,2601.4c-4.4,0-9.2-0.5-14.5-1.7c-5.4-1.2-10.9-3.2-16.3-5.8c-63.7-30.7-113.4-78-161.5-123.7
			c-8.3-7.9-16.9-16-25.4-23.9l-138.1-128.7l-418.3-395L677,1596.7l-129.6-120.5c-13.9-12.9-19.8-31.7-15.9-50.2
			c3.9-18.5,17-33.3,34.9-39.5l28.1-9.7l278-94.8l210.5-70.6c20-7.4,40.8-8.9,60.1-4.5c21.3,4.9,39,16.6,51.4,34l10.2,14.4l2.6,4
			c45.7,72.6,85.3,136.5,120.8,195.1c20.2,33.3,43.5,72.1,64.5,111.3c15.7,29.3,48.7,70.6,116.8,100.8
			c75.8,33.6,133.1,40.8,180.5,22.7c13.8-5.3,27.9-9.9,41.4-14.4c16.2-5.4,31.5-10.4,46.7-16.6c36.9-14.9,63-36.7,79.9-66.7
			c16.1-28.5,29.2-61.8,36-91.5c11.2-48.9-12.6-100.9-35.6-151.1c-4.9-10.8-9.6-21-14-31.2c-26.7-62.8-55.7-129.4-89.7-192.8
			c-21.4-39.9-26.3-69-15.1-88.8c7.6-13.3,20.8-18.7,30.1-19.4c5.2-0.5,22.4-1.1,70.3,4.7c44.3,5.4,76.7,38.9,105.2,74.3
			c28.4,35.3,48.8,75.1,59.1,115.1c1.9,7.6,3,15,4.1,22.1c1.3,8.8,2.5,17.1,5.2,24.5c8.2,22.4,24.3,27.7,59.1,34.4l7,1.3
			c21.7,4.2,42.3,8.2,63.2,10.2c2.7,0.3,5.5,0.6,8.2,0.9c12.8,1.5,28.7,3.3,35.9-2c10.2-7.6,7.5-23.1,5-31.7
			c-10.3-35.1-30.7-69.2-50.5-102.2c-6.6-11-13.4-22.4-19.8-33.7l-48.2-85.6c-3.7-6.2-76.5-126.8-76.5-126.8
			c-8-13.3-8.3-29.3-0.9-42.9c7.5-13.6,21.2-21.9,36.7-22.2l83.4-1.9l298.9-7.3c36.3-0.9,73.3-1.6,109-2.3
			c113-2.2,229.9-4.5,344.4-12.5c76.8-5.4,154.6-11.7,231.2-18.8c24.3-2.2,49.1-4.7,73.1-7.1c14.2-1.4,28.3-2.8,42.5-4.2
			c11.4-1.1,22.9-2.6,35-4.1c23.9-3.1,48.7-6.3,73.1-6.4c134.7-13.2,275-31.3,428.8-55.4c127.6-20,256.4-47.6,381.1-74.2l27.8-6
			c24.1-5.2,48.7-10.8,72.6-16.3c72.7-16.7,148-34.1,223.6-40.5c1.2-0.1,2.5-0.2,3.7-0.3c17.1-1.5,38.3-3.4,56.7,17
			c15,16.7,16.6,40.6,4.1,62.4c-7.2,12.6-16.7,23-25.9,33c-4.1,4.5-7.9,8.7-11.4,12.9c-14.3,17.4-26.7,31.3-39,43.7L4180.7,1036
			l-70.8,71.2l-0.4,0.4c-19,17.1-37.3,36.3-54.9,54.8c-12.1,12.7-24.6,25.9-37.5,38.5c-3.3,3.2-6.6,6.6-10.1,10.1
			c-13.8,14-29.4,29.9-48.2,40.3c-23.4,12.9-51,21.8-82.1,26.5c-52.5,8-106,14.6-157.7,21.1c-9.4,1.2-18.7,2.3-28.1,3.5l-61.4,7.7
			c-6.6,0.8-13.2,1.8-20.3,2.9c-20.7,3.2-42,6.4-63.5,5c-11.8-0.8-41.2-4.7-59.1-24.7c-9.3-10.5-13.7-23.1-17.5-34.3
			c-2.2-6.3-4.2-12.3-6.8-16.9c-7-12.3-15.5-23-25.1-31.7c-17.5-15.8-37-23.1-57.9-21.7c-30.1,2-64.3,22.5-91.7,54.9
			c-25.6,30.3-53.1,56.6-81.6,78.1c-32,24.1-71.4,53.9-119,53.9c-2.6,0-5.2-0.1-7.8-0.3c-24-1.6-45.5-13.3-64.4-23.7
			c-2.3-1.2-4.5-2.5-6.7-3.6c-22.5-12-43.9-25.4-61.9-36.8c-8-5.1-16-10.4-23.8-15.5c-24.8-16.4-50.5-33.4-77.4-44.5
			c-25.8-10.6-56.8-11.4-92.2-2.1c-30.1,7.8-62.4,22.9-90.9,42.5c-16.3,11.2-31.4,24.2-44.8,38.4c-8.9,9.4-13.7,19.9-19.8,33.1
			c-1.4,3-2.8,6-4.3,9.2c-10.5,22-17.5,48.1-24.3,73.3c-3,11.3-6.2,22.9-9.6,34.1c-11.3,36.9-29.2,62.6-56.5,80.9
			c-35.7,24-76.7,35.4-116.4,46.3c-6.2,1.7-12.5,3.5-18.7,5.2c-26.6,7.6-44.6,46.7-59,78.1c-3.8,8.3-7.4,16.2-11.1,23.2
			c-2.3,4.4-4.4,8.8-6.7,13.4c-8.5,17.4-17.4,35.4-31.3,50.8c-34.4,38-79.7,59.3-123.6,79.8c-8.3,3.9-16.9,7.9-25.1,12l-169.4,82.8
			c-10.7,5.8-22,11.3-33,16.7c-24,11.7-48.8,23.9-68.5,39c-35,26.8-58.7,67.6-68.8,118c-8.9,44.6-6.9,95.7,5.7,143.8
			c0.5,2,52.4,200.2,62,256.5c2.8,16.5,4.7,46.6-13.5,63.9C1819.3,2595.8,1809.9,2601.4,1795.6,2601.4z M1465.9,2289.8l138,128.6
			c8.6,8,17.3,16.3,25.6,24.2c48.1,45.7,93.5,88.9,151.9,117c2.9,1.4,5.7,2.4,8.3,3c5.2,1.2,8.5,0.9,9.3,0.1
			c2.6-2.4,4.9-13.3,2.1-29.9c-7.6-44.9-46.8-198.1-61.3-253.3c-14-53.6-16.2-110.7-6.2-160.9c11.9-59.5,40.6-108.2,83-140.7h0
			c22.8-17.5,49.3-30.4,75-43c11.2-5.5,21.9-10.7,32-16.2l0.7-0.4l169.7-82.9c8.5-4.2,17.2-8.3,25.7-12.2
			c40.4-19,82.3-38.6,111.5-70.9c10.4-11.5,17.7-26.3,25.4-42.1c2.3-4.6,4.6-9.5,7.1-14.2c3.2-6.2,6.7-13.7,10.3-21.6
			c17.7-38.5,39.8-86.4,83.1-98.8c6.3-1.8,12.8-3.6,19-5.3c36.7-10.2,74.7-20.7,105.3-41.2c19.9-13.4,32.6-32,41.3-60.6
			c3.2-10.6,6.2-21.4,9.3-32.9c7.2-26.9,14.7-54.6,26.7-79.8c1.4-2.9,2.7-5.9,4.1-8.7c6.6-14.4,13.5-29.4,26.6-43.3
			c15.3-16.2,32.4-30.9,51-43.7c32-22,68.6-39.1,102.9-48c43.6-11.3,82.7-10.1,116.3,3.8c30.3,12.5,57.5,30.5,83.8,47.9
			c7.6,5,15.5,10.2,23.2,15.1c17.4,11.1,38.1,23.9,59.5,35.4c2.3,1.2,4.6,2.5,7,3.8c16.3,8.9,33.2,18.1,48.9,19.1
			c36.9,2.5,71.1-23.3,101.3-46c26.3-19.8,51.7-44.2,75.5-72.3c34.4-40.7,77.5-65.6,118.2-68.3c31.2-2.1,60.9,8.8,86,31.4
			c12.6,11.4,23.6,25.2,32.6,41.1c4.4,7.7,7.1,15.6,9.8,23.3c2.9,8.5,5.7,16.6,10,21.4c5.7,6.4,18.7,11.2,33.2,12.1
			c17.3,1.1,36.6-1.8,55.2-4.7c7-1.1,14.2-2.2,21.3-3.1l61.4-7.7c9.4-1.2,18.7-2.3,28.1-3.5c51.5-6.4,104.7-13,156.7-21
			c26.6-4,50-11.5,69.4-22.2c13.9-7.7,26.9-20.9,39.4-33.6c3.4-3.5,7-7.1,10.6-10.6c12.4-12.1,24.7-25,36.6-37.5
			c18-18.9,36.7-38.5,56.6-56.5l70.1-70.4L4418.2,742c11.5-11.6,23.1-24.6,36.7-41.1c4.1-5,8.5-9.8,12.7-14.4
			c8.1-8.9,15.8-17.2,20.9-26.2c2.5-4.3,5.8-12.4,0.6-18.1c-5.2-5.8-8.9-6-25.1-4.6c-1.3,0.1-2.5,0.2-3.9,0.3
			c-73,6.2-146.8,23.2-218.3,39.6c-24,5.5-48.8,11.2-73.2,16.4l-27.8,6c-125.1,26.8-254.5,54.5-383.1,74.6
			c-154.9,24.3-296.2,42.5-431.9,55.8l-0.9,0.1h-0.9c-22.3,0-46.1,3.1-69.2,6c-11.9,1.5-24.2,3.1-36.2,4.3
			c-14.1,1.4-28.3,2.8-42.4,4.2c-24,2.4-48.9,4.8-73.3,7.1c-76.9,7.1-155,13.4-232,18.8c-115.4,8.1-232.8,10.4-346.3,12.6
			c-35.7,0.7-72.6,1.4-108.8,2.3l-300.4,7.4l-82,1.9c-2.4,0.1-3.6,1.4-4.2,2.6c-0.6,1.1-1.1,2.9,0.1,4.9l73.4,121.6
			c1.5,2.5,2.6,4.4,3.5,6l0.1,0l48.4,85.8c6.1,10.8,12.5,21.5,19.3,32.8c21,35,42.7,71.2,54.4,111c9,30.7,2.2,57.3-18.7,72.9
			c-19.3,14.4-44.5,11.5-62.9,9.3c-2.7-0.3-5.2-0.6-7.5-0.8c-22.8-2.2-45.2-6.5-66.9-10.7l-6.9-1.3c-31.7-6.1-71.1-13.7-87.5-58.6
			c-4.1-11.1-5.6-21.7-7.2-32.1c-0.9-6.4-1.8-12.5-3.3-18.2c-8.9-34.7-26.8-69.5-51.8-100.6c-23.4-29.1-49.4-56.6-80.2-60.4
			c-44.6-5.5-59.3-4.8-61.5-4.7l-1.1,0.2c-0.1,0.1-0.2,0.2-0.3,0.4c-0.2,0.5-5.4,12.5,15.6,51.9c34.8,64.9,64.1,132.3,91.1,195.9
			c4.2,9.8,8.7,19.7,13.6,30.3c24.4,53.4,52.2,113.9,38.1,175.4c-7.6,33.1-22.1,70.1-39.9,101.7c-21,37.2-54.2,65.2-98.8,83.2
			c-16.3,6.6-32.9,12.1-49,17.4c-13.2,4.4-26.8,8.9-39.8,13.9c-75.4,28.9-155.7,0.5-209.5-23.4c-61.7-27.4-108.3-68.1-134.9-117.6
			c-20.5-38.4-43.5-76.7-63.5-109.6c-35.4-58.5-74.8-122.1-120.5-194.5l-2.3-3.6l-9.3-13c-17-23.9-47.1-23.5-67.6-15.8l-0.6,0.2
			l-210.7,70.7l-277.9,94.7l-28.1,9.7c-7.5,2.6-9.5,8.8-10.1,11.4c-0.5,2.6-1.2,9.1,4.6,14.5l129.8,120.7l344.5,325.9L1465.9,2289.8
			z M1773.1,1054.6C1773.1,1054.6,1773.1,1054.6,1773.1,1054.6C1773.1,1054.6,1773.1,1054.6,1773.1,1054.6z M1774,1054.5
			L1774,1054.5C1774,1054.5,1774,1054.5,1774,1054.5z"/>
	</g>
	<g>
		<g>
			<g>
				<rect x="477.7" y="1674.3" transform="matrix(0.7448 0.6673 -0.6673 0.7448 1255.1617 101.4191)" width="34.7" height="34.7"/>
			</g>
		</g>
		<g>
			<g>
				
					<rect x="454.5" y="1700.1" transform="matrix(0.7448 0.6673 -0.6673 0.7448 1266.4865 123.4442)" class="st2" width="34.7" height="34.7"/>
			</g>
		</g>
		<g>
			<g>
				<rect x="431.4" y="1725.9" transform="matrix(0.7448 0.6673 -0.6673 0.7448 1277.8113 145.4695)" width="34.7" height="34.7"/>
			</g>
		</g>
		<g>
			<g>
				
					<rect x="503.5" y="1697.4" transform="matrix(0.7448 0.6673 -0.6673 0.7448 1277.1877 90.0947)" class="st2" width="34.7" height="34.7"/>
			</g>
		</g>
		<g>
			<g>
				<rect x="480.3" y="1723.2" transform="matrix(0.7448 0.6673 -0.6673 0.7448 1288.5125 112.1199)" width="34.7" height="34.7"/>
			</g>
		</g>
		<g>
			<g>
				
					<rect x="457.2" y="1749.1" transform="matrix(0.7448 0.6673 -0.6673 0.7448 1299.8372 134.1451)" class="st2" width="34.7" height="34.7"/>
			</g>
		</g>
		<g>
			<g>
				<rect x="529.3" y="1720.6" transform="matrix(0.7448 0.6673 -0.6673 0.7448 1299.219 78.7728)" width="34.7" height="34.7"/>
			</g>
		</g>
		<g>
			<g>
				
					<rect x="506.2" y="1746.4" transform="matrix(0.7448 0.6673 -0.6673 0.7448 1310.5369 100.7949)" class="st2" width="34.7" height="34.7"/>
			</g>
		</g>
		<g>
			<g>
				<rect x="483" y="1772.2" transform="matrix(0.7448 0.6673 -0.6673 0.7448 1321.8616 122.8201)" width="34.7" height="34.7"/>
			</g>
		</g>
		<g>
			<g>
				
					<rect x="555.1" y="1743.7" transform="matrix(0.7448 0.6673 -0.6673 0.7448 1321.2382 67.4454)" class="st2" width="34.7" height="34.7"/>
			</g>
		</g>
		<g>
			<g>
				<rect x="532" y="1769.5" transform="matrix(0.7448 0.6673 -0.6673 0.7448 1332.5629 89.4706)" width="34.7" height="34.7"/>
			</g>
		</g>
		<g>
			<g>
				
					<rect x="508.8" y="1795.3" transform="matrix(0.7448 0.6673 -0.6673 0.7448 1343.8876 111.4957)" class="st2" width="34.7" height="34.7"/>
			</g>
		</g>
		<g>
			<g>
				<rect x="580.9" y="1766.8" transform="matrix(0.7448 0.6673 -0.6673 0.7448 1343.2593 56.1189)" width="34.7" height="34.7"/>
			</g>
		</g>
		<g>
			<g>
				
					<rect x="557.8" y="1792.6" transform="matrix(0.7448 0.6673 -0.6673 0.7448 1354.5878 78.1456)" class="st2" width="34.7" height="34.7"/>
			</g>
		</g>
		<g>
			<g>
				<rect x="534.7" y="1818.5" transform="matrix(0.7448 0.6673 -0.6673 0.7448 1365.9124 100.1708)" width="34.7" height="34.7"/>
			</g>
		</g>
	</g>
	<g>
		<g>
			<g>
				<polygon points="737.5,1992.8 737.8,2002.2 784.8,2000.7 783.3,1953.7 773.9,1954 775.1,1991.6 				"/>
			</g>
		</g>
		<g>
			<g>
				<polygon points="708.7,1974.9 755.7,1973.4 754.2,1926.4 744.8,1926.7 746,1964.3 708.4,1965.5 				"/>
			</g>
		</g>
		<g>
			<g>
				<polygon points="675.8,1934.9 676.1,1944.4 723.2,1942.9 721.7,1895.8 712.2,1896.1 713.4,1933.7 				"/>
			</g>
		</g>
	</g>
	<g>
		<path class="st3" d="M1795.6,2596.4c-4.4,0-9.2-0.5-14.5-1.7c-5.4-1.2-10.9-3.2-16.3-5.8c-63.7-30.7-113.4-78-161.5-123.7
			c-8.3-7.9-16.9-16-25.4-23.9l-138.1-128.7l-418.3-395L677,1591.7l26.1-27.6l344.5,325.9l418.2,394.9l138,128.6
			c8.6,8,17.3,16.3,25.6,24.2c48.1,45.7,93.5,88.9,151.9,117c2.9,1.4,5.7,2.4,8.3,3c5.2,1.2,8.5,0.9,9.3,0.1
			c2.6-2.4,4.9-13.3,2.1-29.9c-7.6-44.9-46.8-198.1-61.3-253.3c-14-53.6-16.2-110.7-6.2-160.9c11.9-59.5,40.6-108.2,83-140.7
			c22.8-17.5,49.3-30.5,75-43c11.2-5.5,21.9-10.7,32-16.2l0.7-0.4l169.7-82.9c8.5-4.2,17.2-8.3,25.7-12.2
			c40.4-19,82.3-38.6,111.5-70.9c10.4-11.5,17.7-26.3,25.4-42.1c2.3-4.6,4.6-9.5,7.1-14.2c3.2-6.2,6.7-13.7,10.3-21.6
			c17.7-38.5,39.8-86.4,83.1-98.8c6.3-1.8,12.8-3.6,19-5.3c36.7-10.2,74.7-20.7,105.3-41.2c19.9-13.4,32.6-32,41.3-60.6
			c3.2-10.6,6.2-21.4,9.3-32.9c7.2-26.9,14.7-54.6,26.7-79.8c1.4-2.9,2.7-5.9,4.1-8.7c6.6-14.4,13.5-29.4,26.6-43.3
			c15.3-16.2,32.4-30.9,51-43.7c32-22,68.6-39.1,102.9-48c43.6-11.3,82.7-10.1,116.3,3.8c30.3,12.5,57.5,30.5,83.8,47.9
			c7.6,5,15.5,10.2,23.2,15.1l-20.4,32.1c-8-5.1-16-10.4-23.8-15.5c-24.8-16.4-50.5-33.4-77.4-44.5c-25.8-10.6-56.8-11.4-92.2-2.1
			c-30.1,7.8-62.4,22.9-90.9,42.5c-16.3,11.2-31.4,24.2-44.8,38.4c-8.9,9.4-13.7,19.9-19.8,33.1c-1.4,3-2.8,6-4.3,9.2
			c-10.5,22-17.5,48.1-24.3,73.3c-3,11.3-6.2,22.9-9.6,34.1c-11.3,36.9-29.2,62.6-56.5,80.9c-35.7,24-76.7,35.4-116.4,46.3
			c-6.2,1.7-12.5,3.5-18.7,5.2c-26.6,7.6-44.6,46.7-59,78.1c-3.8,8.3-7.4,16.2-11.1,23.2c-2.3,4.4-4.4,8.8-6.7,13.4
			c-8.5,17.4-17.4,35.4-31.3,50.8c-34.4,38-79.7,59.3-123.6,79.8c-8.3,3.9-16.9,7.9-25.1,12l-169.4,82.8c-10.7,5.8-22,11.3-33,16.7
			c-24,11.7-48.8,23.9-68.5,39c-34.9,26.8-58.7,67.6-68.8,118c-8.9,44.6-6.9,95.7,5.7,143.8c0.5,2,52.4,200.2,62,256.5
			c2.8,16.5,4.7,46.6-13.5,63.9C1819.3,2590.8,1809.9,2596.4,1795.6,2596.4z"/>
	</g>
	<g>
		<path class="st4" d="M1634.9,1732c-52.8,0-103.3-18.9-141-35.6c-61.7-27.4-108.3-68.1-134.9-117.7
			c-20.5-38.4-43.5-76.7-63.5-109.6c-35.4-58.5-74.8-122.1-120.5-194.5l-2.3-3.6l-9.3-13c-10.6-14.9-34.7-28-67.6-15.8l-0.6,0.2
			l-210.7,70.7l-277.9,94.7l-28.1,9.7c-7.5,2.6-9.5,8.8-10.1,11.4c-0.5,2.6-1.2,9.1,4.6,14.5L703,1564l-25.9,27.8l-129.7-120.6
			c-13.9-12.9-19.8-31.7-15.9-50.2s17-33.3,34.9-39.5l28.1-9.7l278-94.8l210.5-70.7c20-7.4,40.8-8.9,60.1-4.5
			c21.3,4.9,39,16.6,51.4,34l10.2,14.4l2.6,4c45.7,72.6,85.3,136.5,120.8,195.1c20.2,33.3,43.5,72.1,64.5,111.3
			c28.4,53.1,79.2,84.2,116.8,100.8c75.8,33.6,133.1,40.8,180.5,22.7c13.8-5.3,27.9-9.9,41.4-14.4c16.2-5.4,31.5-10.4,46.7-16.6
			c36.9-14.9,63-36.7,79.9-66.7c16.1-28.5,29.2-61.8,36-91.5c11.2-48.9-12.6-100.9-35.6-151.1c-4.9-10.8-9.6-21-14-31.2
			c-26.7-62.8-55.7-129.4-89.7-192.8c-21.4-39.9-26.3-69-15.1-88.8c7.6-13.3,20.8-18.8,30.2-19.4c5.2-0.5,22.4-1.1,70.3,4.7
			c44.3,5.4,76.7,38.9,105.2,74.3c28.4,35.3,48.8,75.1,59.1,115.1c1.9,7.6,3,15,4.1,22.1c1.3,8.8,2.5,17.1,5.2,24.5
			c8.2,22.4,24.3,27.7,59.1,34.4l7,1.3c21.7,4.2,42.3,8.2,63.2,10.2c2.7,0.3,5.5,0.6,8.2,0.9c12.8,1.5,28.7,3.3,35.9-2
			c10.2-7.6,7.5-23.1,5-31.7c-10.3-35.1-30.7-69.2-50.5-102.2c-6.6-11-13.4-22.4-19.8-33.7l33.1-18.7c6.1,10.8,12.5,21.5,19.3,32.8
			c21,35,42.7,71.2,54.4,111c9,30.7,2.2,57.3-18.7,72.9c-19.3,14.4-44.5,11.5-62.9,9.3c-2.7-0.3-5.2-0.6-7.5-0.8
			c-22.8-2.2-45.2-6.5-66.9-10.7l-6.9-1.3c-31.7-6.1-71.1-13.7-87.5-58.6c-4.1-11.1-5.6-21.7-7.2-32.1c-0.9-6.4-1.8-12.5-3.3-18.2
			c-8.9-34.7-26.8-69.5-51.8-100.6c-23.4-29.1-49.4-56.6-80.2-60.4c-44.6-5.5-59.3-4.8-61.5-4.7l-1.1,0.2c-0.1,0.1-0.2,0.2-0.3,0.4
			c-0.2,0.5-5.4,12.5,15.6,51.9c34.8,64.9,64.1,132.3,91.1,195.9c4.2,9.8,8.7,19.7,13.6,30.3c24.4,53.4,52.2,113.9,38.1,175.4
			c-7.6,33.1-22.1,70.1-39.9,101.7c-21,37.2-54.2,65.2-98.8,83.2c-16.3,6.6-32.9,12.1-49,17.4c-13.2,4.4-26.8,8.9-39.8,13.9
			C1680.7,1728.5,1657.6,1732,1634.9,1732z M1773.1,1049.6C1773.1,1049.6,1773.1,1049.6,1773.1,1049.6
			C1773.1,1049.6,1773.1,1049.6,1773.1,1049.6z"/>
	</g>
	<g>
		<path class="st5" d="M3087.1,1370.6c-2.6,0-5.2-0.1-7.8-0.3c-24-1.6-45.5-13.3-64.4-23.7c-2.3-1.2-4.5-2.5-6.7-3.6
			c-22.5-12-43.9-25.4-61.9-36.8l20.4-32.1c17.4,11.1,38.1,23.9,59.5,35.4c2.3,1.2,4.6,2.5,7,3.8c16.3,8.9,33.2,18.1,48.9,19.1
			c36.9,2.5,71.1-23.3,101.3-46c26.3-19.8,51.7-44.2,75.5-72.3c34.4-40.7,77.5-65.6,118.2-68.3c31.2-2.1,60.9,8.8,86,31.4
			c12.6,11.4,23.6,25.2,32.6,41.1c4.4,7.7,7.1,15.6,9.8,23.3c2.9,8.5,5.7,16.6,10,21.4c5.7,6.4,18.7,11.2,33.2,12.1
			c17.3,1.1,36.6-1.8,55.2-4.7c7-1.1,14.2-2.2,21.3-3.1l61.4-7.7c9.4-1.2,18.7-2.3,28.1-3.5c51.5-6.4,104.7-13,156.7-21
			c26.6-4,50-11.5,69.4-22.2c13.9-7.7,26.9-20.9,39.4-33.6c3.4-3.5,7-7.1,10.6-10.6c12.4-12.1,24.7-25,36.6-37.5
			c18-18.9,36.7-38.5,56.6-56.5l70.1-70.4L4418.2,737c11.5-11.6,23.1-24.6,36.7-41.1c4.1-5,8.5-9.8,12.7-14.4
			c8.1-8.9,15.8-17.2,20.9-26.2c2.5-4.3,5.8-12.4,0.6-18.1c-5.2-5.8-8.9-6-25.1-4.6c-1.3,0.1-2.5,0.2-3.9,0.3
			c-73,6.2-146.8,23.2-218.3,39.6c-24,5.5-48.8,11.2-73.2,16.4l-27.8,6c-125.1,26.8-254.5,54.5-383.1,74.6
			c-154.9,24.3-296.2,42.5-431.9,55.8l-0.9,0.1h-0.9c-22.3,0-46.1,3.1-69.2,6c-11.9,1.5-24.2,3.1-36.2,4.3
			c-14.1,1.4-28.3,2.8-42.4,4.2c-24,2.4-48.9,4.8-73.3,7.1c-76.9,7.1-155,13.4-232,18.8c-115.4,8.1-232.8,10.4-346.3,12.6
			c-35.7,0.7-72.6,1.4-108.8,2.3l-300.4,7.4l-82,1.9c-2.4,0.1-3.6,1.4-4.2,2.6c-0.6,1.1-1.1,2.9,0.1,4.9l73.4,121.6
			c1.5,2.5,2.6,4.4,3.5,6l0.1,0l48.4,85.8l-33.1,18.7l-48.2-85.6c-3.6-6-76.5-126.9-76.5-126.9c-8-13.3-8.3-29.3-0.9-42.9
			c7.5-13.6,21.2-21.9,36.7-22.2l83.4-1.9l298.9-7.3c36.3-0.9,73.3-1.6,109-2.3c113-2.2,229.9-4.5,344.4-12.5
			c76.8-5.4,154.6-11.7,231.2-18.8c24.3-2.2,49.1-4.7,73.1-7.1c14.2-1.4,28.3-2.8,42.5-4.2c11.4-1.1,22.9-2.6,35-4.1
			c23.9-3.1,48.6-6.3,73.1-6.4c134.7-13.2,275-31.3,428.8-55.4c127.6-20,256.4-47.6,381.1-74.2l27.8-6c24.1-5.2,48.7-10.8,72.6-16.3
			c72.7-16.7,148-34.1,223.6-40.5c1.2-0.1,2.5-0.2,3.7-0.3c17.1-1.5,38.3-3.4,56.7,17c15,16.7,16.6,40.6,4.1,62.4
			c-7.2,12.6-16.7,23-25.9,33c-4.1,4.5-7.9,8.7-11.4,12.9c-14.3,17.4-26.7,31.3-39,43.7L4180.7,1031l-70.8,71.2l-0.4,0.4
			c-19,17.1-37.3,36.3-54.9,54.8c-12.1,12.7-24.6,25.9-37.5,38.5c-3.3,3.2-6.6,6.6-10.1,10.1c-13.8,14-29.4,29.9-48.2,40.3
			c-23.4,12.9-51,21.8-82.1,26.5c-52.5,8-106,14.6-157.7,21.1c-9.4,1.2-18.7,2.3-28.1,3.5l-61.4,7.7c-6.6,0.8-13.2,1.8-20.3,2.9
			c-20.7,3.2-42,6.4-63.5,5c-11.8-0.8-41.2-4.7-59.1-24.7c-9.3-10.5-13.7-23.1-17.5-34.3c-2.2-6.3-4.2-12.3-6.8-16.9
			c-7-12.3-15.5-23-25.1-31.7c-17.5-15.8-37-23.1-57.9-21.7c-30.1,2-64.3,22.5-91.7,54.9c-25.6,30.3-53.1,56.6-81.6,78.1
			C3174.1,1340.9,3134.7,1370.6,3087.1,1370.6z"/>
	</g>
	<g>
		<g>
			
				<ellipse transform="matrix(0.9871 -0.1602 0.1602 0.9871 -94.6467 692.9194)" class="st1" cx="4250.6" cy="933.5" rx="42.7" ry="42.7"/>
		</g>
	</g>
	<g>
		<g>
			<ellipse transform="matrix(0.9239 -0.3827 0.3827 0.9239 -33.6856 1697.6742)" cx="4250.6" cy="933.5" rx="25.4" ry="25.4"/>
		</g>
	</g>
	<g>
		<g>
			<rect x="4247.4" y="928.1" width="6.2" height="392.8"/>
		</g>
	</g>
	<g>
		<g>
			<path d="M4299.8,1258.6h27.8c6.6,0,12.5,1.3,17.6,3.8c5.1,2.5,9.1,6.1,11.9,10.7c2.8,4.6,4.2,10,4.2,16.1
				c0,6.1-1.4,11.5-4.2,16.1c-2.8,4.6-6.8,8.2-11.9,10.7c-5.1,2.5-11,3.8-17.6,3.8h-27.8V1258.6z M4326.9,1308.2
				c6.1,0,11-1.7,14.7-5.1c3.6-3.4,5.5-8,5.5-13.9s-1.8-10.5-5.5-13.9c-3.6-3.4-8.5-5.1-14.7-5.1h-13v38H4326.9z"/>
		</g>
		<g>
			<path d="M4411.1,1319.9l-11.8-17.1h-0.7h-12.3v17.1h-14.2v-61.2h26.5c5.4,0,10.1,0.9,14.1,2.7c4,1.8,7.1,4.4,9.2,7.7
				c2.2,3.3,3.2,7.3,3.2,11.8s-1.1,8.5-3.3,11.8c-2.2,3.3-5.3,5.8-9.3,7.6l13.7,19.7H4411.1z M4407.5,1272.9
				c-2.2-1.8-5.5-2.8-9.7-2.8h-11.6v21.4h11.6c4.3,0,7.5-0.9,9.7-2.8c2.2-1.9,3.3-4.5,3.3-7.9
				C4410.8,1277.4,4409.7,1274.8,4407.5,1272.9z"/>
		</g>
		<g>
			<path d="M4442.5,1319c-4.5-1.3-8.1-3-10.9-5.1l4.8-10.7c2.6,1.9,5.7,3.5,9.4,4.6c3.6,1.2,7.2,1.8,10.9,1.8c4,0,7-0.6,8.9-1.8
				c1.9-1.2,2.9-2.8,2.9-4.8c0-1.5-0.6-2.7-1.7-3.6c-1.1-1-2.6-1.7-4.4-2.3c-1.8-0.6-4.2-1.2-7.2-1.9c-4.7-1.1-8.5-2.2-11.5-3.3
				c-3-1.1-5.5-2.9-7.7-5.3c-2.1-2.5-3.2-5.7-3.2-9.8c0-3.6,1-6.8,2.9-9.7c1.9-2.9,4.8-5.2,8.7-6.9c3.9-1.7,8.6-2.5,14.2-2.5
				c3.9,0,7.7,0.5,11.5,1.4c3.7,0.9,7,2.3,9.8,4l-4.4,10.8c-5.7-3.2-11.3-4.8-17-4.8c-4,0-6.9,0.6-8.8,1.9c-1.9,1.3-2.8,3-2.8,5.1
				s1.1,3.7,3.3,4.7c2.2,1,5.5,2,10,3c4.7,1.1,8.5,2.2,11.5,3.3c3,1.1,5.5,2.9,7.7,5.3c2.1,2.4,3.2,5.6,3.2,9.7c0,3.5-1,6.7-2.9,9.6
				c-2,2.9-4.9,5.2-8.8,6.9c-3.9,1.7-8.7,2.5-14.3,2.5C4451.7,1320.9,4447,1320.3,4442.5,1319z"/>
		</g>
	</g>
	<g>
		<g>
			
				<ellipse transform="matrix(0.9871 -0.1602 0.1602 0.9871 -208.1122 223.0517)" class="st1" cx="1279.4" cy="1402.4" rx="42.7" ry="42.7"/>
		</g>
	</g>
	<g>
		<g>
			<ellipse transform="matrix(0.9239 -0.3827 0.3827 0.9239 -439.2665 596.3665)" cx="1279.4" cy="1402.4" rx="25.4" ry="25.4"/>
		</g>
	</g>
	<g>
		<g>
			<rect x="1276.3" y="1396.9" width="6.2" height="392.8"/>
		</g>
	</g>
	<g>
		<g>
			<path d="M1048.4,1724.8h27.8c6.6,0,12.5,1.3,17.6,3.8c5.1,2.5,9.1,6.1,11.9,10.7c2.8,4.6,4.2,10,4.2,16.1
				c0,6.1-1.4,11.5-4.2,16.1c-2.8,4.6-6.8,8.2-11.9,10.7c-5.1,2.5-11,3.8-17.6,3.8h-27.8V1724.8z M1075.6,1774.4
				c6.1,0,11-1.7,14.7-5.1c3.6-3.4,5.5-8,5.5-13.9s-1.8-10.5-5.5-13.9c-3.6-3.4-8.5-5.1-14.7-5.1h-13v38H1075.6z"/>
		</g>
		<g>
			<path d="M1159.7,1786l-11.8-17.1h-0.7h-12.3v17.1h-14.2v-61.2h26.5c5.4,0,10.1,0.9,14.1,2.7c4,1.8,7.1,4.4,9.2,7.7
				c2.2,3.3,3.2,7.3,3.2,11.8s-1.1,8.5-3.3,11.8c-2.2,3.3-5.3,5.8-9.3,7.6l13.7,19.7H1159.7z M1156.1,1739.1
				c-2.2-1.8-5.5-2.8-9.7-2.8h-11.6v21.4h11.6c4.3,0,7.5-0.9,9.7-2.8c2.2-1.9,3.3-4.5,3.3-7.9
				C1159.5,1743.5,1158.4,1740.9,1156.1,1739.1z"/>
		</g>
		<g>
			<path d="M1191.1,1785.1c-4.5-1.3-8.1-3-10.9-5.1l4.8-10.7c2.6,1.9,5.7,3.5,9.4,4.6c3.6,1.2,7.2,1.8,10.9,1.8c4,0,7-0.6,8.9-1.8
				c1.9-1.2,2.9-2.8,2.9-4.8c0-1.5-0.6-2.7-1.7-3.6c-1.1-1-2.6-1.7-4.4-2.3c-1.8-0.6-4.2-1.2-7.2-1.9c-4.7-1.1-8.5-2.2-11.5-3.3
				c-3-1.1-5.5-2.9-7.7-5.3s-3.2-5.7-3.2-9.8c0-3.6,1-6.8,2.9-9.7c1.9-2.9,4.8-5.2,8.7-6.9c3.9-1.7,8.6-2.5,14.2-2.5
				c3.9,0,7.7,0.5,11.5,1.4c3.7,0.9,7,2.3,9.8,4l-4.4,10.8c-5.7-3.2-11.3-4.8-17-4.8c-4,0-6.9,0.6-8.8,1.9c-1.9,1.3-2.8,3-2.8,5.1
				s1.1,3.7,3.3,4.7c2.2,1,5.5,2,10,3c4.7,1.1,8.5,2.2,11.5,3.3c3,1.1,5.5,2.9,7.7,5.3c2.1,2.4,3.2,5.6,3.2,9.7c0,3.5-1,6.7-2.9,9.6
				c-2,2.9-4.9,5.2-8.8,6.9c-3.9,1.7-8.7,2.5-14.3,2.5C1200.3,1787.1,1195.6,1786.4,1191.1,1785.1z"/>
		</g>
	</g>
	<g>
		<g>
			<ellipse transform="matrix(0.9925 -0.1222 0.1222 0.9925 -317.3825 251.1689)" cx="1889.3" cy="2713.5" rx="90.2" ry="90.2"/>
		</g>
	</g>
	<g>
		<g>
			<path class="st2" d="M1899.2,2684.8v61.2H1885v-49.9h-12.2v-11.4H1899.2z"/>
		</g>
	</g>
	<g>
		<g>
			<circle cx="1889.3" cy="2168.1" r="90.2"/>
		</g>
	</g>
	<g>
		<g>
			<path class="st2" d="M1912.7,2189.2v11.6h-46.3v-9.2l23.6-22.3c2.5-2.4,4.2-4.4,5.1-6.2c0.9-1.7,1.3-3.4,1.3-5.1
				c0-2.4-0.8-4.3-2.5-5.6c-1.7-1.3-4.1-2-7.3-2c-2.7,0-5.1,0.5-7.3,1.5c-2.2,1-4,2.6-5.4,4.6l-10.3-6.6c2.4-3.6,5.7-6.3,9.9-8.4
				c4.2-2,9-3,14.4-3c4.5,0,8.5,0.7,11.9,2.2c3.4,1.5,6.1,3.6,8,6.3c1.9,2.7,2.8,5.9,2.8,9.6c0,3.3-0.7,6.4-2.1,9.4
				c-1.4,2.9-4.1,6.2-8.1,10l-14.1,13.3H1912.7z"/>
		</g>
	</g>
	<g>
		<g>
			<circle cx="2296.3" cy="1915.5" r="90.2"/>
		</g>
	</g>
	<g>
		<g>
			<path class="st2" d="M2314.7,1917.9c2.9,3.1,4.3,7,4.3,11.6c0,3.6-0.9,6.8-2.8,9.8c-1.9,3-4.7,5.4-8.5,7.2
				c-3.8,1.8-8.5,2.7-14,2.7c-4.3,0-8.6-0.6-12.7-1.7c-4.2-1.1-7.7-2.8-10.6-4.9l5.5-10.9c2.3,1.8,5,3.1,8.1,4.1
				c3.1,1,6.2,1.4,9.4,1.4c3.6,0,6.4-0.7,8.4-2.1c2-1.4,3.1-3.3,3.1-5.8c0-5-3.8-7.5-11.5-7.5h-6.5v-9.4l12.6-14.3h-26.1v-11.4h42.9
				v9.2l-13.8,15.8C2307.8,1912.7,2311.9,1914.7,2314.7,1917.9z"/>
		</g>
	</g>
	<g>
		<g>
			<circle cx="2435.3" cy="1719.8" r="90.2"/>
		</g>
	</g>
	<g>
		<g>
			<path class="st2" d="M2464.6,1739.5h-10v12.9h-13.8v-12.9h-33v-9.5l28.9-38.8h14.9l-26.8,36.8h16.4v-11.5h13.4v11.5h10V1739.5z"
				/>
		</g>
	</g>
	<g>
		<g>
			<ellipse transform="matrix(0.7071 -0.7071 0.7071 0.7071 -384.3628 2320.0625)" cx="2608.4" cy="1624" rx="90.2" ry="90.2"/>
		</g>
	</g>
	<g>
		<g>
			<path class="st2" d="M2625.9,1623.5c4.1,3.4,6.2,8.1,6.2,13.8c0,3.7-0.9,7.1-2.8,10.2c-1.9,3.1-4.7,5.5-8.5,7.4
				s-8.5,2.8-14.1,2.8c-4.3,0-8.6-0.6-12.7-1.7s-7.7-2.8-10.6-4.9l5.6-10.9c2.3,1.8,5,3.1,8.1,4.1c3,1,6.2,1.4,9.4,1.4
				c3.6,0,6.4-0.7,8.4-2.1c2-1.4,3.1-3.4,3.1-5.9c0-2.6-1.1-4.6-3.2-6s-5.8-2-11.1-2h-15.7l3.1-34.5h37.4v11.4h-25.5l-1,11.6h5
				C2615.4,1618.4,2621.8,1620.1,2625.9,1623.5z"/>
		</g>
	</g>
	<g>
		<g>
			<ellipse transform="matrix(0.7071 -0.7071 0.7071 0.7071 -158.9034 2356.416)" cx="2765" cy="1370" rx="90.2" ry="90.2"/>
		</g>
	</g>
	<g>
		<g>
			<path class="st2" d="M2780.7,1366.6c3.2,1.6,5.7,3.8,7.6,6.7c1.9,2.9,2.8,6.2,2.8,10c0,4.1-1,7.7-3.1,10.8
				c-2,3.1-4.8,5.5-8.4,7.1c-3.5,1.7-7.5,2.5-11.8,2.5c-8.6,0-15.3-2.6-20.1-7.9c-4.8-5.3-7.3-12.7-7.3-22.5
				c0-6.9,1.3-12.9,3.9-17.8c2.6-5,6.3-8.7,11-11.3c4.7-2.6,10.1-3.8,16.3-3.8c3.3,0,6.4,0.4,9.4,1.1c3,0.7,5.6,1.8,7.7,3.1
				l-5.3,10.4c-3-2-6.9-3.1-11.5-3.1c-5.2,0-9.3,1.5-12.3,4.6c-3,3-4.7,7.4-4.9,13.2c3.6-3.6,8.7-5.4,15.1-5.4
				C2773.9,1364.2,2777.5,1365,2780.7,1366.6z M2774.5,1390.7c1.9-1.6,2.8-3.9,2.8-6.6c0-2.8-1-5-2.8-6.7c-1.9-1.7-4.4-2.5-7.6-2.5
				c-3.1,0-5.6,0.9-7.6,2.6c-2,1.7-3,3.9-3,6.6c0,2.7,1,4.9,2.9,6.6c1.9,1.7,4.5,2.5,7.9,2.5
				C2770.2,1393.1,2772.6,1392.3,2774.5,1390.7z"/>
		</g>
	</g>
	<g>
		<g>
			<ellipse transform="matrix(0.7071 -0.7071 0.7071 0.7071 -143.7109 2633.6731)" cx="3107.3" cy="1490.3" rx="90.2" ry="90.2"/>
		</g>
	</g>
	<g>
		<g>
			<path class="st2" d="M3131.5,1461.7v9.2l-22.7,52.1h-15.4l22-49.7H3095v10h-12.6v-21.5H3131.5z"/>
		</g>
	</g>
	<g>
		<g>
			<ellipse transform="matrix(0.7071 -0.7071 0.7071 0.7071 20.9852 2897.4216)" cx="3508" cy="1423.4" rx="90.2" ry="90.2"/>
		</g>
	</g>
	<g>
		<g>
			<path class="st2" d="M3525.2,1401.5c4.8,5.2,7.3,12.7,7.3,22.5c0,6.9-1.3,12.9-3.9,17.8c-2.6,5-6.2,8.7-11,11.3
				c-4.7,2.6-10.2,3.9-16.4,3.9c-3.3,0-6.4-0.4-9.4-1.1c-3-0.7-5.5-1.8-7.6-3.1l5.2-10.4c3,2,6.8,3.1,11.5,3.1
				c5.2,0,9.3-1.5,12.3-4.6c3-3.1,4.7-7.5,4.9-13.3c-3.7,3.7-8.8,5.5-15.2,5.5c-3.9,0-7.5-0.8-10.7-2.4c-3.2-1.6-5.7-3.8-7.6-6.7
				c-1.9-2.9-2.8-6.2-2.8-10c0-4.1,1-7.7,3.1-10.8c2-3.1,4.8-5.5,8.4-7.1c3.5-1.7,7.4-2.5,11.8-2.5
				C3513.6,1393.7,3520.4,1396.3,3525.2,1401.5z M3513.7,1420c2-1.7,2.9-3.9,2.9-6.6s-1-4.9-2.8-6.6c-1.9-1.7-4.5-2.5-7.8-2.5
				c-3,0-5.5,0.8-7.4,2.5c-1.9,1.6-2.8,3.8-2.8,6.6c0,2.8,0.9,5,2.8,6.7c1.9,1.7,4.4,2.5,7.6,2.5
				C3509.2,1422.6,3511.7,1421.7,3513.7,1420z"/>
		</g>
	</g>
	<g>
		<g>
			<ellipse transform="matrix(0.7071 -0.7071 0.7071 0.7071 200.3753 3227.011)" cx="3995.5" cy="1371.6" rx="90.2" ry="90.2"/>
		</g>
	</g>
	<g>
		<g>
			<path class="st2" d="M3975.7,1343v61.2h-14.2v-49.9h-12.2V1343H3975.7z"/>
		</g>
		<g>
			<path class="st2" d="M3999.1,1401.5c-4-2.5-7.1-6.1-9.3-10.9c-2.2-4.8-3.4-10.4-3.4-17s1.1-12.3,3.4-17s5.4-8.4,9.3-10.9
				c4-2.5,8.5-3.8,13.6-3.8c5.1,0,9.6,1.3,13.6,3.8c4,2.5,7.1,6.1,9.3,10.9c2.2,4.8,3.4,10.4,3.4,17s-1.1,12.3-3.4,17
				c-2.2,4.8-5.4,8.4-9.3,10.9c-4,2.5-8.5,3.8-13.6,3.8C4007.6,1405.3,4003.1,1404,3999.1,1401.5z M4021.4,1388.5
				c2.1-3.2,3.2-8.2,3.2-14.9s-1.1-11.7-3.2-14.9c-2.1-3.2-5.1-4.8-8.8-4.8c-3.7,0-6.6,1.6-8.7,4.8c-2.1,3.2-3.2,8.2-3.2,14.9
				s1.1,11.7,3.2,14.9c2.1,3.2,5,4.8,8.7,4.8C4016.4,1393.3,4019.3,1391.7,4021.4,1388.5z"/>
		</g>
	</g>
	<g>
		<g>
			<circle cx="4597.9" cy="535.9" r="90.2"/>
		</g>
	</g>
	<g>
		<g>
			<path class="st2" d="M4590.6,507.2v61.2h-14.2v-49.9h-12.2v-11.4H4590.6z"/>
		</g>
		<g>
			<path class="st2" d="M4624.9,507.2v61.2h-14.2v-49.9h-12.2v-11.4H4624.9z"/>
		</g>
	</g>
	<g>
		<g>
			<circle cx="1954.4" cy="754.4" r="90.2"/>
		</g>
	</g>
	<g>
		<g>
			<path class="st2" d="M1938.5,725.8v61.2h-14.2v-49.9H1912v-11.4H1938.5z"/>
		</g>
		<g>
			<path class="st2" d="M1994.9,775.5v11.6h-46.3v-9.2l23.6-22.3c2.5-2.4,4.2-4.4,5.1-6.2c0.9-1.7,1.3-3.4,1.3-5.1
				c0-2.4-0.8-4.3-2.5-5.6c-1.7-1.3-4.1-2-7.3-2c-2.7,0-5.1,0.5-7.3,1.5c-2.2,1-4,2.6-5.4,4.6l-10.3-6.6c2.4-3.6,5.7-6.3,9.9-8.4
				c4.2-2,9-3,14.4-3c4.5,0,8.5,0.7,11.9,2.2c3.4,1.5,6.1,3.6,8,6.3c1.9,2.7,2.8,5.9,2.8,9.6c0,3.3-0.7,6.4-2.1,9.4
				c-1.4,2.9-4.1,6.2-8.1,10l-14.1,13.3H1994.9z"/>
		</g>
	</g>
	<g>
		<g>
			<ellipse transform="matrix(0.7071 -0.7071 0.7071 0.7071 -221.3941 2044.0271)" cx="2356.7" cy="1289.3" rx="90.2" ry="90.2"/>
		</g>
	</g>
	<g>
		<g>
			<path class="st2" d="M2340.7,1260.6v61.2h-14.2V1272h-12.2v-11.4H2340.7z"/>
		</g>
		<g>
			<path class="st2" d="M2392.3,1291.6c2.9,3.1,4.3,7,4.3,11.6c0,3.6-0.9,6.8-2.8,9.8c-1.9,3-4.7,5.4-8.5,7.2
				c-3.8,1.8-8.5,2.7-14,2.7c-4.3,0-8.6-0.6-12.7-1.7c-4.2-1.1-7.7-2.8-10.6-4.9l5.5-10.9c2.3,1.8,5,3.1,8.1,4.1
				c3.1,1,6.2,1.4,9.4,1.4c3.6,0,6.4-0.7,8.4-2.1c2-1.4,3.1-3.3,3.1-5.8c0-5-3.8-7.5-11.5-7.5h-6.5v-9.4l12.6-14.3h-26.1v-11.4h42.9
				v9.2l-13.8,15.8C2385.3,1286.4,2389.4,1288.4,2392.3,1291.6z"/>
		</g>
	</g>
	<g>
		<g>
			<ellipse transform="matrix(0.7071 -0.7071 0.7071 0.7071 -421.7762 1868.5009)" cx="2044.6" cy="1443.4" rx="90.2" ry="90.2"/>
		</g>
	</g>
	<g>
		<g>
			<path class="st2" d="M2024.3,1414.8v61.2h-14.2v-49.9h-12.2v-11.4H2024.3z"/>
		</g>
		<g>
			<path class="st2" d="M2091.1,1463.1h-10v12.9h-13.8v-12.9h-33v-9.5l28.9-38.8h14.9l-26.8,36.8h16.4v-11.5h13.4v11.5h10V1463.1z"
				/>
		</g>
	</g>
	<g>
		<g>
			<ellipse transform="matrix(0.7071 -0.7071 0.7071 0.7071 -186.3338 1436.3829)" cx="1640.7" cy="943.1" rx="90.2" ry="90.2"/>
		</g>
	</g>
	<g>
		<g>
			<path class="st2" d="M1624.6,914.5v61.2h-14.2v-49.9h-12.2v-11.4H1624.6z"/>
		</g>
		<g>
			<path class="st2" d="M1675.4,942.7c4.1,3.4,6.2,8.1,6.2,13.8c0,3.7-0.9,7.1-2.8,10.2c-1.9,3.1-4.7,5.5-8.5,7.4
				c-3.8,1.8-8.5,2.8-14.1,2.8c-4.3,0-8.6-0.6-12.7-1.7c-4.2-1.1-7.7-2.8-10.6-4.9l5.6-10.9c2.3,1.8,5,3.1,8.1,4.1
				c3,1,6.2,1.4,9.4,1.4c3.6,0,6.4-0.7,8.4-2.1c2-1.4,3.1-3.4,3.1-5.9c0-2.6-1.1-4.6-3.2-6c-2.1-1.3-5.8-2-11.1-2h-15.7l3.1-34.5
				h37.4v11.4h-25.5l-1,11.6h5C1664.9,937.5,1671.2,939.2,1675.4,942.7z"/>
		</g>
	</g>
	<g>
		<g>
			<circle cx="1776.6" cy="1445.4" r="90.2"/>
		</g>
	</g>
	<g>
		<g>
			<path class="st2" d="M1758.6,1416.8v61.2h-14.2v-49.9h-12.2v-11.4H1758.6z"/>
		</g>
		<g>
			<path class="st2" d="M1809.4,1441.9c3.2,1.6,5.7,3.8,7.6,6.7c1.9,2.9,2.8,6.2,2.8,10c0,4.1-1,7.7-3.1,10.8
				c-2,3.1-4.8,5.5-8.4,7.1c-3.5,1.7-7.5,2.5-11.8,2.5c-8.6,0-15.3-2.6-20.1-7.9c-4.8-5.3-7.3-12.8-7.3-22.5
				c0-6.9,1.3-12.9,3.9-17.8c2.6-5,6.3-8.7,11-11.3c4.7-2.6,10.1-3.8,16.3-3.8c3.3,0,6.4,0.4,9.4,1.1c3,0.7,5.6,1.8,7.7,3.1
				l-5.3,10.4c-3-2-6.9-3.1-11.5-3.1c-5.2,0-9.3,1.5-12.3,4.5c-3,3-4.7,7.4-4.9,13.2c3.6-3.6,8.7-5.4,15.1-5.4
				C1802.7,1439.6,1806.2,1440.4,1809.4,1441.9z M1803.3,1466c1.9-1.6,2.8-3.9,2.8-6.7s-1-5-2.8-6.7c-1.9-1.7-4.4-2.5-7.6-2.5
				c-3.1,0-5.6,0.9-7.6,2.6c-2,1.7-3,3.9-3,6.6c0,2.7,1,4.9,2.9,6.6c1.9,1.7,4.5,2.5,7.9,2.5
				C1798.9,1468.5,1801.4,1467.6,1803.3,1466z"/>
		</g>
	</g>
	<g>
		<g>
			<ellipse transform="matrix(0.7071 -0.7071 0.7071 0.7071 278.5922 2769.0835)" cx="3481.9" cy="1048.3" rx="90.2" ry="90.2"/>
		</g>
	</g>
	<g>
		<g>
			<path class="st2" d="M3505.3,1054.6c1.6,2.5,2.4,5.3,2.4,8.5c0,3.8-1.1,7.1-3.2,9.9c-2.2,2.8-5.2,5-9.1,6.6
				c-3.9,1.5-8.4,2.3-13.6,2.3c-5.1,0-9.6-0.8-13.5-2.3c-3.9-1.5-6.9-3.7-9-6.6c-2.1-2.8-3.2-6.1-3.2-9.9c0-3.2,0.8-6,2.4-8.5
				c1.6-2.4,3.9-4.4,6.9-5.9c-2.3-1.4-4-3.2-5.2-5.3c-1.2-2.1-1.8-4.6-1.8-7.3c0-3.6,1-6.6,3-9.3c2-2.6,4.7-4.7,8.3-6.1
				c3.6-1.4,7.6-2.1,12.2-2.1c4.7,0,8.8,0.7,12.4,2.1c3.6,1.4,6.4,3.5,8.4,6.1c2,2.6,3,5.7,3,9.3c0,2.7-0.6,5.2-1.8,7.3
				c-1.2,2.1-3,3.9-5.3,5.3C3501.4,1050.2,3503.7,1052.2,3505.3,1054.6z M3490.2,1069.1c2.1-1.6,3.1-3.7,3.1-6.4
				c0-2.7-1-4.8-3.1-6.4s-4.9-2.4-8.4-2.4c-3.5,0-6.3,0.8-8.3,2.4c-2,1.6-3.1,3.7-3.1,6.4c0,2.7,1,4.9,3.1,6.5
				c2,1.6,4.8,2.4,8.3,2.4C3485.3,1071.5,3488.2,1070.7,3490.2,1069.1z M3474.9,1031c-1.7,1.4-2.6,3.3-2.6,5.6
				c0,2.3,0.8,4.2,2.5,5.5c1.7,1.3,4,2,6.9,2c2.9,0,5.2-0.7,7-2c1.8-1.3,2.6-3.2,2.6-5.5c0-2.4-0.9-4.3-2.6-5.6
				c-1.7-1.4-4.1-2.1-7-2.1C3478.9,1029,3476.6,1029.7,3474.9,1031z"/>
		</g>
	</g>
	<g>
		<g>
			<circle cx="1927.2" cy="1747" r="90.2"/>
		</g>
	</g>
	<g>
		<g>
			<path class="st2" d="M1909.2,1718.3v61.2H1895v-49.9h-12.2v-11.4H1909.2z"/>
		</g>
		<g>
			<g>
				<path class="st2" d="M1970.5,1719.2v9.2l-22.7,52.1h-15.4l22-49.7H1934v10h-12.6v-21.5H1970.5z"/>
			</g>
		</g>
	</g>
	<g>
		<g>
			<circle cx="1200.7" cy="1106.2" r="90.2"/>
		</g>
	</g>
	<g>
		<g>
			<path class="st2" d="M1182.7,1077.6v61.2h-14.2V1089h-12.2v-11.4H1182.7z"/>
		</g>
		<g>
			<g>
				<path class="st2" d="M1236.9,1084.2c4.8,5.2,7.3,12.7,7.3,22.5c0,6.9-1.3,12.9-3.9,17.8c-2.6,5-6.2,8.7-11,11.3
					c-4.7,2.6-10.2,3.9-16.4,3.9c-3.3,0-6.4-0.4-9.4-1.1c-3-0.7-5.5-1.8-7.6-3.1l5.2-10.4c3,2,6.8,3.1,11.5,3.1
					c5.2,0,9.3-1.5,12.3-4.6c3-3.1,4.7-7.5,4.9-13.3c-3.7,3.7-8.8,5.5-15.2,5.5c-3.9,0-7.5-0.8-10.7-2.4c-3.2-1.6-5.7-3.8-7.6-6.7
					c-1.9-2.9-2.8-6.2-2.8-10c0-4.1,1-7.7,3.1-10.8c2-3.1,4.8-5.5,8.4-7.1c3.5-1.7,7.4-2.5,11.8-2.5
					C1225.3,1076.4,1232,1079,1236.9,1084.2z M1225.4,1102.6c2-1.7,2.9-3.9,2.9-6.6s-1-4.9-2.8-6.6c-1.9-1.7-4.5-2.5-7.8-2.5
					c-3,0-5.5,0.8-7.4,2.5c-1.9,1.6-2.8,3.8-2.8,6.6c0,2.8,0.9,5,2.8,6.7c1.9,1.7,4.4,2.5,7.6,2.5
					C1220.9,1105.2,1223.4,1104.4,1225.4,1102.6z"/>
			</g>
		</g>
	</g>
	<g>
		<g>
			<circle cx="1558.1" cy="1846.9" r="90.2"/>
		</g>
	</g>
	<g>
		<g>
			<path class="st2" d="M1540.2,1818.2v61.2H1526v-49.9h-12.2v-11.4H1540.2z"/>
		</g>
		<g>
			<g>
				<path class="st2" d="M1599.7,1853.2c1.6,2.5,2.4,5.3,2.4,8.5c0,3.8-1.1,7.1-3.2,9.9c-2.2,2.8-5.2,5-9.1,6.6
					c-3.9,1.5-8.4,2.3-13.6,2.3c-5.1,0-9.6-0.8-13.5-2.3c-3.9-1.5-6.9-3.7-9-6.6c-2.1-2.8-3.2-6.1-3.2-9.9c0-3.2,0.8-6,2.4-8.5
					c1.6-2.4,3.9-4.4,6.9-5.9c-2.3-1.4-4-3.2-5.2-5.3c-1.2-2.1-1.8-4.6-1.8-7.3c0-3.6,1-6.6,3-9.3c2-2.6,4.7-4.7,8.3-6.1
					c3.6-1.4,7.6-2.1,12.2-2.1c4.7,0,8.8,0.7,12.4,2.1c3.6,1.4,6.4,3.5,8.4,6.1c2,2.6,3,5.7,3,9.3c0,2.7-0.6,5.2-1.8,7.3
					c-1.2,2.1-3,3.9-5.3,5.3C1595.8,1848.8,1598.1,1850.8,1599.7,1853.2z M1584.6,1867.7c2.1-1.6,3.1-3.7,3.1-6.4
					c0-2.7-1-4.8-3.1-6.4s-4.9-2.4-8.4-2.4c-3.5,0-6.3,0.8-8.3,2.4c-2,1.6-3.1,3.7-3.1,6.4c0,2.7,1,4.9,3.1,6.5
					c2,1.6,4.8,2.4,8.3,2.4C1579.7,1870.1,1582.6,1869.3,1584.6,1867.7z M1569.3,1829.7c-1.7,1.4-2.6,3.3-2.6,5.6
					c0,2.3,0.8,4.2,2.5,5.5c1.7,1.3,4,2,6.9,2c2.9,0,5.2-0.7,7-2c1.8-1.3,2.6-3.2,2.6-5.5c0-2.4-0.9-4.3-2.6-5.6
					c-1.7-1.4-4.1-2.1-7-2.1C1573.3,1827.6,1571,1828.3,1569.3,1829.7z"/>
			</g>
		</g>
	</g>
	<g>
		<g>
			<circle cx="409.6" cy="1389.7" r="90.2"/>
		</g>
	</g>
	<g>
		<g>
			<path class="st2" d="M423.8,1417.6c-4-2.5-7.1-6.1-9.3-10.9c-2.2-4.8-3.4-10.4-3.4-17s1.1-12.3,3.4-17c2.2-4.8,5.4-8.4,9.3-10.9
				c4-2.5,8.5-3.8,13.6-3.8c5.1,0,9.6,1.3,13.6,3.8c4,2.5,7.1,6.1,9.3,10.9c2.2,4.8,3.4,10.4,3.4,17s-1.1,12.3-3.4,17
				c-2.2,4.8-5.4,8.4-9.3,10.9c-4,2.5-8.5,3.8-13.6,3.8C432.3,1421.4,427.8,1420.1,423.8,1417.6z M446.2,1404.6
				c2.1-3.2,3.2-8.2,3.2-14.9c0-6.7-1.1-11.7-3.2-14.9c-2.1-3.2-5.1-4.8-8.8-4.8c-3.7,0-6.6,1.6-8.7,4.8c-2.1,3.2-3.2,8.2-3.2,14.9
				c0,6.7,1.1,11.7,3.2,14.9c2.1,3.2,5,4.8,8.7,4.8C441.1,1409.4,444.1,1407.8,446.2,1404.6z"/>
		</g>
		<g>
			<g>
				<path class="st2" d="M404.7,1409v11.6h-46.3v-9.2l23.6-22.3c2.5-2.4,4.2-4.4,5.1-6.2c0.9-1.7,1.3-3.4,1.3-5.1
					c0-2.4-0.8-4.3-2.5-5.6c-1.7-1.3-4.1-2-7.3-2c-2.7,0-5.1,0.5-7.3,1.5c-2.2,1-4,2.6-5.4,4.6l-10.3-6.6c2.4-3.6,5.7-6.3,9.9-8.4
					c4.2-2,9-3,14.4-3c4.5,0,8.5,0.7,11.9,2.2c3.4,1.5,6.1,3.6,8,6.3c1.9,2.7,2.8,5.9,2.8,9.6c0,3.3-0.7,6.4-2.1,9.4
					c-1.4,2.9-4.1,6.2-8.1,10l-14.1,13.3H404.7z"/>
			</g>
		</g>
	</g>
	<g>
		<g>
			<g>
				<path class="st6" d="M4522.8,2711.4H3995c-34.9,0-63.3-28.4-63.3-63.3V2080c0-11.5,3.1-22.8,9.1-32.7l197-326.7
					c11.4-18.9,32.1-30.6,54.2-30.6h330.9c34.9,0,63.3,28.4,63.3,63.3v894.9C4586.1,2683,4557.7,2711.4,4522.8,2711.4
					 M4522.8,2724.4c42.1,0,76.3-34.1,76.3-76.3v-894.9c0-42.1-34.1-76.3-76.3-76.3H4192c-26.7,0-51.5,14-65.3,36.9l-197,326.7
					c-7.2,11.9-11,25.5-11,39.4v568.1c0,42.1,34.1,76.3,76.3,76.3H4522.8L4522.8,2724.4z"/>
			</g>
		</g>
		<g>
			<g>
				<path d="M4119.4,2277v21.2h-17.6v111.8h-22.1v-111.8h-17.6V2277H4119.4z"/>
			</g>
			<g>
				<path d="M4131.4,2277h52.1v21.2h-30v34.7h25.8v21.3h-25.8v34.7h30v21.2h-52.1V2277z"/>
			</g>
			<g>
				<path d="M4213.8,2277l11,38.1l10.9-38.1h22.3l-22.1,66.5l22.1,66.5h-22.3l-10.9-42.2l-11,42.2h-22.3l22.1-66.5l-22.1-66.5
					H4213.8z"/>
			</g>
			<g>
				<path d="M4325.2,2362.2l6.3,47.7h-22.3l-3.7-27.6h-16.3l-3.7,27.6h-22.3l6.3-47.5l13.5-85.5h28.7L4325.2,2362.2z M4302.7,2361
					l-5.3-40.3l-5.3,40.3H4302.7z"/>
			</g>
			<g>
				<path d="M4341.5,2303.6c0-19.1,9.5-28.7,28.6-28.7c19.1,0,28.7,9.6,28.7,28.7v18.9h-22.1v-18.9c0-5-2.2-7.5-6.5-7.5h-0.1
					c-4.3,0-6.4,2.5-6.4,7.5v11.8c0,5.4,5.7,12.2,17,20.3c12.1,8.6,18.2,19,18.2,31.1v16.5c0,19.2-9.5,28.8-28.6,28.8
					c-19.1,0-28.7-9.6-28.7-28.8v-18.9h22.1v18.9c0,5,2.2,7.5,6.6,7.5c4.3,0,6.5-2.5,6.5-7.5v-14.9c0-5.9-5.7-12.9-17-21.1
					c-12.1-8.6-18.2-19.2-18.2-31.6V2303.6z"/>
			</g>
			<g>
				<path d="M4124.1,2584.3c0,19.1-9.6,28.7-28.7,28.8c-19.1,0-28.6-9.6-28.6-28.8V2478h22.1v106.3c0,5,2.2,7.5,6.5,7.5
					c4.4,0,6.6-2.5,6.6-7.5V2478h22.1V2584.3z"/>
			</g>
			<g>
				<path d="M4139.4,2504.6c0-19.1,9.5-28.7,28.6-28.7c19.1,0,28.7,9.6,28.7,28.7v18.9h-22.1v-18.9c0-5-2.2-7.5-6.5-7.5h-0.1
					c-4.3,0-6.4,2.5-6.4,7.5v11.8c0,5.4,5.7,12.2,17,20.3c12.1,8.6,18.2,19,18.2,31.1v16.5c0,19.2-9.5,28.8-28.6,28.8
					c-19.1,0-28.7-9.6-28.7-28.8v-18.9h22.1v18.9c0,5,2.2,7.5,6.6,7.5c4.3,0,6.5-2.5,6.5-7.5v-14.9c0-5.9-5.7-12.9-17-21.1
					c-12.1-8.6-18.2-19.2-18.2-31.6V2504.6z"/>
			</g>
			<g>
				<path d="M4268.6,2563.2l6.3,47.7h-22.3l-3.7-27.6h-16.3l-3.7,27.6h-22.3l6.3-47.5l13.5-85.5h28.7L4268.6,2563.2z M4246,2562
					l-5.3-40.3l-5.3,40.3H4246z"/>
			</g>
		</g>
		<g>
			<g>
				<g>
					<rect x="4062.1" y="2075.4" class="st6" width="247.3" height="130.2"/>
				</g>
			</g>
			<g>
				<g>
					<path d="M4062.1,2090.4h247.3 M4309.4,2110.4h-247.3 M4062.1,2130.5h247.3 M4309.4,2150.5h-247.3 M4062.1,2170.5h247.3
						 M4309.4,2190.6h-247.3"/>
				</g>
				<g>
					<path class="st2" d="M4309.4,2195.6h-247.3v-10h247.3V2195.6z M4309.4,2175.5h-247.3v-10h247.3V2175.5z M4309.4,2155.5h-247.3
						v-10h247.3V2155.5z M4309.4,2135.5h-247.3v-10h247.3V2135.5z M4309.4,2115.5h-247.3v-10h247.3V2115.5z M4309.4,2095.4h-247.3
						v-10h247.3V2095.4z"/>
				</g>
			</g>
			<g>
				<rect x="4062.1" y="2075.4" class="st7" width="98.9" height="70.1"/>
			</g>
			<g>
				<g>
					<polygon class="st2" points="4070.4,2078.4 4069.5,2081.2 4066.5,2081.2 4068.9,2082.9 4068,2085.7 4070.4,2083.9 
						4072.7,2085.7 4071.8,2082.9 4074.2,2081.2 4071.3,2081.2 					"/>
				</g>
				<g>
					<polygon class="st2" points="4070.4,2092.4 4069.5,2095.2 4066.5,2095.2 4068.9,2096.9 4068,2099.7 4070.4,2098 4072.7,2099.7 
						4071.8,2096.9 4074.2,2095.2 4071.3,2095.2 					"/>
				</g>
				<g>
					<polygon class="st2" points="4070.4,2106.4 4069.5,2109.2 4066.5,2109.2 4068.9,2110.9 4068,2113.7 4070.4,2112 4072.7,2113.7 
						4071.8,2110.9 4074.2,2109.2 4071.3,2109.2 					"/>
				</g>
				<g>
					<polygon class="st2" points="4070.4,2120.5 4069.5,2123.2 4066.5,2123.2 4068.9,2124.9 4068,2127.7 4070.4,2126 4072.7,2127.7 
						4071.8,2124.9 4074.2,2123.2 4071.3,2123.2 					"/>
				</g>
				<g>
					<polygon class="st2" points="4071.3,2137.2 4070.4,2134.5 4069.5,2137.2 4066.5,2137.2 4068.9,2139 4068,2141.7 4070.4,2140 
						4072.7,2141.7 4071.8,2139 4074.2,2137.2 					"/>
				</g>
				<g>
					<polygon class="st2" points="4078.6,2085.4 4077.7,2088.2 4074.8,2088.2 4077.1,2089.9 4076.2,2092.7 4078.6,2090.9 
						4081,2092.7 4080.1,2089.9 4082.4,2088.2 4079.5,2088.2 					"/>
				</g>
				<g>
					<polygon class="st2" points="4078.6,2099.4 4077.7,2102.2 4074.8,2102.2 4077.1,2103.9 4076.2,2106.7 4078.6,2105 4081,2106.7 
						4080.1,2103.9 4082.4,2102.2 4079.5,2102.2 					"/>
				</g>
				<g>
					<polygon class="st2" points="4078.6,2113.5 4077.7,2116.2 4074.8,2116.2 4077.1,2117.9 4076.2,2120.7 4078.6,2119 4081,2120.7 
						4080.1,2117.9 4082.4,2116.2 4079.5,2116.2 					"/>
				</g>
				<g>
					<polygon class="st2" points="4079.5,2130.2 4078.6,2127.5 4077.7,2130.2 4074.8,2130.2 4077.1,2132 4076.2,2134.7 4078.6,2133 
						4081,2134.7 4080.1,2132 4082.4,2130.2 					"/>
				</g>
				<g>
					<polygon class="st2" points="4086.8,2078.4 4085.9,2081.2 4083,2081.2 4085.4,2082.9 4084.5,2085.7 4086.8,2083.9 
						4089.2,2085.7 4088.3,2082.9 4090.7,2081.2 4087.7,2081.2 					"/>
				</g>
				<g>
					<polygon class="st2" points="4086.8,2092.4 4085.9,2095.2 4083,2095.2 4085.4,2096.9 4084.5,2099.7 4086.8,2098 4089.2,2099.7 
						4088.3,2096.9 4090.7,2095.2 4087.7,2095.2 					"/>
				</g>
				<g>
					<polygon class="st2" points="4086.8,2106.4 4085.9,2109.2 4083,2109.2 4085.4,2110.9 4084.5,2113.7 4086.8,2112 4089.2,2113.7 
						4088.3,2110.9 4090.7,2109.2 4087.7,2109.2 					"/>
				</g>
				<g>
					<polygon class="st2" points="4086.8,2120.5 4085.9,2123.2 4083,2123.2 4085.4,2124.9 4084.5,2127.7 4086.8,2126 4089.2,2127.7 
						4088.3,2124.9 4090.7,2123.2 4087.7,2123.2 					"/>
				</g>
				<g>
					<polygon class="st2" points="4087.7,2137.2 4086.8,2134.5 4085.9,2137.2 4083,2137.2 4085.4,2139 4084.5,2141.7 4086.8,2140 
						4089.2,2141.7 4088.3,2139 4090.7,2137.2 					"/>
				</g>
				<g>
					<polygon class="st2" points="4095.1,2085.4 4094.2,2088.2 4091.3,2088.2 4093.6,2089.9 4092.7,2092.7 4095.1,2090.9 
						4097.4,2092.7 4096.5,2089.9 4098.9,2088.2 4096,2088.2 					"/>
				</g>
				<g>
					<polygon class="st2" points="4095.1,2099.4 4094.2,2102.2 4091.3,2102.2 4093.6,2103.9 4092.7,2106.7 4095.1,2105 
						4097.4,2106.7 4096.5,2103.9 4098.9,2102.2 4096,2102.2 					"/>
				</g>
				<g>
					<polygon class="st2" points="4095.1,2113.5 4094.2,2116.2 4091.3,2116.2 4093.6,2117.9 4092.7,2120.7 4095.1,2119 
						4097.4,2120.7 4096.5,2117.9 4098.9,2116.2 4096,2116.2 					"/>
				</g>
				<g>
					<polygon class="st2" points="4096,2130.2 4095.1,2127.5 4094.2,2130.2 4091.3,2130.2 4093.6,2132 4092.7,2134.7 4095.1,2133 
						4097.4,2134.7 4096.5,2132 4098.9,2130.2 					"/>
				</g>
				<g>
					<polygon class="st2" points="4103.3,2078.4 4102.4,2081.2 4099.5,2081.2 4101.9,2082.9 4101,2085.7 4103.3,2083.9 
						4105.7,2085.7 4104.8,2082.9 4107.1,2081.2 4104.2,2081.2 					"/>
				</g>
				<g>
					<polygon class="st2" points="4103.3,2092.4 4102.4,2095.2 4099.5,2095.2 4101.9,2096.9 4101,2099.7 4103.3,2098 4105.7,2099.7 
						4104.8,2096.9 4107.1,2095.2 4104.2,2095.2 					"/>
				</g>
				<g>
					<polygon class="st2" points="4103.3,2106.4 4102.4,2109.2 4099.5,2109.2 4101.9,2110.9 4101,2113.7 4103.3,2112 4105.7,2113.7 
						4104.8,2110.9 4107.1,2109.2 4104.2,2109.2 					"/>
				</g>
				<g>
					<polygon class="st2" points="4103.3,2120.5 4102.4,2123.2 4099.5,2123.2 4101.9,2124.9 4101,2127.7 4103.3,2126 4105.7,2127.7 
						4104.8,2124.9 4107.1,2123.2 4104.2,2123.2 					"/>
				</g>
				<g>
					<polygon class="st2" points="4104.2,2137.2 4103.3,2134.5 4102.4,2137.2 4099.5,2137.2 4101.9,2139 4101,2141.7 4103.3,2140 
						4105.7,2141.7 4104.8,2139 4107.1,2137.2 					"/>
				</g>
				<g>
					<polygon class="st2" points="4111.6,2085.4 4110.7,2088.2 4107.8,2088.2 4110.1,2089.9 4109.2,2092.7 4111.6,2090.9 
						4113.9,2092.7 4113,2089.9 4115.4,2088.2 4112.5,2088.2 					"/>
				</g>
				<g>
					<polygon class="st2" points="4111.6,2099.4 4110.7,2102.2 4107.8,2102.2 4110.1,2103.9 4109.2,2106.7 4111.6,2105 
						4113.9,2106.7 4113,2103.9 4115.4,2102.2 4112.5,2102.2 					"/>
				</g>
				<g>
					<polygon class="st2" points="4111.6,2113.5 4110.7,2116.2 4107.8,2116.2 4110.1,2117.9 4109.2,2120.7 4111.6,2119 
						4113.9,2120.7 4113,2117.9 4115.4,2116.2 4112.5,2116.2 					"/>
				</g>
				<g>
					<polygon class="st2" points="4112.5,2130.2 4111.6,2127.5 4110.7,2130.2 4107.8,2130.2 4110.1,2132 4109.2,2134.7 4111.6,2133 
						4113.9,2134.7 4113,2132 4115.4,2130.2 					"/>
				</g>
				<g>
					<polygon class="st2" points="4119.8,2078.4 4118.9,2081.2 4116,2081.2 4118.4,2082.9 4117.5,2085.7 4119.8,2083.9 
						4122.2,2085.7 4121.3,2082.9 4123.6,2081.2 4120.7,2081.2 					"/>
				</g>
				<g>
					<polygon class="st2" points="4119.8,2092.4 4118.9,2095.2 4116,2095.2 4118.4,2096.9 4117.5,2099.7 4119.8,2098 4122.2,2099.7 
						4121.3,2096.9 4123.6,2095.2 4120.7,2095.2 					"/>
				</g>
				<g>
					<polygon class="st2" points="4119.8,2106.4 4118.9,2109.2 4116,2109.2 4118.4,2110.9 4117.5,2113.7 4119.8,2112 4122.2,2113.7 
						4121.3,2110.9 4123.6,2109.2 4120.7,2109.2 					"/>
				</g>
				<g>
					<polygon class="st2" points="4119.8,2120.5 4118.9,2123.2 4116,2123.2 4118.4,2124.9 4117.5,2127.7 4119.8,2126 4122.2,2127.7 
						4121.3,2124.9 4123.6,2123.2 4120.7,2123.2 					"/>
				</g>
				<g>
					<polygon class="st2" points="4120.7,2137.2 4119.8,2134.5 4118.9,2137.2 4116,2137.2 4118.4,2139 4117.5,2141.7 4119.8,2140 
						4122.2,2141.7 4121.3,2139 4123.6,2137.2 					"/>
				</g>
				<g>
					<polygon class="st2" points="4128.1,2085.4 4127.2,2088.2 4124.3,2088.2 4126.6,2089.9 4125.7,2092.7 4128.1,2090.9 
						4130.4,2092.7 4129.5,2089.9 4131.9,2088.2 4129,2088.2 					"/>
				</g>
				<g>
					<polygon class="st2" points="4128.1,2099.4 4127.2,2102.2 4124.3,2102.2 4126.6,2103.9 4125.7,2106.7 4128.1,2105 
						4130.4,2106.7 4129.5,2103.9 4131.9,2102.2 4129,2102.2 					"/>
				</g>
				<g>
					<polygon class="st2" points="4128.1,2113.5 4127.2,2116.2 4124.3,2116.2 4126.6,2117.9 4125.7,2120.7 4128.1,2119 
						4130.4,2120.7 4129.5,2117.9 4131.9,2116.2 4129,2116.2 					"/>
				</g>
				<g>
					<polygon class="st2" points="4129,2130.2 4128.1,2127.5 4127.2,2130.2 4124.3,2130.2 4126.6,2132 4125.7,2134.7 4128.1,2133 
						4130.4,2134.7 4129.5,2132 4131.9,2130.2 					"/>
				</g>
				<g>
					<polygon class="st2" points="4136.3,2078.4 4135.4,2081.2 4132.5,2081.2 4134.9,2082.9 4134,2085.7 4136.3,2083.9 
						4138.7,2085.7 4137.8,2082.9 4140.1,2081.2 4137.2,2081.2 					"/>
				</g>
				<g>
					<polygon class="st2" points="4136.3,2092.4 4135.4,2095.2 4132.5,2095.2 4134.9,2096.9 4134,2099.7 4136.3,2098 4138.7,2099.7 
						4137.8,2096.9 4140.1,2095.2 4137.2,2095.2 					"/>
				</g>
				<g>
					<polygon class="st2" points="4136.3,2106.4 4135.4,2109.2 4132.5,2109.2 4134.9,2110.9 4134,2113.7 4136.3,2112 4138.7,2113.7 
						4137.8,2110.9 4140.1,2109.2 4137.2,2109.2 					"/>
				</g>
				<g>
					<polygon class="st2" points="4136.3,2120.5 4135.4,2123.2 4132.5,2123.2 4134.9,2124.9 4134,2127.7 4136.3,2126 4138.7,2127.7 
						4137.8,2124.9 4140.1,2123.2 4137.2,2123.2 					"/>
				</g>
				<g>
					<polygon class="st2" points="4137.2,2137.2 4136.3,2134.5 4135.4,2137.2 4132.5,2137.2 4134.9,2139 4134,2141.7 4136.3,2140 
						4138.7,2141.7 4137.8,2139 4140.1,2137.2 					"/>
				</g>
				<g>
					<polygon class="st2" points="4144.6,2085.4 4143.7,2088.2 4140.7,2088.2 4143.1,2089.9 4142.2,2092.7 4144.6,2090.9 
						4146.9,2092.7 4146,2089.9 4148.4,2088.2 4145.5,2088.2 					"/>
				</g>
				<g>
					<polygon class="st2" points="4144.6,2099.4 4143.7,2102.2 4140.7,2102.2 4143.1,2103.9 4142.2,2106.7 4144.6,2105 
						4146.9,2106.7 4146,2103.9 4148.4,2102.2 4145.5,2102.2 					"/>
				</g>
				<g>
					<polygon class="st2" points="4144.6,2113.5 4143.7,2116.2 4140.7,2116.2 4143.1,2117.9 4142.2,2120.7 4144.6,2119 
						4146.9,2120.7 4146,2117.9 4148.4,2116.2 4145.5,2116.2 					"/>
				</g>
				<g>
					<polygon class="st2" points="4145.5,2130.2 4144.6,2127.5 4143.7,2130.2 4140.7,2130.2 4143.1,2132 4142.2,2134.7 4144.6,2133 
						4146.9,2134.7 4146,2132 4148.4,2130.2 					"/>
				</g>
				<g>
					<polygon class="st2" points="4151.3,2082.9 4150.4,2085.7 4152.8,2083.9 4155.2,2085.7 4154.3,2082.9 4156.6,2081.2 
						4153.7,2081.2 4152.8,2078.4 4151.9,2081.2 4149,2081.2 					"/>
				</g>
				<g>
					<polygon class="st2" points="4152.8,2092.4 4151.9,2095.2 4149,2095.2 4151.3,2096.9 4150.4,2099.7 4152.8,2098 4155.2,2099.7 
						4154.3,2096.9 4156.6,2095.2 4153.7,2095.2 					"/>
				</g>
				<g>
					<polygon class="st2" points="4152.8,2106.4 4151.9,2109.2 4149,2109.2 4151.3,2110.9 4150.4,2113.7 4152.8,2112 4155.2,2113.7 
						4154.3,2110.9 4156.6,2109.2 4153.7,2109.2 					"/>
				</g>
				<g>
					<polygon class="st2" points="4152.8,2120.5 4151.9,2123.2 4149,2123.2 4151.3,2124.9 4150.4,2127.7 4152.8,2126 4155.2,2127.7 
						4154.3,2124.9 4156.6,2123.2 4153.7,2123.2 					"/>
				</g>
				<g>
					<polygon class="st2" points="4153.7,2137.2 4152.8,2134.5 4151.9,2137.2 4149,2137.2 4151.3,2139 4150.4,2141.7 4152.8,2140 
						4155.2,2141.7 4154.3,2139 4156.6,2137.2 					"/>
				</g>
			</g>
		</g>
	</g>
</g>
</svg>
