<?xml version="1.0" encoding="utf-8"?>
<!-- Generator: Adobe Illustrator 27.7.0, SVG Export Plug-In . SVG Version: 6.00 Build 0)  -->
<svg version="1.1" id="ëÎÓÈ_1" xmlns="http://www.w3.org/2000/svg" xmlns:xlink="http://www.w3.org/1999/xlink" x="0px" y="0px"
	 viewBox="0 0 5000 3000" style="enable-background:new 0 0 5000 3000;" xml:space="preserve">
<style type="text/css">
	.st0{fill:#B7B7B7;}
	.st1{fill:#E5E5E5;}
	.st2{fill:#0D1101;}
	.st3{fill:#FFFFFF;}
	.st4{fill:#FFE600;}
	.st5{fill:#0067E2;}
	.st6{fill:#FF5043;}
	.st7{fill:#009246;}
	.st8{fill:#CE2B37;}
</style>
<g>
	<path class="st0" d="M4597.4,2212.9c0-1.1-0.1-2.2-0.1-3.3c0.4-7.2,0.4-14.5,0.1-21.7c-2.7-70.4-21.1-123-56.2-160.6
		c-38.3-41.1-93.1-61.9-167.6-63.6c-565.3-17.5-1057.5-29.7-1596-39.5c-19.2-0.4-79.6-5.1-96-9.9c-4.2-2.2-13.7-12.3-20-19.1
		c-11.2-11.9-25.1-26.8-43.2-38.9c-41.8-28.2-91.7-42.9-140.3-41.6c-19.5,0.5-38.9,4.7-57.8,8.6c-13.1,2.8-36.6,7.8-47,7
		c-112.6-102.4-231-217.7-345.5-329.2c-27.2-26.4-55.2-53.8-82.5-80.3c-39.9-38.7-78.1-74.8-115.1-109.7
		c-100.7-95.1-187.7-177.2-271.3-276.1c-76.2-90.2-186.9-258.7-275.9-394.1c-45.8-69.7-85.4-130-110.8-164.9
		c-6.6-9-20.5-26.4-39.9-41.1c-34.3-26-65.2-28.2-85-25.5c-106.7,14.7-201.7,31.3-302.2,48.9c-43.2,7.5-87.8,15.3-133.2,22.9
		c-41.6,7-80.7,28.7-110,61.1c-28.1,31.1-46,70.7-50.5,111.6c-1.5,13.7-1.8,27.4-1.2,41c-0.4,8.4-0.4,16.7,0,25
		c-0.4,8.4-0.4,16.7,0,25c-0.4,8.4-0.4,16.7,0,25c-0.4,8.4-0.4,16.7,0,25c-4.2,92.3,40.5,182,76.8,254.9
		c7.1,14.2,13.8,27.7,19.8,40.4c46.4,98.6,82.7,187.5,110.9,271.8c8.8,26.3,25.6,47.3,48.5,60.6c13.5,7.9,26.5,11.7,37.2,14.2
		c6.5,57.6,22.2,161.2,36.2,253.2c6.7,44.4,13.1,86.2,17.1,114.4c31.1,219.1,64.3,372.7,101.5,469.5
		c35.9,93.4,93.5,177.9,166.7,244.4c75.9,69,167.1,117.3,263.9,139.6c85,19.6,171.9,20,256,20.4c19,0.1,36.9,0.2,54.9,0.5
		c3.7,0.1,7.3,0.1,10.9,0.1c111.6,0,211.4-28.6,310.3-63.8c1,2.4,2.1,4.8,3.3,7.3c8.9,17.8,23,32.2,40.6,41.5
		c15.4,8.2,33.3,12.4,53.3,12.6c72.7,0.8,146.7,1.7,218.3,2.6c286.7,3.5,583.2,7.2,876.6,5.8c87-0.4,178,1.1,266,2.6
		c80.5,1.4,162.1,2.7,243.6,2.7c120.6,0,240.9-3,356.6-13.5c14.2-1.3,28.8-2.5,42.9-3.7c84.5-7.1,172-14.4,258.3-41.7
		c66.9-21.1,133.3-60.3,182.4-107.6c64.7-62.4,97.4-135.4,94.5-211.1c0-1.1-0.1-2.2-0.1-3.3c0.4-7.2,0.4-14.5,0.1-21.7
		c0-1.1-0.1-2.2-0.1-3.3c0.4-7.2,0.4-14.5,0.1-21.7c0-1.1-0.1-2.2-0.1-3.3c0.4-7.2,0.4-14.5,0.1-21.7c0-1.1-0.1-2.2-0.1-3.3
		C4597.6,2227.4,4597.7,2220.2,4597.4,2212.9z M4405.7,2298.2c-33.5,32.3-81.1,60.3-127.3,74.9c-71.5,22.6-147.5,28.9-227.9,35.7
		c-14.3,1.2-29.2,2.4-43.8,3.8c-186.5,16.9-389.2,13.5-585.2,10.2c-79-1.3-160.4-2.7-239.7-2.7c-9.8,0-19.5,0-29.2,0.1
		c-292.2,1.3-588.1-2.3-874.2-5.8c-61.1-0.8-124-1.5-186.4-2.2c-0.2-2.1-0.5-4.3-0.9-6.5c-5.1-30.8-21.9-48.3-35-57.5
		c-11.3-7.9-30.4-17-57.3-15.2c-12.6,0.8-26.2,4-41.5,9.7c-101.3,37.7-201,71.4-306.7,71.4c-2.7,0-5.5,0-8.3-0.1
		c-18.8-0.3-38-0.4-56.6-0.5c-76.4-0.4-155.4-0.7-225.2-16.8c-73.5-16.9-143-53.8-201.2-106.7c-57.1-51.9-102.1-118-130.2-191.1
		c-32.9-85.6-64.4-233.2-93.5-438.9c-4.1-28.8-10.5-71-17.3-115.8c-13.9-91.4-31.2-205-36.5-256.5c-3.8-37.1-18.1-65.8-42.6-85.5
		c-19.1-15.3-39-20.8-53.5-24.2c-29.2-85.1-65.9-174.4-112-272.3c-6.7-14.2-13.7-28.3-21.2-43.3c-16.3-32.8-33.8-67.8-46.1-101.8
		c7.9-8.5,17.9-14.5,28.7-16.3c45.9-7.7,90.8-15.5,134.2-23.1c94.6-16.5,184.3-32.2,282.7-46.1c2.3,2.3,4.9,5.2,7.2,8.3
		c23.4,32.2,62.2,91.1,107,159.4c91,138.5,204.3,310.9,285.9,407.5c88.6,105,182.6,193.7,282.1,287.6
		c36.6,34.6,74.5,70.3,113.7,108.3c27.2,26.4,55.2,53.7,82.3,80.1c116.6,113.5,237.1,230.9,352.6,335.7
		c24.9,22.6,57.3,33.7,96.2,33.1c25.1-0.4,49.1-5.5,70.3-10c12.1-2.6,25.9-5.5,32.6-5.7c19.8-0.5,40.5,5.8,58.3,17.8
		c4.9,3.3,12.2,11,19.2,18.5c17.1,18.2,38.3,40.9,71.4,53.8c11.9,4.7,32.2,10.6,84.4,15.5c26.5,2.5,52.1,3.8,59.9,3.9
		c538,9.9,1029.7,22,1594.5,39.5c0.2,0,0.4,0,0.6,0c34.5,0.8,57.6,7.2,68.7,19.1c1.2,1.2,2.3,2.6,3.3,4.1
		C4432,2270.4,4418.3,2286.1,4405.7,2298.2z"/>
</g>
<g id="path3113_00000139283178991394630840000018446689348233248136_">
	<g>
		<path class="st1" d="M3662.7,2565.5c-81.5,0-163.1-1.4-243.6-2.7c-88-1.5-179-3-266-2.6l-0.3-70l0.3,70
			c-293.4,1.3-589.9-2.3-876.6-5.8c-71.5-0.9-145.5-1.8-218.3-2.6c-20-0.2-37.9-4.5-53.3-12.6c-17.6-9.4-31.7-23.7-40.6-41.5
			c-1.2-2.4-2.3-4.9-3.3-7.3c-98.8,35.2-198.6,63.8-310.3,63.8c-3.6,0-7.3,0-10.9-0.1c-18-0.3-35.9-0.4-54.9-0.5
			c-84.1-0.4-171-0.8-256-20.4c-96.8-22.3-188.1-70.6-263.9-139.6c-73.1-66.5-130.8-151-166.7-244.4
			c-37.2-96.8-70.4-250.3-101.5-469.5c-4-28.1-10.4-70-17.1-114.4c-14-92-29.7-195.6-36.2-253.2c-10.7-2.5-23.7-6.4-37.2-14.2
			c-22.9-13.3-39.7-34.3-48.5-60.6c-28.2-84.3-64.5-173.2-110.9-271.8c-6-12.7-12.7-26.2-19.8-40.4c-38.4-77.1-86.3-173.1-75.6-271
			c4.5-40.8,22.4-80.4,50.5-111.6c29.3-32.5,68.3-54.2,110-61.1c45.4-7.6,90-15.4,133.2-22.9c100.6-17.5,195.5-34.1,302.2-48.9
			c19.9-2.7,50.8-0.5,85,25.5c19.4,14.7,33.3,32.1,39.9,41.1c25.4,34.9,65,95.1,110.8,164.9c89,135.4,199.7,303.9,275.9,394.1
			c83.5,98.9,170.5,181,271.3,276.1c37,34.9,75.2,71,115.1,109.7c27.3,26.5,55.4,53.8,82.5,80.3
			c114.5,111.5,232.9,226.8,345.5,329.2c10.3,0.8,33.9-4.2,47-7c18.8-4,38.3-8.1,57.8-8.6c48.6-1.3,98.5,13.5,140.3,41.6
			c18.1,12.2,32,27,43.2,38.9c6.3,6.8,15.8,16.9,20,19.1c16.4,4.8,76.8,9.6,96,9.9c538.5,9.9,1030.7,22.1,1596,39.5
			c74.5,1.7,129.3,22.5,167.6,63.6c35.1,37.6,53.4,90.1,56.2,160.6c2.9,75.7-29.8,148.7-94.5,211.1c-49,47.3-115.5,86.5-182.4,107.6
			c-86.4,27.3-173.8,34.6-258.3,41.7c-14.1,1.2-28.7,2.4-42.9,3.7C3903.5,2562.5,3783.3,2565.5,3662.7,2565.5z M3181.7,2420.1
			c79.4,0,160.7,1.4,239.7,2.7c196,3.3,398.7,6.7,585.2-10.2c14.7-1.3,29.5-2.6,43.8-3.8c80.4-6.7,156.4-13.1,227.9-35.7
			c46.2-14.6,93.9-42.6,127.3-74.9c24.6-23.7,53.5-61.1,51.8-104.9c-1.3-34.9-7.6-58.6-18.6-70.5c-11.1-11.9-34.2-18.3-68.7-19.1
			c-0.2,0-0.4,0-0.6,0c-564.7-17.5-1056.5-29.6-1594.5-39.5c-7.8-0.1-33.4-1.4-59.9-3.9c-52.1-4.9-72.5-10.8-84.4-15.5
			c-33.1-13-54.3-35.6-71.4-53.8c-7-7.5-14.2-15.2-19.2-18.5c-17.9-12-38.6-18.4-58.3-17.8c-6.7,0.2-20.5,3.1-32.6,5.7
			c-21.2,4.5-45.2,9.6-70.3,10c-39,0.6-71.3-10.5-96.2-33.1c-115.5-104.8-236-222.2-352.6-335.7c-27.1-26.4-55.1-53.7-82.3-80.1
			c-39.2-38-77.1-73.8-113.7-108.3c-99.5-93.9-193.5-182.6-282.1-287.6c-81.6-96.7-194.9-269-285.9-407.5
			c-44.8-68.2-83.6-127.2-107-159.4c-2.3-3.1-4.9-6-7.2-8.3c-98.5,13.9-188.1,29.5-282.7,46.1c-43.4,7.6-88.3,15.4-134.2,23.1
			c-22.2,3.7-41.7,25.6-44.3,49.8c-6.2,57,29.9,129.4,61.7,193.3c7.5,15,14.5,29.1,21.2,43.3c46.1,97.9,82.8,187.2,112,272.3
			c14.5,3.3,34.5,8.8,53.5,24.2c24.4,19.6,38.8,48.4,42.6,85.5c5.3,51.5,22.6,165.2,36.5,256.5c6.8,44.7,13.2,86.9,17.3,115.8
			c29.2,205.7,60.6,353.3,93.5,438.9c28.1,73.1,73.1,139.2,130.2,191.1c58.1,52.9,127.7,89.8,201.2,106.7
			c69.8,16.1,148.8,16.5,225.2,16.8c18.6,0.1,37.8,0.2,56.6,0.5c2.8,0,5.5,0.1,8.3,0.1c105.7,0,205.4-33.8,306.7-71.4
			c15.3-5.7,28.9-8.9,41.5-9.7c26.9-1.8,46,7.2,57.3,15.2c13.1,9.2,29.9,26.7,35,57.5c0.4,2.2,0.7,4.4,0.9,6.5
			c62.4,0.7,125.3,1.5,186.4,2.2c286.1,3.5,582,7.2,874.2,5.8C3162.2,2420.1,3171.9,2420.1,3181.7,2420.1z M2059.6,2411.7
			C2059.6,2411.7,2059.6,2411.7,2059.6,2411.7C2059.6,2411.7,2059.6,2411.7,2059.6,2411.7z M741.9,1298.6"/>
	</g>
</g>
<g>
	<path class="st2" d="M4014.7,2506.2l-3.4-37.8c14.5-1.3,29.2-2.6,43.5-3.7c79.7-6.7,162.1-13.6,239-37.9
		c54.2-17.1,107.9-48.7,147.4-86.8c32.1-30.9,69.8-80.9,67.4-143.6c-1.9-48.9-12.1-81.7-32.3-103.3c-21.1-22.7-55.4-34.2-104.8-35.3
		c-0.1,0-0.1,0-0.2,0c-565-17.5-1056.9-29.7-1595.1-39.5c-0.9,0-95.2-3.6-126.6-15.9c-22.3-8.8-37.8-25.3-52.8-41.2
		c-9.4-10-18.2-19.4-27.9-26c-26.6-17.9-57.9-27.3-88.2-26.5c-11.4,0.3-26.1,3.4-41.8,6.7c-39.6,8.4-88.9,18.8-121.7-11
		c-38-34.5-78.3-72-123.3-114.5l26.1-27.6c44.8,42.4,84.9,79.7,122.7,114c18.4,16.7,55.5,8.9,88.3,1.9c17.4-3.7,33.8-7.2,48.6-7.6
		c38.1-1,77.3,10.7,110.4,33c13.3,8.9,24,20.4,34.4,31.5c12.6,13.5,24.6,26.2,38.9,31.8c20.7,8.1,96.3,13,113.4,13.3
		c538.3,9.9,1030.4,22.1,1595.5,39.5c60.1,1.4,103.2,16.9,131.6,47.4c26.7,28.7,40.2,69.3,42.5,127.7c2.3,60.7-25,120.4-79,172.4
		c-43.6,42-102.7,76.9-162.3,95.7c-80.9,25.5-165.5,32.6-247.2,39.5C4043.7,2503.7,4029.1,2504.9,4014.7,2506.2z"/>
</g>
<g>
	<path class="st2" d="M2193.8,1789.9c-75.8-71.8-153.2-147.1-228-220c-27.1-26.4-55.1-53.7-82.4-80.1
		c-39.4-38.3-77.4-74.1-114.2-108.8c-98.4-92.9-191.4-180.7-278.2-283.4c-79.7-94.3-192-265.3-282.3-402.6
		c-45.2-68.8-84.2-128.2-108.4-161.4c-13.3-18.3-31.6-32.1-40.8-30.8c-105.1,14.5-199.3,31-299.1,48.4c-43.3,7.6-88.2,15.4-133.9,23
		c-21.9,3.7-42.7,15.4-58.6,33c-15.7,17.4-25.6,39.2-28.1,61.6c-7.9,71.9,31.8,151.4,66.8,221.6c7.3,14.7,14.3,28.6,20.7,42.2
		c47.9,101.8,85.4,193.9,114.7,281.5c3.9,11.6,10,13.9,27.7,17.8c22.1,4.9,55.5,12.2,61,66.1c4.6,44.6,17.4,131.4,30.6,218.6
		l-37.6,5.7c-13.3-87.6-26.2-175-30.9-220.4c-2.7-26.5-11.7-28.5-31.4-32.9c-17.7-3.9-44.5-9.8-55.6-42.9
		c-28.8-86.2-65.8-177-113.1-277.4c-6.2-13.3-13.1-27-20.3-41.5c-37.3-74.9-79.6-159.7-70.5-242.7c7-63.9,56.7-117.7,118.1-127.9
		c45.6-7.6,90.3-15.4,133.6-23c100.1-17.5,194.6-34,300.4-48.6c37.3-5.2,70.5,37.5,76.7,46.1c24.7,33.9,64,93.7,109.4,162.9
		c89.7,136.5,201.4,306.4,279.6,399c85.4,101.1,177.6,188.2,275.2,280.3c36.8,34.8,74.9,70.7,114.6,109.2
		c27.2,26.4,55.3,53.7,82.4,80.2c74.7,72.8,152,148,227.6,219.6L2193.8,1789.9z"/>
</g>
<g>
	<path class="st2" d="M3662.5,2519.5c-81.1,0-162.4-1.4-242.6-2.7c-88.2-1.5-179.5-3-267-2.6c-293,1.3-589.2-2.3-875.7-5.8
		c-71.6-0.9-145.6-1.8-218.3-2.6c-29.8-0.3-43-14.3-48.9-26.1c-6.6-13.1-6.4-28.2-6.3-40.3c0-3.8,0.1-9.1-0.2-12.6
		c-2.7,0.3-7.5,1.4-15.2,4.2c-112.2,41.7-223.2,79-347.5,76.9c-18.3-0.3-37.2-0.4-55.5-0.5c-81.3-0.4-165.3-0.8-244.8-19.1
		c-88.3-20.3-171.7-64.5-241.1-127.6c-67.3-61.2-120.3-139-153.4-225c-35.8-93.1-68-243-98.6-458.3c-4-28.4-10.4-70.3-17.2-114.8
		c-2-13.2-4.1-26.8-6.2-40.5l37.6-5.7c2.1,13.7,4.1,27.3,6.1,40.5c6.8,44.5,13.2,86.6,17.2,115.2c29.7,209.5,62.1,360.9,96.4,450
		c31,80.5,80.6,153.3,143.5,210.5c64.6,58.8,142.1,99.8,224,118.7c75.4,17.4,157.3,17.8,236.4,18.1c18.4,0.1,37.5,0.2,56,0.5
		c117.6,2,224.9-34.1,333.6-74.5c16-6,36.4-11.4,51.7-0.6c15.4,10.8,15.2,29.8,15,45c-0.1,8.4-0.2,18,2.3,22.9
		c0.6,1.2,2.5,4.9,15.3,5.1c72.8,0.8,146.8,1.7,218.3,2.6c245,3,497.2,6.1,748.2,6.1c42.4,0,84.6-0.1,126.9-0.3
		c87.9-0.4,179.4,1.1,267.9,2.6c197.4,3.3,401.5,6.7,590.7-10.4l3.4,37.8C3900.8,2516.5,3781.9,2519.5,3662.5,2519.5z"/>
</g>
<g>
	<g>
		<ellipse transform="matrix(0.9925 -0.1222 0.1222 0.9925 -302.5928 260.0876)" cx="1969.4" cy="2597.3" rx="90.2" ry="90.2"/>
	</g>
</g>
<g>
	<g>
		<path class="st3" d="M1979.3,2568.7v61.2h-14.2v-49.9h-12.2v-11.4H1979.3z"/>
	</g>
</g>
<g>
	<g>
		<g>
			<rect x="3926.3" y="2271.9" width="34.7" height="34.7"/>
		</g>
	</g>
	<g>
		<g>
			<rect x="3926.3" y="2306.6" class="st3" width="34.7" height="34.7"/>
		</g>
	</g>
	<g>
		<g>
			<rect x="3926.3" y="2341.3" width="34.7" height="34.7"/>
		</g>
	</g>
	<g>
		<g>
			<rect x="3961" y="2271.9" class="st3" width="34.7" height="34.7"/>
		</g>
	</g>
	<g>
		<g>
			<rect x="3961" y="2306.6" width="34.7" height="34.7"/>
		</g>
	</g>
	<g>
		<g>
			<rect x="3961" y="2341.3" class="st3" width="34.7" height="34.7"/>
		</g>
	</g>
	<g>
		<g>
			<rect x="3995.7" y="2271.9" width="34.7" height="34.7"/>
		</g>
	</g>
	<g>
		<g>
			<rect x="3995.7" y="2306.6" class="st3" width="34.7" height="34.7"/>
		</g>
	</g>
	<g>
		<g>
			<rect x="3995.7" y="2341.3" width="34.7" height="34.7"/>
		</g>
	</g>
	<g>
		<g>
			<rect x="4030.3" y="2271.9" class="st3" width="34.7" height="34.7"/>
		</g>
	</g>
	<g>
		<g>
			<rect x="4030.3" y="2306.6" width="34.7" height="34.7"/>
		</g>
	</g>
	<g>
		<g>
			<rect x="4030.3" y="2341.3" class="st3" width="34.7" height="34.7"/>
		</g>
	</g>
	<g>
		<g>
			<rect x="4065" y="2271.9" width="34.7" height="34.7"/>
		</g>
	</g>
	<g>
		<g>
			<rect x="4065" y="2306.6" class="st3" width="34.7" height="34.7"/>
		</g>
	</g>
	<g>
		<g>
			<rect x="4065" y="2341.3" width="34.7" height="34.7"/>
		</g>
	</g>
</g>
<g>
	<g>
		<g>
			<polygon points="2932.1,2330.6 2925.5,2323.9 2892.2,2357.2 2925.5,2390.5 2932.1,2383.8 2905.6,2357.2 			"/>
		</g>
	</g>
	<g>
		<g>
			<polygon points="2965.4,2323.9 2932.1,2357.2 2965.4,2390.5 2972.1,2383.8 2945.5,2357.2 2972.1,2330.6 			"/>
		</g>
	</g>
	<g>
		<g>
			<polygon points="3016.7,2330.6 3010,2323.9 2976.8,2357.2 3010,2390.5 3016.7,2383.8 2990.1,2357.2 			"/>
		</g>
	</g>
</g>
<g>
	<g>
		<circle cx="2059.6" cy="2266.2" r="90.2"/>
	</g>
</g>
<g>
	<g>
		<path class="st3" d="M2082.9,2287.3v11.6h-46.3v-9.2l23.6-22.3c2.5-2.4,4.2-4.4,5.1-6.2c0.9-1.7,1.3-3.4,1.3-5.1
			c0-2.4-0.8-4.3-2.5-5.6c-1.7-1.3-4.1-2-7.3-2c-2.7,0-5.1,0.5-7.3,1.5c-2.2,1-4,2.6-5.4,4.6l-10.3-6.6c2.4-3.6,5.7-6.3,9.9-8.4
			c4.2-2,9-3,14.4-3c4.5,0,8.5,0.7,11.9,2.2c3.4,1.5,6.1,3.6,8,6.3c1.9,2.7,2.8,5.9,2.8,9.6c0,3.3-0.7,6.4-2.1,9.4
			c-1.4,2.9-4.1,6.2-8.1,10l-14.1,13.3H2082.9z"/>
	</g>
</g>
<g>
	<g>
		<circle cx="1108.9" cy="2520.5" r="90.2"/>
	</g>
</g>
<g>
	<g>
		<path class="st3" d="M1127.3,2522.8c2.9,3.1,4.3,7,4.3,11.6c0,3.6-0.9,6.8-2.8,9.8s-4.7,5.4-8.5,7.2c-3.8,1.8-8.5,2.7-14,2.7
			c-4.3,0-8.6-0.6-12.7-1.7c-4.2-1.1-7.7-2.8-10.6-4.9l5.5-10.9c2.3,1.8,5,3.1,8.1,4.1c3.1,1,6.2,1.4,9.4,1.4c3.6,0,6.4-0.7,8.4-2.1
			c2-1.4,3.1-3.3,3.1-5.8c0-5-3.8-7.5-11.5-7.5h-6.5v-9.4l12.6-14.3H1086v-11.4h42.9v9.2l-13.8,15.8
			C1120.4,2517.7,1124.5,2519.7,1127.3,2522.8z"/>
	</g>
</g>
<g>
	<g>
		<circle cx="925.7" cy="1234.4" r="90.2"/>
	</g>
</g>
<g>
	<g>
		<path class="st3" d="M955.1,1254.2h-10v12.9h-13.8v-12.9h-33v-9.5l28.9-38.8H942l-26.8,36.8h16.4v-11.5h13.4v11.5h10V1254.2z"/>
	</g>
</g>
<g>
	<g>
		<ellipse transform="matrix(0.7071 -0.7071 0.7071 0.7071 -721.6412 797.1096)" cx="601.4" cy="1269.7" rx="90.2" ry="90.2"/>
	</g>
</g>
<g>
	<g>
		<path class="st3" d="M618.9,1269.2c4.1,3.4,6.2,8.1,6.2,13.8c0,3.7-0.9,7.1-2.8,10.2c-1.9,3.1-4.7,5.5-8.5,7.4
			c-3.8,1.8-8.5,2.8-14.1,2.8c-4.3,0-8.6-0.6-12.7-1.7c-4.2-1.1-7.7-2.8-10.6-4.9l5.6-10.9c2.3,1.8,5,3.1,8.1,4.1
			c3,1,6.2,1.4,9.4,1.4c3.6,0,6.4-0.7,8.4-2.1c2-1.4,3.1-3.4,3.1-5.9c0-2.6-1.1-4.6-3.2-6c-2.1-1.3-5.8-2-11.1-2h-15.7l3.1-34.5
			h37.4v11.4h-25.5l-1,11.6h5C608.4,1264,614.8,1265.8,618.9,1269.2z"/>
	</g>
</g>
<g>
	<g>
		<ellipse transform="matrix(0.7071 -0.7071 0.7071 0.7071 -318.0529 467.282)" cx="405" cy="617.6" rx="90.2" ry="90.2"/>
	</g>
</g>
<g>
	<g>
		<path class="st3" d="M420.7,614.1c3.2,1.6,5.7,3.8,7.6,6.7c1.9,2.9,2.8,6.2,2.8,10c0,4.1-1,7.7-3.1,10.8c-2,3.1-4.8,5.5-8.4,7.1
			c-3.5,1.7-7.5,2.5-11.8,2.5c-8.6,0-15.3-2.6-20.1-7.9c-4.8-5.3-7.3-12.7-7.3-22.5c0-6.9,1.3-12.9,3.9-17.8c2.6-5,6.3-8.7,11-11.3
			c4.7-2.6,10.1-3.8,16.3-3.8c3.3,0,6.4,0.4,9.4,1.1c3,0.7,5.6,1.8,7.7,3.1l-5.3,10.4c-3-2-6.9-3.1-11.5-3.1
			c-5.2,0-9.3,1.5-12.3,4.6c-3,3-4.7,7.4-4.9,13.2c3.6-3.6,8.7-5.4,15.1-5.4C414,611.8,417.5,612.6,420.7,614.1z M414.6,638.2
			c1.9-1.6,2.8-3.9,2.8-6.6c0-2.8-1-5-2.8-6.7c-1.9-1.7-4.4-2.5-7.6-2.5c-3.1,0-5.6,0.9-7.6,2.6c-2,1.7-3,3.9-3,6.6s1,4.9,2.9,6.6
			c1.9,1.7,4.5,2.5,7.9,2.5C410.2,640.6,412.7,639.8,414.6,638.2z"/>
	</g>
</g>
<g>
	<g>
		<ellipse transform="matrix(0.7071 -0.7071 0.7071 0.7071 67.6779 890.5868)" cx="1108.9" cy="363.6" rx="90.2" ry="90.2"/>
	</g>
</g>
<g>
	<g>
		<path class="st3" d="M1133.1,335v9.2l-22.7,52.1H1095l22-49.7h-20.3v10H1084V335H1133.1z"/>
	</g>
</g>
<g>
	<g>
		<ellipse transform="matrix(0.7071 -0.7071 0.7071 0.7071 -504.2329 2320.7988)" cx="2549.3" cy="1769.1" rx="90.2" ry="90.2"/>
	</g>
</g>
<g>
	<g>
		<path class="st3" d="M2566.5,1747.2c4.8,5.2,7.3,12.7,7.3,22.5c0,6.9-1.3,12.9-3.9,17.8c-2.6,5-6.2,8.7-11,11.3
			c-4.7,2.6-10.2,3.9-16.4,3.9c-3.3,0-6.4-0.4-9.4-1.1c-3-0.7-5.5-1.8-7.6-3.1l5.2-10.4c3,2,6.8,3.1,11.5,3.1
			c5.2,0,9.3-1.5,12.3-4.6c3-3.1,4.7-7.5,4.9-13.3c-3.7,3.7-8.8,5.5-15.2,5.5c-3.9,0-7.5-0.8-10.7-2.4c-3.2-1.6-5.7-3.8-7.6-6.7
			c-1.9-2.9-2.8-6.2-2.8-10c0-4.1,1-7.7,3.1-10.8c2-3.1,4.8-5.5,8.4-7.1c3.5-1.7,7.4-2.5,11.8-2.5
			C2555,1739.4,2561.7,1742,2566.5,1747.2z M2555,1765.7c2-1.7,2.9-3.9,2.9-6.6s-1-4.9-2.8-6.6c-1.9-1.7-4.5-2.5-7.8-2.5
			c-3,0-5.5,0.8-7.4,2.5c-1.9,1.6-2.8,3.8-2.8,6.6c0,2.8,0.9,5,2.8,6.7c1.9,1.7,4.4,2.5,7.6,2.5
			C2550.6,1768.3,2553.1,1767.4,2555,1765.7z"/>
	</g>
</g>
<g>
	<g>
		<ellipse transform="matrix(0.7071 -0.7071 0.7071 0.7071 -712.9891 2502.2595)" cx="2664" cy="2111.8" rx="90.2" ry="90.2"/>
	</g>
</g>
<g>
	<g>
		<path class="st3" d="M2644.2,2083.2v61.2H2630v-49.9h-12.2v-11.4H2644.2z"/>
	</g>
	<g>
		<path class="st3" d="M2667.5,2141.7c-4-2.5-7.1-6.1-9.3-10.9s-3.4-10.4-3.4-17s1.1-12.3,3.4-17s5.4-8.4,9.3-10.9
			c4-2.5,8.5-3.8,13.6-3.8c5.1,0,9.6,1.3,13.6,3.8c4,2.5,7.1,6.1,9.3,10.9s3.4,10.4,3.4,17s-1.1,12.3-3.4,17s-5.4,8.4-9.3,10.9
			c-4,2.5-8.5,3.8-13.6,3.8C2676,2145.5,2671.5,2144.2,2667.5,2141.7z M2689.9,2128.7c2.1-3.2,3.2-8.2,3.2-14.9s-1.1-11.7-3.2-14.9
			c-2.1-3.2-5.1-4.8-8.8-4.8c-3.7,0-6.6,1.6-8.7,4.8c-2.1,3.2-3.2,8.2-3.2,14.9s1.1,11.7,3.2,14.9c2.1,3.2,5,4.8,8.7,4.8
			C2684.8,2133.5,2687.8,2131.9,2689.9,2128.7z"/>
	</g>
</g>
<g>
	<g>
		<circle cx="4612.6" cy="2024.1" r="90.2"/>
	</g>
</g>
<g>
	<g>
		<path class="st3" d="M4605.3,1995.4v61.2h-14.2v-49.9h-12.2v-11.4H4605.3z"/>
	</g>
	<g>
		<path class="st3" d="M4639.6,1995.4v61.2h-14.2v-49.9h-12.2v-11.4H4639.6z"/>
	</g>
</g>
<g>
	<g>
		<ellipse transform="matrix(0.7071 -0.7071 0.7071 0.7071 -753.0308 2238.2461)" cx="2325.3" cy="2028.1" rx="90.2" ry="90.2"/>
	</g>
</g>
<g>
	<g>
		<path class="st3" d="M2348.7,2034.5c1.6,2.5,2.4,5.3,2.4,8.5c0,3.8-1.1,7.1-3.2,9.9c-2.2,2.8-5.2,5-9.1,6.6
			c-3.9,1.5-8.4,2.3-13.6,2.3c-5.1,0-9.6-0.8-13.5-2.3c-3.9-1.5-6.9-3.7-9-6.6c-2.1-2.8-3.2-6.1-3.2-9.9c0-3.2,0.8-6,2.4-8.5
			c1.6-2.4,3.9-4.4,6.9-5.9c-2.3-1.4-4-3.2-5.2-5.3c-1.2-2.1-1.8-4.6-1.8-7.3c0-3.6,1-6.6,3-9.3c2-2.6,4.7-4.7,8.3-6.1
			c3.6-1.4,7.6-2.1,12.2-2.1c4.7,0,8.8,0.7,12.4,2.1c3.6,1.4,6.4,3.5,8.4,6.1s3,5.7,3,9.3c0,2.7-0.6,5.2-1.8,7.3
			c-1.2,2.1-3,3.9-5.3,5.3C2344.8,2030.1,2347.1,2032,2348.7,2034.5z M2333.6,2049c2.1-1.6,3.1-3.7,3.1-6.4c0-2.7-1-4.8-3.1-6.4
			s-4.9-2.4-8.4-2.4c-3.5,0-6.3,0.8-8.3,2.4c-2,1.6-3.1,3.7-3.1,6.4c0,2.7,1,4.9,3.1,6.5c2,1.6,4.8,2.4,8.3,2.4
			C2328.8,2051.4,2331.6,2050.6,2333.6,2049z M2318.3,2010.9c-1.7,1.4-2.6,3.3-2.6,5.6c0,2.3,0.8,4.2,2.5,5.5s4,2,6.9,2
			c2.9,0,5.2-0.7,7-2c1.8-1.3,2.6-3.2,2.6-5.5c0-2.4-0.9-4.3-2.6-5.6c-1.7-1.4-4.1-2.1-7-2.1
			C2322.3,2008.8,2320.1,2009.5,2318.3,2010.9z"/>
	</g>
</g>
<g>
	<path class="st4" d="M4014.7,2501.2l-3.4-37.8c14.5-1.3,29.2-2.6,43.5-3.7c79.7-6.7,162.1-13.6,239-37.9
		c54.2-17.1,107.9-48.7,147.4-86.8c32.1-30.9,69.8-80.9,67.4-143.6c-1.9-48.9-12.1-81.7-32.3-103.3c-21.1-22.7-55.4-34.2-104.8-35.3
		l-0.2,0c-565-17.5-1056.9-29.7-1595.1-39.5c-0.9,0-95.2-3.6-126.6-15.9c-22.3-8.8-37.8-25.3-52.8-41.2c-9.4-10-18.2-19.4-27.9-26
		c-26.6-17.9-57.9-27.3-88.2-26.5c-11.4,0.3-26.1,3.4-41.8,6.7c-39.6,8.4-88.9,18.8-121.7-11c-38-34.5-78.3-72-123.3-114.5
		l26.1-27.6c44.8,42.4,84.9,79.7,122.7,114c18.4,16.7,55.5,8.9,88.3,1.9c17.4-3.7,33.8-7.2,48.6-7.6c38.1-1,77.3,10.7,110.4,33
		c13.3,8.9,24,20.4,34.4,31.5c12.6,13.5,24.6,26.2,38.9,31.8c20.7,8.1,96.3,13,113.4,13.3c538.3,9.9,1030.4,22,1595.5,39.5
		c60.1,1.4,103.2,16.9,131.7,47.4c26.7,28.7,40.2,69.3,42.5,127.7c2.3,60.7-25,120.4-79,172.4c-43.6,42-102.7,76.9-162.3,95.7
		c-80.9,25.5-165.5,32.6-247.2,39.5C4043.7,2498.7,4029.1,2499.9,4014.7,2501.2z"/>
</g>
<g>
	<path class="st5" d="M2193.8,1784.9c-75.8-71.8-153.2-147.1-228-220c-27.1-26.4-55.1-53.7-82.4-80.1
		c-39.4-38.3-77.4-74.1-114.2-108.8c-98.4-92.9-191.4-180.7-278.2-283.4c-79.7-94.3-192-265.3-282.3-402.6
		c-45.2-68.8-84.2-128.2-108.4-161.4c-13.3-18.3-31.6-32.1-40.8-30.8c-105.1,14.5-199.3,31-299.1,48.4c-43.3,7.6-88.2,15.4-133.9,23
		c-21.9,3.7-42.7,15.4-58.6,33c-15.7,17.4-25.6,39.2-28.1,61.6c-7.9,71.9,31.8,151.4,66.8,221.6c7.3,14.7,14.2,28.6,20.7,42.2
		c47.9,101.8,85.4,193.9,114.7,281.5c3.9,11.6,10,13.9,27.7,17.8c22.1,4.9,55.5,12.2,61,66.1c4.6,44.6,17.4,131.4,30.6,218.6
		l-37.6,5.7c-13.3-87.6-26.2-175-30.9-220.4c-2.7-26.5-11.7-28.5-31.4-32.9c-17.7-3.9-44.5-9.8-55.6-42.9
		c-28.8-86.2-65.8-177-113.1-277.4c-6.2-13.3-13.1-27-20.3-41.5c-37.3-74.9-79.6-159.7-70.5-242.7c7-63.9,56.7-117.7,118.1-127.9
		c45.6-7.6,90.3-15.4,133.6-23c100.1-17.5,194.6-34,300.4-48.6c37.3-5.2,70.5,37.5,76.7,46.1c24.7,33.9,64,93.7,109.4,162.9
		c89.7,136.5,201.4,306.4,279.6,399c85.4,101.1,177.6,188.2,275.2,280.3c36.8,34.8,74.9,70.7,114.6,109.2
		c27.2,26.4,55.3,53.7,82.4,80.2c74.7,72.8,152,148,227.6,219.6L2193.8,1784.9z"/>
</g>
<g>
	<path class="st6" d="M3662.6,2514.5c-81.1,0-162.4-1.4-242.6-2.7c-88.2-1.5-179.5-3-267-2.6c-293,1.3-589.2-2.3-875.7-5.8
		c-71.6-0.9-145.6-1.8-218.3-2.6c-29.8-0.3-43-14.3-48.9-26.1c-6.6-13.1-6.4-28.2-6.3-40.3c0-3.8,0.1-9.1-0.2-12.6
		c-2.7,0.3-7.5,1.4-15.2,4.2c-112.2,41.7-223.2,79-347.5,76.9c-18.3-0.3-37.2-0.4-55.5-0.5c-81.3-0.4-165.3-0.8-244.8-19.1
		c-88.3-20.3-171.7-64.5-241.1-127.6c-67.3-61.2-120.3-139-153.4-225c-35.8-93.1-68-243-98.6-458.3c-4-28.4-10.4-70.3-17.2-114.8
		c-2-13.2-4.1-26.8-6.2-40.5l37.6-5.7c2.1,13.7,4.1,27.3,6.1,40.5c6.8,44.5,13.2,86.6,17.2,115.2c29.7,209.5,62.1,360.9,96.4,450
		c31,80.5,80.6,153.3,143.5,210.5c64.6,58.8,142.1,99.8,224,118.7c75.4,17.4,157.3,17.8,236.4,18.1c18.4,0.1,37.5,0.2,56,0.5
		c117.6,2,224.9-34.1,333.6-74.5c16-6,36.4-11.4,51.7-0.6c15.4,10.8,15.2,29.8,15,45c-0.1,8.4-0.2,18,2.3,22.9
		c0.6,1.2,2.5,4.9,15.3,5.1c72.8,0.8,146.8,1.7,218.3,2.6c286.3,3.5,582.4,7.2,875.1,5.8c87.9-0.4,179.4,1.1,267.9,2.6
		c197.4,3.3,401.5,6.7,590.7-10.4l3.4,37.8C3900.8,2511.5,3781.9,2514.5,3662.6,2514.5z"/>
</g>
<g>
	<g>
		
			<ellipse transform="matrix(0.9871 -0.1602 0.1602 0.9871 -270.2445 707.1512)" class="st1" cx="4251" cy="2029.8" rx="42.7" ry="42.7"/>
	</g>
</g>
<g>
	<g>
		<ellipse transform="matrix(0.9239 -0.3827 0.3827 0.9239 -453.1745 1781.3044)" cx="4251" cy="2029.8" rx="25.4" ry="25.4"/>
	</g>
</g>
<g>
	<g>
		<rect x="4247.9" y="1662.3" width="6.2" height="392.8"/>
	</g>
</g>
<g>
	<g>
		<path d="M4289.9,1660.1h27.8c6.6,0,12.5,1.3,17.6,3.8c5.1,2.5,9.1,6.1,11.9,10.7c2.8,4.6,4.2,10,4.2,16.1s-1.4,11.5-4.2,16.1
			c-2.8,4.6-6.8,8.2-11.9,10.7c-5.1,2.5-11,3.8-17.6,3.8h-27.8V1660.1z M4317,1709.7c6.1,0,11-1.7,14.7-5.1c3.6-3.4,5.5-8,5.5-13.9
			s-1.8-10.5-5.5-13.9c-3.6-3.4-8.5-5.1-14.7-5.1h-13v38H4317z"/>
	</g>
	<g>
		<path d="M4401.2,1721.3l-11.8-17.1h-0.7h-12.3v17.1h-14.2v-61.2h26.5c5.4,0,10.1,0.9,14.1,2.7c4,1.8,7.1,4.4,9.2,7.7
			c2.2,3.3,3.2,7.3,3.2,11.8s-1.1,8.5-3.3,11.8c-2.2,3.3-5.3,5.8-9.3,7.6l13.7,19.7H4401.2z M4397.6,1674.4
			c-2.2-1.8-5.5-2.8-9.7-2.8h-11.6v21.4h11.6c4.3,0,7.5-0.9,9.7-2.8c2.2-1.9,3.3-4.5,3.3-7.9
			C4400.9,1678.9,4399.8,1676.2,4397.6,1674.4z"/>
	</g>
	<g>
		<path d="M4432.5,1720.4c-4.5-1.3-8.1-3-10.9-5.1l4.8-10.7c2.6,1.9,5.7,3.5,9.4,4.6c3.6,1.2,7.2,1.8,10.9,1.8c4,0,7-0.6,8.9-1.8
			c1.9-1.2,2.9-2.8,2.9-4.8c0-1.5-0.6-2.7-1.7-3.6c-1.1-1-2.6-1.7-4.4-2.3c-1.8-0.6-4.2-1.2-7.2-1.9c-4.7-1.1-8.5-2.2-11.5-3.3
			c-3-1.1-5.5-2.9-7.7-5.3c-2.1-2.5-3.2-5.7-3.2-9.8c0-3.6,1-6.8,2.9-9.7c1.9-2.9,4.8-5.2,8.7-6.9c3.9-1.7,8.6-2.5,14.2-2.5
			c3.9,0,7.7,0.5,11.5,1.4c3.7,0.9,7,2.3,9.8,4l-4.4,10.8c-5.7-3.2-11.3-4.8-17-4.8c-4,0-6.9,0.6-8.8,1.9c-1.9,1.3-2.8,3-2.8,5.1
			s1.1,3.7,3.3,4.7c2.2,1,5.5,2,10,3c4.7,1.1,8.5,2.2,11.5,3.3c3,1.1,5.5,2.9,7.7,5.3c2.1,2.4,3.2,5.6,3.2,9.7c0,3.5-1,6.7-2.9,9.6
			c-2,2.9-4.9,5.2-8.8,6.9c-3.9,1.7-8.7,2.5-14.3,2.5C4441.7,1722.4,4437,1721.7,4432.5,1720.4z"/>
	</g>
</g>
<g>
	<g>
		
			<ellipse transform="matrix(0.9867 -0.1623 0.1623 0.9867 -67.6831 158.8578)" class="st1" cx="938.2" cy="493.6" rx="42.7" ry="42.7"/>
	</g>
</g>
<g>
	<g>
		<ellipse transform="matrix(0.9214 -0.3887 0.3887 0.9214 -118.0774 403.4716)" cx="938.2" cy="493.6" rx="25.4" ry="25.4"/>
	</g>
</g>
<g>
	<g>
		<rect x="935.1" y="493.6" width="6.2" height="392.8"/>
	</g>
</g>
<g>
	<g>
		<path d="M965.3,824.1h27.8c6.6,0,12.5,1.3,17.6,3.8c5.1,2.5,9.1,6.1,11.9,10.7c2.8,4.6,4.2,10,4.2,16.1c0,6.1-1.4,11.5-4.2,16.1
			c-2.8,4.6-6.8,8.2-11.9,10.7c-5.1,2.5-11,3.8-17.6,3.8h-27.8V824.1z M992.4,873.7c6.1,0,11-1.7,14.7-5.1c3.6-3.4,5.5-8,5.5-13.9
			s-1.8-10.5-5.5-13.9c-3.6-3.4-8.5-5.1-14.7-5.1h-13v38H992.4z"/>
	</g>
	<g>
		<path d="M1076.6,885.4l-11.8-17.1h-0.7h-12.3v17.1h-14.2v-61.2h26.5c5.4,0,10.1,0.9,14.1,2.7c4,1.8,7.1,4.4,9.2,7.7
			c2.2,3.3,3.2,7.3,3.2,11.8c0,4.6-1.1,8.5-3.3,11.8c-2.2,3.3-5.3,5.8-9.3,7.6l13.7,19.7H1076.6z M1073,838.4
			c-2.2-1.8-5.5-2.8-9.7-2.8h-11.6V857h11.6c4.3,0,7.5-0.9,9.7-2.8c2.2-1.9,3.3-4.5,3.3-7.9C1076.4,842.9,1075.2,840.3,1073,838.4z"
			/>
	</g>
	<g>
		<path d="M1108,884.5c-4.5-1.3-8.1-3-10.9-5.1l4.8-10.7c2.6,1.9,5.7,3.5,9.4,4.6c3.6,1.2,7.2,1.8,10.9,1.8c4,0,7-0.6,8.9-1.8
			c1.9-1.2,2.9-2.8,2.9-4.8c0-1.5-0.6-2.7-1.7-3.6c-1.1-1-2.6-1.7-4.4-2.3c-1.8-0.6-4.2-1.2-7.2-1.9c-4.7-1.1-8.5-2.2-11.5-3.3
			c-3-1.1-5.5-2.9-7.7-5.3c-2.1-2.5-3.2-5.7-3.2-9.8c0-3.6,1-6.8,2.9-9.7c1.9-2.9,4.8-5.2,8.7-6.9c3.9-1.7,8.6-2.5,14.2-2.5
			c3.9,0,7.7,0.5,11.5,1.4c3.7,0.9,7,2.3,9.8,4l-4.4,10.8c-5.7-3.2-11.3-4.8-17-4.8c-4,0-6.9,0.6-8.8,1.9c-1.9,1.3-2.8,3-2.8,5.1
			s1.1,3.7,3.3,4.7c2.2,1,5.5,2,10,3c4.7,1.1,8.5,2.2,11.5,3.3c3,1.1,5.5,2.9,7.7,5.3c2.1,2.4,3.2,5.6,3.2,9.7c0,3.5-1,6.7-2.9,9.6
			c-2,2.9-4.9,5.2-8.8,6.9c-3.9,1.7-8.7,2.5-14.3,2.5C1117.2,886.4,1112.5,885.8,1108,884.5z"/>
	</g>
</g>
<g>
	<g>
		<path class="st7" d="M4498.8,1397.1h-622.8c-34.9,0-63.3-28.4-63.3-63.3V765.7c0-11.5,3.1-22.8,9.1-32.7l197-326.7
			c11.4-18.9,32.1-30.6,54.2-30.6h425.9c34.9,0,63.3,28.4,63.3,63.3v894.9C4562,1368.7,4533.7,1397.1,4498.8,1397.1 M4498.8,1410.1
			c42.1,0,76.3-34.1,76.3-76.3V439c0-42.1-34.1-76.3-76.3-76.3h-425.9c-26.7,0-51.5,14-65.3,36.9l-197,326.7
			c-7.2,11.9-11,25.5-11,39.4v568.1c0,42.1,34.1,76.3,76.3,76.3H4498.8L4498.8,1410.1z"/>
	</g>
</g>
<g>
	<g>
		<path d="M4016,1040.8l20.5-88.1h21.9v133h-21.3v-61.2l-13,61.2h-15.5l-13.5-61.6v61.6h-21.5v-133h21.9L4016,1040.8z"/>
	</g>
	<g>
		<path d="M4131.5,1059c0,19.1-9.6,28.7-28.7,28.8c-19.1,0-28.6-9.6-28.6-28.8v-79.7c0-19.1,9.5-28.7,28.6-28.7
			c19.1,0,28.7,9.6,28.7,28.7V1059z M4109.4,979.3c0-5-2.2-7.5-6.5-7.5h-0.1c-4.3,0-6.4,2.5-6.4,7.5v79.7c0,5,2.2,7.5,6.5,7.5
			c4.4,0,6.6-2.5,6.6-7.5V979.3z"/>
	</g>
	<g>
		<path d="M4147.5,952.6h21.9l14.7,65.5v-65.5h20.7v133H4183l-14.1-63.7v63.7h-21.4V952.6z"/>
	</g>
	<g>
		<path d="M4268.8,965.4l-25.1,99h26.2v21.2h-51.1v-12.8l25.1-99h-24.2v-21.2h49.2V965.4z"/>
	</g>
	<g>
		<path d="M4339.8,1037.9l6.3,47.7h-22.3l-3.7-27.6h-16.3l-3.7,27.6h-22.3l6.3-47.5l13.5-85.5h28.7L4339.8,1037.9z M4317.3,1036.7
			l-5.3-40.3l-5.3,40.3H4317.3z"/>
	</g>
	<g>
		<path d="M3973.7,1153.6h22.1v133h-22.1V1153.6z"/>
	</g>
	<g>
		<path d="M4065.4,1153.6v21.2h-17.6v111.8h-22.1v-111.8h-17.6v-21.2H4065.4z"/>
	</g>
	<g>
		<path d="M4129.7,1238.9l6.3,47.7h-22.3l-3.7-27.6h-16.3l-3.7,27.6h-22.3l6.3-47.5l13.5-85.5h28.7L4129.7,1238.9z M4107.2,1237.7
			l-5.3-40.3l-5.3,40.3H4107.2z"/>
	</g>
	<g>
		<path d="M4147.3,1286.6v-133h22.1v111.8h30v21.2H4147.3z"/>
	</g>
	<g>
		<path d="M4217.3,1153.6l11.5,51.3l11.5-51.3h23.4l-23.3,75.6l-0.5,1.4v56h-22.1v-55.9l-0.5-1.5l-23.3-75.6H4217.3z"/>
	</g>
</g>
<g>
	<rect x="3969.7" y="732" class="st7" width="231.1" height="154.1"/>
</g>
<g>
	<rect x="4046.8" y="732" class="st3" width="154.1" height="154.1"/>
</g>
<g>
	<rect x="4123.8" y="732" class="st8" width="77" height="154.1"/>
</g>
</svg>
