<?xml version="1.0" encoding="utf-8"?>
<!-- Generator: Adobe Illustrator 27.7.0, SVG Export Plug-In . SVG Version: 6.00 Build 0)  -->
<svg version="1.1" id="ëÎÓÈ_1" xmlns="http://www.w3.org/2000/svg" xmlns:xlink="http://www.w3.org/1999/xlink" x="0px" y="0px"
	 viewBox="0 0 5000 3885.4" style="enable-background:new 0 0 5000 3885.4;" xml:space="preserve">
<style type="text/css">
	.st0{fill:#B7B7B7;}
	.st1{fill:#E5E5E5;}
	.st2{fill:#044BB2;}
	.st3{fill:#FF1B03;}
	.st4{fill:#FFE600;}
	.st5{fill:#FFFFFF;}
	.st6{fill:#00008B;}
	.st7{clip-path:url(#SVGID_00000064345380378749167820000004725190838213133457_);}
	.st8{clip-path:url(#SVGID_00000151530637927814948550000009564233364605877896_);}
	.st9{fill:#FF0000;}
</style>
<g>
	<g>
		<g>
			<path class="st0" d="M4625.9,2224.9c0.6-34-12.8-59.5-42.2-80.4c-11.9-8.4-55.6-37.5-99.6-59.4c-9.9-5-50.6-26.4-102.1-53.5
				c-190.9-100.4-381.9-200.5-437.9-225.1c-184.9-81-379.4-57.9-567.6-35.6c-38.3,4.5-74.4,8.8-110.6,12.2
				c-6.9,0.7-13.9,1.1-20.9,1.5c-34.6,2.1-77.6,4.8-118.3,28.8c-58.8,34.7-100.1,99.9-133.3,152.4c-5.8,9.2-11.4,18.1-16.8,26.3
				c-10.6,16-68.1,19.3-99,21.1c-12.7,0.7-24.7,1.4-36.5,2.6c-75.7,7.5-149.5,11.9-219.3,13c-53.5,0.8-107.4-7.7-148.4-15.3
				c-219.6-40.5-423-230.6-544.8-509.3c-4.2-11-14.7-40.1-18.8-59.9c-2-9.5-3.9-19.1-5.7-28.8c-16.1-82.5-36.1-185.2-131.3-250.5
				c-26.8-18.4-43.4-30.2-58.1-40.6c-17.1-12.1-31.8-22.5-56.3-39l-10.5-7c-103.6-69.4-172-115.3-253.5-154.9
				c-61.3-29.8-99.7-40.7-158.3-45c-75.7-5.6-147.2,5.4-232,35.5c-63.7,22.7-84,37.5-159.2,103c-43.3,37.7-102.1,62.2-150,62.3
				c-38.4,0.1-79.1,5.2-116.1,41.3c-33.7,32.9-43.1,69.3-58.1,136.2c-30.7,137-31.5,138.7-75.1,224.5
				c-31.1,61.1-70.2,151.8-81.5,199.6c-13.1,55.3-25.6,147.5-33.4,246.6c-2.9,36.4-4.5,69.4,0.4,99.5c-0.1,1.7-0.3,3.3-0.4,5
				c-5.6,71.1-6.5,129.4,36.7,178.3c12.4,14,77.6,72.5,90.6,84.1l16.8,15c55.7,49.8,97.9,87.5,114.5,105.5
				c-7,15.5-15.8,34.1-26.4,55.7c-24.8,50.7-35,72.5-37.7,103.2c-2.1,24.6,0.6,45.2,9.1,64.2c-5.1,14-7.9,26.3-9.1,40.4
				c-3.9,44.7,8.3,76.3,42.1,108.9c26.7,25.8,67.4,40.2,148.3,62.8c83,23.1,113.1,30,214.5,48.9c212.1,39.5,222.3,40.8,364.2,45.8
				c162,5.7,270.5,5.3,341.6-1.2c81.8-7.6,128.2-5.4,155.1,7.1c33,15.3,56,33.9,61.4,49.6c1.8,5.1,3.4,13.2,5.2,21.9
				c7.3,35.3,19.6,94.4,80.2,123.5c15.8,7.6,33.4,12,52.3,13c38.8,2.1,77.7,2.7,116.3,2.7c32.5,0,64.9-0.5,96.7-0.9
				c27.6-0.4,56.1-0.8,83.8-0.9c105.2-0.3,224.1-0.6,346.6-0.9c576.8-1.3,957.8-2.5,995.7-6.2c41.9-4,80.4-14.2,108.4-28.5
				c27.3-14,48.9-32.1,66.2-55.4c33.6-45.4,34-93.8,33.6-119c0.7-15-0.1-39.5-1.9-65.8c2-15.4,2-28.8,1.9-38.7
				c0.4-7.6,0.3-17.6,0-29c17.8,4.4,42.7,10.9,77.4,20.3c200,54.3,241.3,63.2,271.3,63.2c0.5,0,0.9,0,1.4,0
				c69.7-0.6,145.5-43.4,184.2-104.1c10.7-16.8,26.3-52.2,33.1-68.6c9.4-22.9,30.6-74.2,42-102.1c7.9-19.2,32.3-53.7,53.8-84.2
				c12.9-18.3,26.2-37.1,38.2-55.6c23.5-36.2,44.5-63.6,54.5-76.7c6.1-8,8.9-11.7,11.9-16.8c7.6-12.9,20.4-34.6,20.8-62
				C4626.3,2308.9,4625.6,2245.8,4625.9,2224.9z M4250.4,2613.6c-12.5,19.6-43.1,37.5-63.9,37.7c-22.9-0.8-160.3-38.1-234.1-58.1
				c-120.4-32.7-141.2-35.5-162.9-34.4c-30.5,1.5-48.3,12.5-61.7,23.1c-1.5,1.2-3,2.4-4.4,3.7l-0.6,0.6
				c-18,16.5-41.9,45.4-40.4,105.5c0.1,3.2,0.4,6.3,0.9,9.4c1.9,11.9-1.4,74.7-0.9,95.1c0.1,3.2,0.4,6.3,0.9,9.4
				c2.8,17.7,5.4,43.7,7.4,68.5c-0.7,1.7-1.5,3.2-2.5,4.5c-2.8,3.7-6.9,8.2-16.2,13c-7,3.6-26.9,10.5-56.4,13.3
				c-40.4,3.3-562.2,4.5-981.5,5.5c-122.9,0.3-242.2,0.6-347.7,0.9c-28.6,0.1-57.5,0.5-85.5,0.9c-65.2,0.9-132.6,1.9-197.4-1.3
				c-1.9-6.3-3.8-15.6-5.3-22.4c-2.5-12.1-5.4-25.8-10.1-39.7c-19-55-65-99.8-136.7-133.1c-53.6-24.9-115.7-30.3-228.9-19.9
				c-64,5.9-169.7,6.1-323.3,0.7c-132.7-4.7-135.2-4.8-342.9-43.5c-97-18.1-123.5-24.1-202.2-46c-16.6-4.6-30.3-8.6-41.5-12
				c32.4-69.4,43.5-105.9,39.9-143.3c-0.1-0.6-0.1-1.1-0.2-1.7c-1.6-13.8-4.2-26.7-7.5-39.2c7.3-24.3,9.5-43.9,7.6-63.7
				c-0.1-0.6-0.1-1.1-0.2-1.7c-5.2-43.1-18.2-79.3-39.8-110.8c-0.3-0.4-0.5-0.7-0.8-1.1c-19.1-26.7-54.8-58.6-141.2-135.8
				l-16.9-15.1c-13.7-12.3-26.2-23.6-37.1-33.5c-25.4-23.2-38.3-57.2-34.4-91.4c6.4-57,14.2-106.9,21.8-139.3
				c6.4-26.9,36.6-102.2,69.8-167.5c49.7-97.8,54.6-112.2,87.3-258.3c3.1-13.9,12.5-56,17.1-63.7c0,0,0.1-0.2,0.5-0.5
				c2.3-0.4,7.2-0.9,16.6-1c82.9-0.2,174.1-36.7,244-97.7c69.3-60.4,74.3-62.2,112.9-75.9c66.8-23.8,117-31.8,173.2-27.6
				c37.4,2.8,58,7.6,106,31c72.5,35.2,134.2,76.6,236.3,145l10.5,7.1c23,15.4,36.3,24.8,53.2,36.8c15.1,10.7,32.2,22.9,60,41.9
				c44.4,30.4,56.1,80.4,71.5,159.4c2,10.2,4,20.4,6.1,30.5c7.9,38,26.2,84.3,26.4,84.7c0.3,0.7,0.5,1.3,0.8,2
				c62.6,143.9,148.8,272.9,249.4,373.1c120.5,120.1,255.7,194.6,401.8,221.6c47.5,8.8,110.5,18.6,176.7,17.6
				c73.7-1.2,151.5-5.8,231.2-13.7c8.8-0.9,19.4-1.5,30.6-2.1c63.9-3.7,160.4-9.2,210.7-85.3c5.9-8.9,12-18.6,18.4-28.6
				c23.6-37.3,56-88.4,84.9-105.5c11-6.5,32.9-7.8,54.1-9.2c8.3-0.5,16.8-1,25.6-1.9c37.8-3.6,76.5-8.2,114-12.6
				c169-20,343.9-40.8,493,24.5c56,24.5,298.6,152.1,428.9,220.7c45.4,23.9,78.3,41.2,95.3,50c-8.7,12.9-18.2,26.4-27.6,39.6
				c-28.5,40.3-55.3,78.3-69.4,112.6c-11.4,27.7-32.4,78.9-41.8,101.7C4262.7,2589.5,4252.9,2609.4,4250.4,2613.6z"/>
		</g>
	</g>
	<g id="path1559_00000034787361141858811270000015502617725197008813_">
		<g>
			<path class="st1" d="M2107.2,3049.7c-38.6,0-77.6-0.6-116.4-2.7c-18.9-1-36.5-5.4-52.3-13l0,0c-60.7-29.1-72.9-88.2-80.2-123.5
				c-1.8-8.6-3.5-16.8-5.2-21.9c-5.4-15.8-28.4-34.3-61.4-49.6c-26.9-12.5-73.3-14.6-155.1-7.1c-71.1,6.6-179.7,6.9-341.6,1.2
				c-141.9-5-152.1-6.3-364.2-45.8c-101.4-18.9-131.4-25.7-214.5-48.9c-80.9-22.6-121.6-37-148.3-62.8
				c-33.8-32.6-46-64.2-42.1-108.9c2.7-30.7,12.8-52.5,37.7-103.2c30-61.2,45.6-98.2,46.6-110.1c-3.1-23.6-9.5-35.8-14.9-43.9
				c-10.5-14.2-56.5-55.3-119.9-111.9l-16.8-15c-13-11.6-78.2-70.1-90.6-84.1c-43.2-48.9-42.3-107.2-36.7-178.3
				c7.8-99.1,20.3-191.3,33.4-246.6c11.3-47.7,50.4-138.4,81.5-199.6c43.6-85.8,44.5-87.4,75.1-224.5c15-66.9,24.3-103.3,58.1-136.2
				c37-36.1,77.7-41.2,116.1-41.3c47.8-0.1,106.7-24.6,149.9-62.3c75.2-65.5,95.4-80.3,159.2-103c84.8-30.2,156.3-41.1,232-35.5
				c58.5,4.3,97,15.3,158.3,45c81.5,39.6,149.9,85.5,253.5,154.9l10.5,7c24.5,16.4,39.3,26.9,56.3,39c14.7,10.4,31.3,22.2,58.1,40.6
				c95.2,65.3,115.2,168,131.3,250.5c1.9,9.6,3.7,19.2,5.7,28.8c4.1,19.8,14.6,48.9,18.8,59.9c121.8,278.7,325.2,468.9,544.8,509.3
				c41,7.5,94.8,16.1,148.4,15.3c69.8-1.1,143.6-5.5,219.3-13c11.8-1.2,23.8-1.9,36.5-2.6c30.9-1.8,88.4-5.1,99-21.1
				c5.4-8.2,11-17,16.8-26.2c33.2-52.4,74.5-117.7,133.3-152.4c40.7-24,83.7-26.7,118.3-28.8c7.1-0.4,14.1-0.9,20.9-1.5
				c36.2-3.4,72.3-7.7,110.6-12.2c188.1-22.3,382.7-45.4,567.6,35.6c56,24.5,247.1,124.6,438,225.1c51.5,27.1,92.2,48.5,102.1,53.5
				c44,22,87.8,51,99.6,59.4c29.3,20.9,42.7,46.4,42.2,80.4c-0.4,27.5-13.2,49.1-20.8,62c-3,5.1-5.8,8.7-11.9,16.8
				c-10.1,13.2-31,40.5-54.5,76.7c-12,18.4-25.3,37.3-38.2,55.6c-21.5,30.5-45.9,65-53.8,84.2c-11.4,27.9-32.5,79.2-42,102.1
				c-6.8,16.4-22.4,51.9-33.1,68.6c-38.7,60.7-114.5,103.5-184.2,104.1c-29.8,0.3-69.5-8-272.7-63.2c-40.2-10.9-67.3-17.9-85.4-22.3
				c5,44.4,9.4,107.1,8,135.5c0.4,25.2,0,73.6-33.6,119c-17.2,23.3-38.9,41.4-66.2,55.4c-28,14.3-66.5,24.5-108.4,28.5
				c-38,3.7-418.9,4.8-995.6,6.2c-122.6,0.3-241.6,0.6-346.8,0.9c-27.7,0.1-56.2,0.5-83.8,0.9
				C2172.1,3049.2,2139.8,3049.7,2107.2,3049.7z M2004.3,2903.7c64.9,3.2,132.3,2.2,197.5,1.3c28-0.4,56.9-0.8,85.4-0.9
				c105.2-0.3,224.3-0.6,346.9-0.9c419.6-1,941.9-2.2,982.3-5.5c29.5-2.8,49.4-9.7,56.4-13.3c9.3-4.8,13.4-9.2,16.1-13
				c4.4-5.9,5.7-14.4,5.4-33.8l-0.1-3.8l0.3-3.8c1.1-16-4.3-96.9-10.5-136.2l-0.7-4.7l-0.1-4.7c-1.5-60.1,22.3-89,40.4-105.5l5-4.3
				c13.4-10.5,31.2-21.5,61.7-23.1c21.7-1.1,42.5,1.7,162.9,34.4c73.8,20,211.2,57.4,234.1,58.1c20.8-0.2,51.4-18.2,63.8-37.7
				c2.5-4.2,12.3-24.1,21.4-46.2c9.4-22.8,30.5-74,41.8-101.7c14-34.3,40.9-72.4,69.4-112.7c12.1-17.2,24.6-34.9,35.2-51
				c17.1-26.3,32.8-48.2,44.8-64.4c-13.4-8.1-28.5-16.7-43-23.9c-11.3-5.7-48.5-25.2-104.8-54.8
				c-130.2-68.5-372.7-196.1-428.7-220.6c-149.1-65.3-323.9-44.6-493-24.5c-37.4,4.4-76.1,9-114,12.6c-8.8,0.8-17.3,1.4-25.6,1.9
				c-21.2,1.3-43.2,2.7-54.1,9.2c-28.9,17.1-61.2,68.1-84.9,105.4c-6.4,10.1-12.5,19.7-18.4,28.6c-50.3,76.1-146.8,81.7-210.7,85.3
				c-11.2,0.6-21.8,1.3-30.6,2.1c-79.7,7.9-157.5,12.5-231.2,13.7c-66.2,1.1-129.2-8.9-176.8-17.6
				c-146.1-26.9-281.2-101.5-401.8-221.6c-100.6-100.2-186.8-229.3-249.4-373.1l0,0c0,0-18.9-47-27.2-86.7
				c-2.1-10.1-4.1-20.3-6.1-30.5c-15.4-79-27.1-129-71.5-159.4c-27.8-19-44.9-31.2-60-41.9c-16.9-12-30.2-21.4-53.2-36.8l-10.5-7.1
				c-102.1-68.4-163.8-109.8-236.3-145c-48-23.3-68.6-28.2-106-31c-56.3-4.1-106.5,3.9-173.2,27.6c-38.6,13.7-43.6,15.5-112.9,75.9
				c-69.9,60.9-161.1,97.4-244,97.7c-9.5,0-14.4,0.6-16.6,1c-0.3,0.3-0.5,0.5-0.5,0.5c-4.6,7.6-14.1,49.8-17.2,63.7
				c-32.7,146-37.6,160.5-87.3,258.3c-33.2,65.3-63.4,140.6-69.8,167.5c-11.3,47.8-22.8,134-30,224.8c-4.4,56-0.9,68.3,0.3,70.7l0,0
				c0,0,0.1,0.2,0.4,0.5c6.5,6.6,37.4,35.3,79.1,72.6l16.7,15c86.5,77.3,122.3,109.3,141.4,135.9l0.8,1.1
				c21.6,31.5,34.7,67.7,39.8,110.8l0.2,1.7c4.3,44.5-12.2,87.6-60.7,186.7c-6.4,13.1-17.3,35.3-21.6,46.4
				c10.3,4.7,33.4,12.8,83.9,26.8c78.7,21.9,105.1,27.9,202.2,46c207.7,38.7,210.2,38.8,342.9,43.5c153.6,5.4,259.3,5.2,323.3-0.7
				c113.2-10.4,175.3-5.1,228.9,19.9c71.7,33.3,117.7,78.1,136.7,133.1c4.8,13.8,7.6,27.5,10.1,39.6
				C2000.5,2888.2,2002.4,2897.5,2004.3,2903.7z M4485.9,2200.1L4485.9,2200.1L4485.9,2200.1z"/>
		</g>
	</g>
	<g id="path1559_00000016797936285493994100000017226981767832305285_">
		<g>
			<path d="M2107.3,2996.6c-37.9,0-75.9-0.6-113.6-2.6c-11.9-0.6-22.7-3.3-32.1-7.8l0,0c-37-17.8-44.9-55.8-51.2-86.4
				c-2.1-10.4-4.2-20.1-7-28.4c-13.3-38.4-55.8-65-89.2-80.5c-37-17.2-88.1-20.5-182.4-11.8c-68.8,6.4-175.2,6.7-334.9,1
				c-139.3-4.9-146-5.7-356.4-44.9c-99.4-18.5-128.8-25.2-209.9-47.8c-79.8-22.2-109.1-33.9-125.6-49.8
				c-22.2-21.5-28.6-37.6-26.1-66.1c1.7-19.9,8.1-34.6,32.4-84.4c41.2-84.2,53.8-117.8,51.8-138.2c-3.4-28.1-11.2-50.4-24.5-69.8
				c-13-18.2-53.8-54.6-127.8-120.8l-16.8-15c-36.5-32.6-79.1-71.6-86.2-79.6c-27.1-30.7-29.2-67.7-23.5-138.9
				c7.5-95.1,19.8-186.5,32.2-238.6c8.8-37.1,43.4-121.3,77.2-187.7c46.2-90.8,48.4-97.4,79.6-237c15.2-68,22.3-89.3,43.3-109.8
				c22.3-21.8,45.9-26.1,79.1-26.2c60.8-0.2,131.5-29,184.7-75.4c73.8-64.3,88.4-73.9,142.1-93c78.5-27.9,141.4-37.7,210.3-32.6
				c52.1,3.8,83.3,12.8,138.9,39.8c78.2,38,141.8,80.6,247.2,151.2l10.5,7.1c24,16.1,38.4,26.3,55.1,38.2
				c14.8,10.5,31.6,22.4,58.8,41.1c77.3,53,93.5,136.3,109.2,216.8c1.9,9.8,3.8,19.7,5.9,29.4c5.8,28.1,20.3,65.8,21.7,69.3
				c128.6,295.3,347,497.7,584.3,541.4c43.4,8,100.7,17.1,158.9,16.1c71.3-1.1,146.5-5.6,223.7-13.3c10.7-1.1,22.2-1.7,34.3-2.4
				c51.3-3,115-6.6,140.3-44.8c5.6-8.4,11.4-17.6,17.4-27.1c30.1-47.6,67.6-106.9,115.4-135c29.7-17.5,64.2-19.7,94.6-21.6
				c7.6-0.5,15.2-0.9,22.6-1.6c36.8-3.5,74.9-8,111.8-12.4c181.1-21.5,368.3-43.7,540,31.5c59,25.8,294.1,149.5,434.5,223.4
				c51.8,27.2,92.7,48.7,103.1,54c37.9,18.9,78.7,45.4,92.5,55.2c14.9,10.6,20.1,20.1,19.9,36.2c-0.2,13.4-7.6,25.9-13.5,35.9
				c-1.3,2.2-2.9,4.4-8.4,11.5c-10.5,13.7-32.2,42.1-56.9,80c-11.5,17.6-24.5,36.1-37.1,53.9c-24.3,34.4-49.4,69.9-59.5,94.7
				c-11.4,27.8-32.5,79.1-41.9,101.9c-8.7,21.2-21.9,49.5-28.8,60.3c-29.1,45.7-88,79.1-139.9,79.6c-0.2,0-0.4,0-0.6,0
				c-25.3,0-79-12.8-257.6-61.3c-98.3-26.7-124.8-31.8-134.6-31.4c-5.5,0.3-6.1,0.5-9.6,3.3l-0.5,0.4c-5.1,4.6-11.4,10.4-10.9,35.1
				c6.2,40.5,13.1,129,11.2,156c0.4,27.2-1.1,58.6-23.2,88.4c-12.3,16.6-27.9,29.6-47.7,39.7c-21.9,11.2-54.4,19.5-89.2,22.9
				c-38.3,3.7-522.4,4.8-990.6,5.9c-122.6,0.3-241.6,0.6-346.8,0.9c-28,0.1-56.7,0.5-84.4,0.9
				C2171.6,2996.1,2139.5,2996.6,2107.3,2996.6z M1977.8,2952.3c5,2.4,11,3.8,17.9,4.1c68.5,3.6,138.9,2.7,206.9,1.7
				c27.8-0.4,56.6-0.8,84.8-0.9c105.2-0.3,224.2-0.6,346.8-0.9c445.5-1,950.5-2.2,987.1-5.7c29.9-2.9,58.2-10,75.7-19
				c14.8-7.6,25.8-16.7,34.6-28.7c15.3-20.7,16.2-44.1,15.8-66.3v-1l0.1-1c1.7-19-4.3-106.9-10.9-149.2l-0.2-2.5
				c-0.9-37.6,10.5-53.4,23.1-64.9l2-1.8c8.9-7,16.6-11,31.5-11.7c13.4-0.7,30.8,1.2,146.4,32.6c167.9,45.6,228,60.3,248.1,60
				c38.8-0.3,86.5-27.7,108.6-62.3c4.4-6.8,16-30.9,25.7-54.4c9.4-22.8,30.5-74.1,41.9-101.9c11.8-28.7,36.9-64.4,63.6-102.1
				c12.4-17.6,25.2-35.7,36.3-52.7c25.4-39.1,47.8-68.3,58.5-82.4c3-4,5.1-6.6,6-7.9c3-5,8.1-13.7,8.1-17.3c0-0.8,0-1.4,0-1.8
				c-0.7-0.6-1.9-1.7-4.1-3.2c-12.5-8.9-51.9-34.4-87.5-52.2c-10.8-5.4-49.8-25.9-103.8-54.3c-140-73.7-374.4-197-432.1-222.3
				c-162.4-71.1-344.5-49.5-520.6-28.6c-37.1,4.4-75.5,8.9-112.7,12.5c-7.8,0.7-15.8,1.2-23.9,1.7c-28.7,1.8-55.9,3.5-77.9,16.4
				c-39.9,23.6-74.8,78.6-102.7,122.8c-6.2,9.8-12.1,19.1-17.8,27.7c-35.6,53.9-109.8,58.2-169.4,61.6c-11.8,0.7-22.9,1.3-32.8,2.3
				c-78.2,7.8-154.5,12.3-226.8,13.4c-61.6,1-121.1-8.4-166.3-16.7c-249.7-46-478.6-256.7-612-563.6c-0.1-0.2-17-43.2-23.9-76.3
				c-2.1-9.9-4-19.9-5.9-29.9c-14.9-76.5-29-148.8-93.6-193.1c-27.4-18.8-44.4-30.8-59.3-41.4c-16.5-11.7-30.8-21.8-54.3-37.6
				l-10.5-7.1c-104-69.7-166.8-111.8-242.7-148.7c-51.3-24.9-78.2-32.7-125.3-36.2c-63.4-4.7-121.7,4.5-195,30.5
				c-48.6,17.3-59.6,24.5-130,85.9c-59.7,52-139.8,84.4-209.2,84.6c-31.7,0.1-42.3,5.1-53.1,15.5c-12.8,12.5-18,24.5-32.9,91.1
				c-31.9,142.6-35,151.8-82.8,245.8c-32.1,63.1-66,145.2-74.1,179.4c-11.9,50.3-23.9,139.5-31.3,232.9
				c-5.9,74.6-0.4,94.6,14.3,111.1c4.5,5.1,39.7,37.7,83,76.5l16.8,15c80.9,72.3,117.9,105.3,133.5,127.2
				c17.1,24.9,26.9,52.5,31.1,87.3c2.9,29.9-9.1,63.9-55.5,158.7c-23.4,47.7-27.7,58.3-28.8,71.1c-1.4,15.9-0.1,21.5,14.8,35.9
				c12.2,11.8,52.7,24.8,109.7,40.7c79.8,22.2,108.7,28.8,206.7,47.1c207.6,38.7,214.2,39.5,350.8,44.3
				c155.9,5.5,263.8,5.2,330.1-0.9c101.5-9.4,158-5.1,201.6,15.1c58.1,27,94.8,61.4,108.9,102.2c3.7,10.6,6,22,8.3,33.1
				C1953.6,2923.5,1958.9,2943.3,1977.8,2952.3L1977.8,2952.3z"/>
		</g>
	</g>
	<g>
		<g>
			<path class="st2" d="M2615.1,2103.6c-58.3,0-114.4-8.9-157.3-16.8c-249.7-46-478.6-256.7-612.1-563.6c-0.4-0.9-17-43.3-23.9-76.3
				c-2.1-9.9-4-19.9-5.9-29.9c-14.9-76.5-29-148.8-93.6-193.1c-27.4-18.8-44.4-30.8-59.3-41.4c-16.5-11.7-30.8-21.8-54.3-37.6
				l-10.5-7.1c-104-69.7-166.8-111.8-242.7-148.6c-51.3-24.9-78.2-32.7-125.3-36.2c-63.3-4.7-121.7,4.5-195,30.5
				c-48.6,17.3-59.6,24.5-130,85.9c-59.7,52-139.8,84.4-209.2,84.6c-31.7,0.1-42.3,5.1-53.1,15.5c-12.8,12.5-18,24.5-32.9,91.1
				c-18.9,84.4-27.9,123.4-42.8,161.3l-34.9-13.7c13.9-35.4,22.7-73.3,41.1-155.8c15.2-68,22.3-89.3,43.3-109.8
				c22.3-21.8,45.9-26.1,79.1-26.2c60.8-0.2,131.5-29,184.7-75.4c73.8-64.3,88.4-73.9,142.1-93c78.5-27.9,141.4-37.7,210.3-32.6
				c52.1,3.8,83.3,12.8,138.9,39.8c78.2,38,141.8,80.6,247.2,151.2l10.5,7.1c24,16.1,38.4,26.3,55.1,38.2
				c14.8,10.5,31.6,22.4,58.8,41.1c77.3,53,93.5,136.3,109.2,216.8c1.9,9.8,3.8,19.7,5.9,29.4c5.8,27.9,20.3,65.6,21.7,69.3
				c128.5,295.3,346.9,497.6,584.3,541.4c43.4,8,100.7,17,158.9,16.1c25.3-0.4,51.4-1.2,77.5-2.5l1.8,37.5
				c-26.5,1.2-53,2.1-78.7,2.5C2621,2103.5,2618.1,2103.6,2615.1,2103.6z"/>
		</g>
	</g>
	<g>
		<g>
			<path class="st3" d="M2107.2,2987.7c-37.9,0-75.9-0.6-113.6-2.6c-11.9-0.6-22.7-3.3-32.1-7.8c-37-17.8-44.9-55.8-51.2-86.4
				c-2.1-10.4-4.2-20.1-7-28.4c-13.3-38.4-55.8-65-89.2-80.5c-37-17.2-88.1-20.5-182.4-11.8c-68.8,6.3-175.2,6.7-334.9,1
				c-139.4-4.9-146-5.7-356.4-44.9c-99.4-18.5-128.8-25.2-209.9-47.8c-79.8-22.2-109.1-33.9-125.6-49.8
				c-22.2-21.5-28.6-37.5-26.1-66.1c1.7-19.9,8.1-34.6,32.4-84.4C652.4,2394,665,2360.4,663,2340c-3.4-28.1-11.2-50.4-24.5-69.8
				c-13-18.2-53.8-54.7-127.9-120.9l-16.7-14.9c-36.5-32.6-79.1-71.6-86.2-79.6c-27.1-30.7-29.2-67.7-23.5-138.9
				c7.5-95.1,19.8-186.5,32.2-238.6c8.8-37.1,43.4-121.3,77.2-187.7c18-35.3,29.5-58.4,38.5-81.2l34.9,13.7
				c-9.6,24.3-21.5,48.1-40,84.4c-32.1,63.1-66,145.2-74.1,179.4c-11.9,50.3-23.9,139.5-31.3,232.9c-5.9,74.6-0.4,94.6,14.3,111.1
				c4.5,5.1,39.7,37.7,83,76.5l16.7,14.9c81,72.4,118,105.4,133.6,127.3c17.1,24.9,26.9,52.5,31.1,87.3
				c2.9,29.9-9.1,63.9-55.5,158.7c-23.4,47.7-27.7,58.3-28.8,71.1c-1.4,15.9-0.1,21.5,14.8,35.9c12.2,11.8,52.7,24.8,109.7,40.7
				c79.8,22.2,108.7,28.8,206.7,47.1c207.6,38.7,214.2,39.5,350.8,44.3c155.9,5.5,263.8,5.2,330.1-0.9c101.5-9.4,158-5.1,201.6,15.1
				c58.1,27,94.8,61.4,108.9,102.2c3.7,10.6,6,22,8.3,33.1c6.5,31.4,11.8,51.1,30.7,60.2c5,2.4,11,3.8,17.9,4.2
				c68.4,3.6,138.8,2.7,206.8,1.7c27.9-0.4,56.7-0.8,85-0.9c108.9-0.3,232.5-0.6,359.6-0.9l74.7-0.2l0.1,37.5l-74.7,0.2
				c-127.1,0.3-250.7,0.6-359.5,0.9c-28.1,0.1-56.8,0.5-84.6,0.9C2171.4,2987.3,2139.4,2987.7,2107.2,2987.7z"/>
		</g>
	</g>
	<g>
		<g>
			<path class="st4" d="M2721.8,2984.9l-0.1-37.5c343.8-0.8,863.4-2,899.6-5.5c29.9-2.9,58.2-10,75.7-18.9
				c14.8-7.6,25.8-16.7,34.6-28.7c15.3-20.7,16.2-44.1,15.8-66.3v-1l0.1-1c1.7-19-4.3-106.9-10.9-149.2l-0.2-2.5
				c-0.9-37.6,10.5-53.4,23.1-64.9l2-1.8c8.9-7,16.6-11,31.5-11.7c13.3-0.7,30.8,1.2,146.4,32.6c166.8,45.3,227.4,60,247.7,60
				c0.1,0,0.2,0,0.4,0c38.8-0.3,86.5-27.7,108.6-62.3c4.4-6.8,16-30.9,25.7-54.4c9.4-22.8,30.5-74.1,41.9-101.9
				c11.8-28.7,37-64.4,63.6-102.2c12.4-17.6,25.2-35.7,36.3-52.7c25.4-39.1,47.8-68.3,58.5-82.4c3-4,5.1-6.6,6-7.9
				c3-5,8.1-13.8,8.1-17.3c0-0.8,0-1.4,0-1.8c-0.7-0.6-1.9-1.7-4.1-3.2c-12.5-8.9-51.9-34.4-87.6-52.2
				c-10.8-5.4-49.7-25.9-103.7-54.2c-140.1-73.7-374.5-197-432.3-222.3c-162.4-71.1-344.5-49.5-520.6-28.6
				c-37.1,4.4-75.5,8.9-112.7,12.5c-7.8,0.7-15.8,1.2-23.9,1.7c-28.7,1.8-55.9,3.5-77.9,16.4c-39.9,23.6-74.8,78.6-102.7,122.8
				c-6.2,9.8-12.1,19.1-17.8,27.7c-35.6,53.9-109.8,58.2-169.4,61.6c-11.8,0.7-22.9,1.3-32.8,2.3c-50.5,5-100.3,8.7-148.1,10.9
				l-1.8-37.5c47.2-2.2,96.4-5.9,146.2-10.8c10.7-1.1,22.2-1.7,34.3-2.4c51.3-2.9,115-6.6,140.3-44.8c5.6-8.4,11.4-17.6,17.4-27.1
				c30.1-47.6,67.6-106.9,115.4-135c29.7-17.5,64.2-19.7,94.6-21.6c7.6-0.5,15.2-0.9,22.6-1.6c36.8-3.5,74.9-8,111.8-12.4
				c181.1-21.5,368.3-43.6,540,31.5c59,25.8,294.2,149.6,434.7,223.5c51.7,27.2,92.5,48.7,102.9,53.9c38,19,78.7,45.4,92.5,55.2
				c14.9,10.6,20.1,20.1,19.9,36.2c-0.2,13.4-7.6,25.9-13.5,35.9c-1.3,2.3-2.9,4.4-8.4,11.5c-10.5,13.7-32.2,42.1-56.9,80
				c-11.4,17.6-24.5,36.1-37.1,53.9c-24.3,34.4-49.4,69.9-59.5,94.7c-11.4,27.8-32.5,79.1-41.9,102c-8.7,21.2-21.9,49.5-28.8,60.3
				c-29.1,45.7-88,79.1-139.9,79.6c-0.2,0-0.4,0-0.7,0c-25.3,0-79.1-12.8-257.6-61.3c-98.3-26.7-124.9-31.8-134.6-31.4
				c-5.5,0.3-6.1,0.5-9.6,3.3l-0.5,0.4c-5.1,4.6-11.4,10.4-10.9,35.1c6.2,40.5,13.1,129,11.2,156c0.4,27.2-1.1,58.6-23.2,88.4
				c-12.3,16.6-27.9,29.6-47.7,39.7c-21.9,11.2-54.4,19.5-89.2,22.9C3589.9,2982.5,3177.7,2983.8,2721.8,2984.9z"/>
		</g>
	</g>
	<g>
		<g>
			<ellipse cx="1881.6" cy="3083.9" rx="90.2" ry="90.2"/>
		</g>
	</g>
	<g>
		<g>
			<path class="st5" d="M1891.5,3055.3v61.2h-14.2v-49.9h-12.2v-11.4L1891.5,3055.3L1891.5,3055.3z"/>
		</g>
	</g>
	<g>
		<g>
			<g>
				<rect x="2635.1" y="2738.6" width="34.7" height="34.7"/>
			</g>
		</g>
		<g>
			<g>
				<rect x="2635.1" y="2773.3" class="st5" width="34.7" height="34.7"/>
			</g>
		</g>
		<g>
			<g>
				<rect x="2635.1" y="2808" width="34.7" height="34.7"/>
			</g>
		</g>
		<g>
			<g>
				<rect x="2669.7" y="2738.6" class="st5" width="34.7" height="34.7"/>
			</g>
		</g>
		<g>
			<g>
				<rect x="2669.7" y="2773.3" width="34.7" height="34.7"/>
			</g>
		</g>
		<g>
			<g>
				<rect x="2669.7" y="2808" class="st5" width="34.7" height="34.7"/>
			</g>
		</g>
		<g>
			<g>
				<rect x="2704.4" y="2738.6" width="34.7" height="34.7"/>
			</g>
		</g>
		<g>
			<g>
				<rect x="2704.4" y="2773.3" class="st5" width="34.7" height="34.7"/>
			</g>
		</g>
		<g>
			<g>
				<rect x="2704.4" y="2808" width="34.7" height="34.7"/>
			</g>
		</g>
		<g>
			<g>
				<rect x="2739.1" y="2738.6" class="st5" width="34.7" height="34.7"/>
			</g>
		</g>
		<g>
			<g>
				<rect x="2739.1" y="2773.3" width="34.7" height="34.7"/>
			</g>
		</g>
		<g>
			<g>
				<rect x="2739.1" y="2808" class="st5" width="34.7" height="34.7"/>
			</g>
		</g>
		<g>
			<g>
				<rect x="2773.7" y="2738.6" width="34.7" height="34.7"/>
			</g>
		</g>
		<g>
			<g>
				<rect x="2773.7" y="2773.3" class="st5" width="34.7" height="34.7"/>
			</g>
		</g>
		<g>
			<g>
				<rect x="2773.7" y="2808" width="34.7" height="34.7"/>
			</g>
		</g>
	</g>
	<g>
		<g>
			<g>
				<polygon points="2485.9,2764.1 2479.2,2757.4 2445.9,2790.6 2479.2,2823.9 2485.9,2817.2 2459.3,2790.6 				"/>
			</g>
		</g>
		<g>
			<g>
				<polygon points="2519.1,2757.4 2485.9,2790.6 2519.1,2823.9 2525.8,2817.2 2499.2,2790.6 2525.8,2764.1 				"/>
			</g>
		</g>
		<g>
			<g>
				<polygon points="2570.4,2764.1 2563.8,2757.4 2530.5,2790.6 2563.8,2823.9 2570.4,2817.2 2543.8,2790.6 				"/>
			</g>
		</g>
	</g>
	<g>
		<g>
			<circle cx="1949.5" cy="2689.4" r="90.2"/>
		</g>
	</g>
	<g>
		<g>
			<path class="st5" d="M1972.8,2710.5v11.6h-46.3v-9.2l23.6-22.3c2.5-2.4,4.2-4.4,5.1-6.2c0.9-1.7,1.3-3.4,1.3-5.1
				c0-2.4-0.8-4.3-2.5-5.6s-4.1-2-7.3-2c-2.7,0-5.1,0.5-7.3,1.5c-2.2,1-4,2.6-5.4,4.6l-10.3-6.6c2.4-3.6,5.7-6.3,9.9-8.4
				c4.2-2,9-3,14.4-3c4.5,0,8.5,0.7,11.9,2.2s6.1,3.6,8,6.3s2.8,5.9,2.8,9.6c0,3.3-0.7,6.4-2.1,9.4c-1.4,2.9-4.1,6.2-8.1,10
				l-14.1,13.3h26.4V2710.5z"/>
		</g>
	</g>
	<g>
		<g>
			<circle cx="481.3" cy="2657.6" r="90.2"/>
		</g>
	</g>
	<g>
		<g>
			<path class="st5" d="M499.8,2659.9c2.9,3.1,4.3,7,4.3,11.6c0,3.6-0.9,6.8-2.8,9.8s-4.7,5.4-8.5,7.2s-8.5,2.7-14,2.7
				c-4.3,0-8.6-0.6-12.7-1.7c-4.2-1.1-7.7-2.8-10.6-4.9l5.5-10.9c2.3,1.8,5,3.1,8.1,4.1s6.2,1.4,9.4,1.4c3.6,0,6.4-0.7,8.4-2.1
				c2-1.4,3.1-3.3,3.1-5.8c0-5-3.8-7.5-11.5-7.5H472v-9.4l12.6-14.3h-26.1V2629h42.9v9.2l-13.8,15.8
				C492.8,2654.8,497,2656.8,499.8,2659.9z"/>
		</g>
	</g>
	<g>
		<g>
			<circle cx="823.7" cy="2302.8" r="90.2"/>
		</g>
	</g>
	<g>
		<g>
			<path class="st5" d="M853,2322.6h-10v12.9h-13.8v-12.9h-33v-9.5l28.9-38.8H840l-26.8,36.8h16.4v-11.5H843v11.5h10V2322.6z"/>
		</g>
	</g>
	<g>
		<g>
			<ellipse transform="matrix(0.7071 -0.7071 0.7071 0.7071 -1409.9032 828.5328)" cx="295.2" cy="2116.2" rx="90.2" ry="90.2"/>
		</g>
	</g>
	<g>
		<g>
			<path class="st5" d="M312.7,2115.7c4.1,3.4,6.2,8.1,6.2,13.8c0,3.7-0.9,7.1-2.8,10.2c-1.9,3.1-4.7,5.5-8.5,7.4
				c-3.8,1.8-8.5,2.8-14.1,2.8c-4.3,0-8.6-0.6-12.7-1.7c-4.2-1.1-7.7-2.8-10.6-4.9l5.6-10.9c2.3,1.8,5,3.1,8.1,4.1
				c3,1,6.2,1.4,9.4,1.4c3.6,0,6.4-0.7,8.4-2.1c2-1.4,3.1-3.4,3.1-5.9c0-2.6-1.1-4.6-3.2-6c-2.1-1.3-5.8-2-11.1-2h-15.7l3.1-34.5
				h37.4v11.4h-25.5l-1,11.6h5C302.2,2110.6,308.6,2112.3,312.7,2115.7z"/>
		</g>
	</g>
	<g>
		<g>
			<ellipse transform="matrix(0.7071 -0.7071 0.7071 0.7071 -595.0489 689.4042)" cx="534.7" cy="1063" rx="90.2" ry="90.2"/>
		</g>
	</g>
	<g>
		<g>
			<path class="st5" d="M550.4,1059.6c3.2,1.6,5.7,3.8,7.6,6.7c1.9,2.9,2.8,6.2,2.8,10c0,4.1-1,7.7-3.1,10.8c-2,3.1-4.8,5.5-8.4,7.1
				c-3.5,1.7-7.5,2.5-11.8,2.5c-8.6,0-15.3-2.6-20.1-7.9s-7.3-12.7-7.3-22.5c0-6.9,1.3-12.9,3.9-17.8c2.6-5,6.3-8.7,11-11.3
				c4.7-2.6,10.1-3.8,16.3-3.8c3.3,0,6.4,0.4,9.4,1.1s5.6,1.8,7.7,3.1l-5.3,10.4c-3-2-6.9-3.1-11.5-3.1c-5.2,0-9.3,1.5-12.3,4.6
				c-3,3-4.7,7.4-4.9,13.2c3.6-3.6,8.7-5.4,15.1-5.4C543.6,1057.2,547.2,1058,550.4,1059.6z M544.2,1083.7c1.9-1.6,2.8-3.9,2.8-6.6
				c0-2.8-1-5-2.8-6.7c-1.9-1.7-4.4-2.5-7.6-2.5c-3.1,0-5.6,0.9-7.6,2.6s-3,3.9-3,6.6s1,4.9,2.9,6.6s4.5,2.5,7.9,2.5
				C539.9,1086.1,542.3,1085.3,544.2,1083.7z"/>
		</g>
	</g>
	<g>
		<g>
			<ellipse transform="matrix(0.7071 -0.7071 0.7071 0.7071 -579.5773 1018.1089)" cx="939.2" cy="1208.7" rx="90.2" ry="90.2"/>
		</g>
	</g>
	<g>
		<g>
			<path class="st5" d="M963.4,1180.1v9.2l-22.7,52.1h-15.4l22-49.7H927v10h-12.6v-21.5L963.4,1180.1L963.4,1180.1z"/>
		</g>
	</g>
	<g>
		<g>
			<ellipse cx="1931.8" cy="1241.3" rx="90.2" ry="90.2"/>
		</g>
	</g>
	<g>
		<g>
			<path class="st5" d="M1949,1219.5c4.8,5.2,7.3,12.7,7.3,22.5c0,6.9-1.3,12.9-3.9,17.8c-2.6,5-6.2,8.7-11,11.3
				c-4.7,2.6-10.2,3.9-16.4,3.9c-3.3,0-6.4-0.4-9.4-1.1s-5.5-1.8-7.6-3.1l5.2-10.4c3,2,6.8,3.1,11.5,3.1c5.2,0,9.3-1.5,12.3-4.6
				s4.7-7.5,4.9-13.3c-3.7,3.7-8.8,5.5-15.2,5.5c-3.9,0-7.5-0.8-10.7-2.4s-5.7-3.8-7.6-6.7c-1.9-2.9-2.8-6.2-2.8-10
				c0-4.1,1-7.7,3.1-10.8c2-3.1,4.8-5.5,8.4-7.1c3.5-1.7,7.4-2.5,11.8-2.5C1937.4,1211.6,1944.1,1214.2,1949,1219.5z M1937.5,1237.9
				c2-1.7,2.9-3.9,2.9-6.6s-1-4.9-2.8-6.6c-1.9-1.7-4.5-2.5-7.8-2.5c-3,0-5.5,0.8-7.4,2.5c-1.9,1.6-2.8,3.8-2.8,6.6
				c0,2.8,0.9,5,2.8,6.7s4.4,2.5,7.6,2.5C1933,1240.5,1935.5,1239.7,1937.5,1237.9z"/>
		</g>
	</g>
	<g>
		<g>
			<ellipse cx="1722.4" cy="1542.8" rx="90.2" ry="90.2"/>
		</g>
	</g>
	<g>
		<g>
			<path class="st5" d="M1702.6,1514.2v61.2h-14.2v-49.9h-12.2v-11.4h26.4V1514.2z"/>
		</g>
		<g>
			<path class="st5" d="M1726,1572.7c-4-2.5-7.1-6.1-9.3-10.9c-2.2-4.8-3.4-10.4-3.4-17s1.1-12.3,3.4-17c2.2-4.8,5.4-8.4,9.3-10.9
				c4-2.5,8.5-3.8,13.6-3.8s9.6,1.3,13.6,3.8s7.1,6.1,9.3,10.9c2.2,4.8,3.4,10.4,3.4,17s-1.1,12.3-3.4,17c-2.2,4.8-5.4,8.4-9.3,10.9
				c-4,2.5-8.5,3.8-13.6,3.8S1729.9,1575.2,1726,1572.7z M1748.3,1559.7c2.1-3.2,3.2-8.2,3.2-14.9c0-6.7-1.1-11.7-3.2-14.9
				c-2.1-3.2-5.1-4.8-8.8-4.8c-3.7,0-6.6,1.6-8.7,4.8c-2.1,3.2-3.2,8.2-3.2,14.9c0,6.7,1.1,11.7,3.2,14.9c2.1,3.2,5,4.8,8.7,4.8
				C1743.3,1564.5,1746.2,1562.9,1748.3,1559.7z"/>
		</g>
	</g>
	<g>
		<g>
			<circle cx="3096.5" cy="2148.6" r="90.2"/>
		</g>
	</g>
	<g>
		<g>
			<path class="st5" d="M3089.2,2120v61.2H3075v-49.9h-12.2V2120H3089.2z"/>
		</g>
		<g>
			<path class="st5" d="M3123.5,2120v61.2h-14.2v-49.9h-12.2V2120H3123.5z"/>
		</g>
	</g>
	<g>
		<g>
			<circle cx="3096.5" cy="1739.2" r="90.2"/>
		</g>
	</g>
	<g>
		<g>
			<path class="st5" d="M3080.6,1710.5v61.2h-14.2v-49.9h-12.2v-11.4h26.4V1710.5z"/>
		</g>
		<g>
			<path class="st5" d="M3137,1760.2v11.6h-46.3v-9.2l23.6-22.3c2.5-2.4,4.2-4.4,5.1-6.2c0.9-1.7,1.3-3.4,1.3-5.1
				c0-2.4-0.8-4.3-2.5-5.6c-1.7-1.3-4.1-2-7.3-2c-2.7,0-5.1,0.5-7.3,1.5s-4,2.6-5.4,4.6l-10.3-6.6c2.4-3.6,5.7-6.3,9.9-8.4
				c4.2-2,9-3,14.4-3c4.5,0,8.5,0.7,11.9,2.2s6.1,3.6,8,6.3c1.9,2.7,2.8,5.9,2.8,9.6c0,3.3-0.7,6.4-2.1,9.4c-1.4,2.9-4.1,6.2-8.1,10
				l-14.1,13.3h26.4V1760.2z"/>
		</g>
	</g>
	<g>
		<g>
			<ellipse transform="matrix(0.7071 -0.7071 0.7071 0.7071 -166.8523 3959.6765)" cx="4696.3" cy="2181.2" rx="90.2" ry="90.2"/>
		</g>
	</g>
	<g>
		<g>
			<path class="st5" d="M4680.4,2152.6v61.2h-14.2V2164H4654v-11.4H4680.4z"/>
		</g>
		<g>
			<path class="st5" d="M4732,2183.6c2.9,3.1,4.3,7,4.3,11.6c0,3.6-0.9,6.8-2.8,9.8s-4.7,5.4-8.5,7.2s-8.5,2.7-14,2.7
				c-4.3,0-8.6-0.6-12.7-1.7c-4.2-1.1-7.7-2.8-10.6-4.9l5.5-10.9c2.3,1.8,5,3.1,8.1,4.1s6.2,1.4,9.4,1.4c3.6,0,6.4-0.7,8.4-2.1
				c2-1.4,3.1-3.3,3.1-5.8c0-5-3.8-7.5-11.5-7.5h-6.5v-9.4l12.6-14.3h-26.1v-11.4h42.9v9.2l-13.8,15.8
				C4725.1,2178.4,4729.2,2180.4,4732,2183.6z"/>
		</g>
	</g>
	<g>
		<g>
			<ellipse transform="matrix(0.7071 -0.7071 0.7071 0.7071 -749.4807 3873.5564)" cx="4301.1" cy="2841.5" rx="90.2" ry="90.2"/>
		</g>
	</g>
	<g>
		<g>
			<path class="st5" d="M4280.8,2812.9v61.2h-14.2v-49.9h-12.2v-11.4L4280.8,2812.9L4280.8,2812.9z"/>
		</g>
		<g>
			<path class="st5" d="M4347.6,2861.2h-10v12.9h-13.8v-12.9h-33v-9.5l28.9-38.8h14.9l-26.8,36.8h16.4v-11.5h13.4v11.5h10V2861.2z"
				/>
		</g>
	</g>
	<g>
		<g>
			<ellipse cx="3682.9" cy="2539.3" rx="90.2" ry="90.2"/>
		</g>
	</g>
	<g>
		<g>
			<path class="st5" d="M3666.7,2510.6v61.2h-14.2V2522h-12.2v-11.4H3666.7z"/>
		</g>
		<g>
			<path class="st5" d="M3717.5,2538.8c4.1,3.4,6.2,8.1,6.2,13.8c0,3.7-0.9,7.1-2.8,10.2c-1.9,3.1-4.7,5.5-8.5,7.4
				s-8.5,2.8-14.1,2.8c-4.3,0-8.6-0.6-12.7-1.7c-4.2-1.1-7.7-2.8-10.6-4.9l5.6-10.9c2.3,1.8,5,3.1,8.1,4.1c3,1,6.2,1.4,9.4,1.4
				c3.6,0,6.4-0.7,8.4-2.1c2-1.4,3.1-3.4,3.1-5.9c0-2.6-1.1-4.6-3.2-6s-5.8-2-11.1-2h-15.7l3.1-34.5h37.4v11.4h-25.5l-1,11.6h5
				C3707,2533.6,3713.4,2535.4,3717.5,2538.8z"/>
		</g>
	</g>
	<g>
		<g>
			<circle cx="3773.1" cy="3059.9" r="90.2"/>
		</g>
	</g>
	<g>
		<g>
			<path class="st5" d="M3755.1,3031.2v61.2h-14.2v-49.9h-12.2v-11.4L3755.1,3031.2L3755.1,3031.2z"/>
		</g>
		<g>
			<path class="st5" d="M3805.9,3056.4c3.2,1.6,5.7,3.8,7.6,6.7c1.9,2.9,2.8,6.2,2.8,10c0,4.1-1,7.7-3.1,10.8
				c-2,3.1-4.8,5.5-8.4,7.1c-3.5,1.7-7.5,2.5-11.8,2.5c-8.6,0-15.3-2.6-20.1-7.9c-4.8-5.3-7.3-12.8-7.3-22.5
				c0-6.9,1.3-12.9,3.9-17.8c2.6-5,6.3-8.7,11-11.3s10.1-3.8,16.3-3.8c3.3,0,6.4,0.4,9.4,1.1c3,0.7,5.6,1.8,7.7,3.1l-5.3,10.4
				c-3-2-6.9-3.1-11.5-3.1c-5.2,0-9.3,1.5-12.3,4.5s-4.7,7.4-4.9,13.2c3.6-3.6,8.7-5.4,15.1-5.4
				C3799.2,3054.1,3802.7,3054.8,3805.9,3056.4z M3799.8,3080.5c1.9-1.6,2.8-3.9,2.8-6.7s-1-5-2.8-6.7c-1.9-1.7-4.4-2.5-7.6-2.5
				c-3.1,0-5.6,0.9-7.6,2.6s-3,3.9-3,6.6c0,2.7,1,4.9,2.9,6.6c1.9,1.7,4.5,2.5,7.9,2.5C3795.4,3082.9,3797.9,3082.1,3799.8,3080.5z"
				/>
		</g>
	</g>
	<g>
		<g>
			<circle class="st1" cx="4306.2" cy="2636.3" r="42.7"/>
		</g>
	</g>
	<g>
		<g>
			<circle cx="4306.2" cy="2636.3" r="25.4"/>
		</g>
	</g>
	<g>
		<g>
			<rect x="4311.9" y="2633.1" width="483.2" height="6.2"/>
		</g>
	</g>
	<g>
		<g>
			<path d="M4607.5,2549.6h27.8c6.6,0,12.5,1.3,17.6,3.8s9.1,6.1,11.9,10.7s4.2,10,4.2,16.1s-1.4,11.5-4.2,16.1
				c-2.8,4.6-6.8,8.2-11.9,10.7s-11,3.8-17.6,3.8h-27.8V2549.6z M4634.6,2599.3c6.1,0,11-1.7,14.7-5.1c3.6-3.4,5.5-8,5.5-13.9
				c0-5.8-1.8-10.5-5.5-13.9c-3.6-3.4-8.5-5.1-14.7-5.1h-13v38H4634.6z"/>
		</g>
		<g>
			<path d="M4718.8,2610.9l-11.8-17.1h-0.7H4694v17.1h-14.2v-61.2h26.5c5.4,0,10.1,0.9,14.1,2.7s7.1,4.4,9.2,7.7
				c2.2,3.3,3.2,7.3,3.2,11.8c0,4.6-1.1,8.5-3.3,11.8c-2.2,3.3-5.3,5.8-9.3,7.6l13.7,19.7h-15.1V2610.9z M4715.2,2564
				c-2.2-1.8-5.5-2.8-9.7-2.8h-11.6v21.4h11.6c4.3,0,7.5-0.9,9.7-2.8s3.3-4.5,3.3-7.9C4718.5,2568.4,4717.4,2565.8,4715.2,2564z"/>
		</g>
		<g>
			<path d="M4750.2,2610c-4.5-1.3-8.1-3-10.9-5.1l4.8-10.7c2.6,1.9,5.7,3.5,9.4,4.6c3.6,1.2,7.2,1.8,10.9,1.8c4,0,7-0.6,8.9-1.8
				s2.9-2.8,2.9-4.8c0-1.5-0.6-2.7-1.7-3.6c-1.1-1-2.6-1.7-4.4-2.3s-4.2-1.2-7.2-1.9c-4.7-1.1-8.5-2.2-11.5-3.3s-5.5-2.9-7.7-5.3
				c-2.1-2.5-3.2-5.7-3.2-9.8c0-3.6,1-6.8,2.9-9.7s4.8-5.2,8.7-6.9c3.9-1.7,8.6-2.5,14.2-2.5c3.9,0,7.7,0.5,11.5,1.4
				c3.7,0.9,7,2.3,9.8,4l-4.4,10.8c-5.7-3.2-11.3-4.8-17-4.8c-4,0-6.9,0.6-8.8,1.9c-1.9,1.3-2.8,3-2.8,5.1s1.1,3.7,3.3,4.7
				c2.2,1,5.5,2,10,3c4.7,1.1,8.5,2.2,11.5,3.3s5.5,2.9,7.7,5.3c2.1,2.4,3.2,5.6,3.2,9.7c0,3.5-1,6.7-2.9,9.6
				c-2,2.9-4.9,5.2-8.8,6.9s-8.7,2.5-14.3,2.5C4759.4,2611.9,4754.7,2611.3,4750.2,2610z"/>
		</g>
	</g>
	<g>
		<g>
			<ellipse class="st1" cx="2594.1" cy="2083.8" rx="42.7" ry="42.7"/>
		</g>
	</g>
	<g>
		<g>
			<ellipse cx="2594.1" cy="2083.8" rx="25.4" ry="25.4"/>
		</g>
	</g>
	<g>
		<g>
			<rect x="2590.9" y="1716.3" width="6.2" height="392.8"/>
		</g>
	</g>
	<g>
		<g>
			<path d="M2632.8,1714.1h27.8c6.6,0,12.5,1.3,17.6,3.8s9.1,6.1,11.9,10.7c2.8,4.6,4.2,10,4.2,16.1s-1.4,11.5-4.2,16.1
				s-6.8,8.2-11.9,10.7c-5.1,2.5-11,3.8-17.6,3.8h-27.8V1714.1z M2659.9,1763.7c6.1,0,11-1.7,14.7-5.1c3.6-3.4,5.5-8,5.5-13.9
				s-1.8-10.5-5.5-13.9c-3.6-3.4-8.5-5.1-14.7-5.1h-13v38H2659.9z"/>
		</g>
		<g>
			<path d="M2744.1,1775.3l-11.8-17.1h-0.7h-12.3v17.1h-14.2v-61.2h26.5c5.4,0,10.1,0.9,14.1,2.7c4,1.8,7.1,4.4,9.2,7.7
				c2.2,3.3,3.2,7.3,3.2,11.8c0,4.6-1.1,8.5-3.3,11.8s-5.3,5.8-9.3,7.6l13.7,19.7L2744.1,1775.3L2744.1,1775.3z M2740.5,1728.4
				c-2.2-1.8-5.5-2.8-9.7-2.8h-11.6v21.4h11.6c4.3,0,7.5-0.9,9.7-2.8s3.3-4.5,3.3-7.9C2743.9,1732.9,2742.7,1730.2,2740.5,1728.4z"
				/>
		</g>
		<g>
			<path d="M2775.5,1774.4c-4.5-1.3-8.1-3-10.9-5.1l4.8-10.7c2.6,1.9,5.7,3.5,9.4,4.6c3.6,1.2,7.2,1.8,10.9,1.8c4,0,7-0.6,8.9-1.8
				c1.9-1.2,2.9-2.8,2.9-4.8c0-1.5-0.6-2.7-1.7-3.6c-1.1-1-2.6-1.7-4.4-2.3c-1.8-0.6-4.2-1.2-7.2-1.9c-4.7-1.1-8.5-2.2-11.5-3.3
				c-3-1.1-5.5-2.9-7.7-5.3c-2.1-2.5-3.2-5.7-3.2-9.8c0-3.6,1-6.8,2.9-9.7c1.9-2.9,4.8-5.2,8.7-6.9c3.9-1.7,8.6-2.5,14.2-2.5
				c3.9,0,7.7,0.5,11.5,1.4c3.7,0.9,7,2.3,9.8,4l-4.4,10.8c-5.7-3.2-11.3-4.8-17-4.8c-4,0-6.9,0.6-8.8,1.9c-1.9,1.3-2.8,3-2.8,5.1
				s1.1,3.7,3.3,4.7s5.5,2,10,3c4.7,1.1,8.5,2.2,11.5,3.3c3,1.1,5.5,2.9,7.7,5.3c2.1,2.4,3.2,5.6,3.2,9.7c0,3.5-1,6.7-2.9,9.6
				c-2,2.9-4.9,5.2-8.8,6.9c-3.9,1.7-8.7,2.5-14.3,2.5C2784.7,1776.4,2780,1775.7,2775.5,1774.4z"/>
		</g>
	</g>
	<g>
		<g>
			<ellipse transform="matrix(0.7071 -0.7071 0.7071 0.7071 -202.4064 1114.2122)" cx="1243.8" cy="801.4" rx="90.2" ry="90.2"/>
		</g>
	</g>
	<g>
		<g>
			<path class="st5" d="M1267.2,807.8c1.6,2.5,2.4,5.3,2.4,8.5c0,3.8-1.1,7.1-3.2,9.9c-2.2,2.8-5.2,5-9.1,6.6
				c-3.9,1.5-8.4,2.3-13.6,2.3c-5.1,0-9.6-0.8-13.5-2.3s-6.9-3.7-9-6.6c-2.1-2.8-3.2-6.1-3.2-9.9c0-3.2,0.8-6,2.4-8.5
				c1.6-2.4,3.9-4.4,6.9-5.9c-2.3-1.4-4-3.2-5.2-5.3s-1.8-4.6-1.8-7.3c0-3.6,1-6.6,3-9.3c2-2.6,4.7-4.7,8.3-6.1
				c3.6-1.4,7.6-2.1,12.2-2.1c4.7,0,8.8,0.7,12.4,2.1c3.6,1.4,6.4,3.5,8.4,6.1s3,5.7,3,9.3c0,2.7-0.6,5.2-1.8,7.3
				c-1.2,2.1-3,3.9-5.3,5.3C1263.3,803.4,1265.6,805.4,1267.2,807.8z M1252.2,822.3c2.1-1.6,3.1-3.7,3.1-6.4s-1-4.8-3.1-6.4
				c-2.1-1.6-4.9-2.4-8.4-2.4s-6.3,0.8-8.3,2.4c-2,1.6-3.1,3.7-3.1,6.4s1,4.9,3.1,6.5c2,1.6,4.8,2.4,8.3,2.4
				C1247.3,824.7,1250.1,823.9,1252.2,822.3z M1236.9,784.2c-1.7,1.4-2.6,3.3-2.6,5.6s0.8,4.2,2.5,5.5s4,2,6.9,2s5.2-0.7,7-2
				s2.6-3.2,2.6-5.5c0-2.4-0.9-4.3-2.6-5.6c-1.7-1.4-4.1-2.1-7-2.1C1240.9,782.2,1238.6,782.9,1236.9,784.2z"/>
		</g>
	</g>
</g>
<g>
	<g>
		<path d="M4094.2,1190v137.6H4077v-92.2l-11.4,92.2H4054l-11.4-92.2v92.2h-17.2V1190h29l5.4,44.3l5.5-44.3H4094.2z"/>
		<path d="M4144.9,1190v17.2h-25.8v40.1h14.3v17.2h-14.3v45.8h25.8v17.2h-43V1190H4144.9z"/>
		<path d="M4169.8,1190v120.3h25.8v17.2h-43V1190H4169.8z"/>
		<path d="M4234.8,1190c3.9,0,7.3,1.4,10.1,4.2c2.8,2.8,4.2,6.2,4.2,10.1v40.1c0,4.2-1.2,8-3.7,11.4c2.4,3.5,3.7,7.3,3.7,11.5v45.8
			c0,4-1.4,7.3-4.2,10.1c-2.8,2.8-6.2,4.2-10.1,4.2h-31.6V1190H4234.8z M4232,1210.1c0-1.9-1-2.9-2.9-2.9h-8.6v40.1h8.6
			c1.9,0,2.9-1,2.9-2.9V1210.1z M4229.1,1310.3c1.9,0,2.9-0.9,2.9-2.8v-40.1c0-1.9-1-2.9-2.9-2.9h-8.6v45.8H4229.1z"/>
		<path d="M4288.4,1190c3.9,0,7.3,1.4,10.1,4.2c2.8,2.8,4.2,6.2,4.2,10.1v108.9c0,4-1.4,7.3-4.2,10.1c-2.8,2.8-6.2,4.2-10.1,4.2
			h-17.2c-4,0-7.3-1.4-10.1-4.2c-2.8-2.8-4.2-6.1-4.2-10.1v-108.9c0-3.9,1.4-7.3,4.2-10.1c2.8-2.8,6.1-4.2,10.1-4.2H4288.4z
			 M4282.6,1310.3c1.9,0,2.9-0.9,2.9-2.8v-97.4c0-1.9-1-2.9-2.9-2.9h-5.8c-1.9,0-2.8,1-2.8,2.9v97.4c0,1.9,0.9,2.8,2.8,2.8H4282.6z"
			/>
		<path d="M4336.2,1310.3c1.9,0,2.9-0.9,2.9-2.8V1190h17.2v123.2c0,4-1.4,7.3-4.2,10.1c-2.8,2.8-6.2,4.2-10.1,4.2h-17.2
			c-4,0-7.3-1.4-10.1-4.2c-2.8-2.8-4.2-6.1-4.2-10.1V1190h17.2v117.5c0,1.9,0.9,2.8,2.8,2.8H4336.2z"/>
		<path d="M4395.6,1190c3.9,0,7.3,1.4,10.1,4.2c2.8,2.8,4.2,6.2,4.2,10.1v34.4c0,6.5-2.2,12.2-6.6,17.1c4.4,4.9,6.6,10.7,6.6,17.2
			v54.4h-17.2V1273c0-2.4-0.8-4.4-2.5-6.1s-3.8-2.5-6.2-2.5h-2.8v63H4364V1190H4395.6z M4384,1247.3c2.4,0,4.5-0.8,6.2-2.5
			s2.5-3.7,2.5-6.1V1210c0-1.9-1-2.9-2.9-2.9h-8.6v40.1L4384,1247.3L4384,1247.3z"/>
		<path d="M4466.3,1190v137.6h-16.7l-14.7-63.1v63.1h-17.2V1190h17.4l14.1,60.2V1190H4466.3z"/>
		<path d="M4517,1190v17.2h-25.8v40.1h14.3v17.2h-14.3v45.8h25.8v17.2h-43V1190H4517z"/>
		<path d="M4064.2,1394l11.4,137.6h-17.2l-1.4-17.2h-12.9l-1.4,17.2h-17.2l11.4-137.6H4064.2z M4045.5,1497.2h10l-5-59.8
			L4045.5,1497.2z"/>
		<path d="M4109.1,1514.3c1.9,0,2.9-0.9,2.9-2.8V1394h17.2v123.2c0,4-1.4,7.3-4.2,10.1c-2.8,2.8-6.2,4.2-10.1,4.2h-17.2
			c-4,0-7.3-1.4-10.1-4.2c-2.8-2.8-4.2-6.1-4.2-10.1V1394h17.2v117.5c0,1.9,0.9,2.8,2.8,2.8H4109.1z"/>
		<path d="M4168.5,1394c3.9,0,7.3,1.4,10.1,4.2c2.8,2.8,4.2,6.2,4.2,10.1v31.6h-17.2v-25.8c0-1.9-1-2.9-2.9-2.9h-5.8
			c-1.9,0-2.8,1-2.8,2.9v24.7c0,0.6,0.2,1.2,0.6,1.7l23.9,31.1c2.8,3.6,4.2,7.7,4.2,12.2v33.4c0,4-1.4,7.3-4.2,10.1
			c-2.8,2.8-6.2,4.2-10.1,4.2h-17.2c-4,0-7.3-1.4-10.1-4.2c-2.8-2.8-4.2-6.1-4.2-10.1v-31.6h17.2v25.9c0,1.9,0.9,2.8,2.8,2.8h5.8
			c1.9,0,2.9-0.9,2.9-2.8v-27.7c0-0.6-0.2-1.2-0.6-1.7l-24-31.1c-2.8-3.6-4.1-7.7-4.1-12.2v-30.5c0-3.9,1.4-7.3,4.2-10.1
			c2.8-2.8,6.1-4.2,10.1-4.2H4168.5z"/>
		<path d="M4236.4,1394v17.2H4222v120.3h-17.2v-120.3h-14.3V1394H4236.4z"/>
		<path d="M4275.6,1394c3.9,0,7.3,1.4,10.1,4.2c2.8,2.8,4.2,6.2,4.2,10.1v34.4c0,6.5-2.2,12.2-6.6,17.1c4.4,4.9,6.6,10.7,6.6,17.2
			v54.4h-17.2V1477c0-2.4-0.8-4.4-2.5-6.1s-3.8-2.5-6.2-2.5h-2.8v63H4244V1394H4275.6z M4264.1,1451.3c2.4,0,4.5-0.8,6.2-2.5
			s2.5-3.7,2.5-6.1V1414c0-1.9-1-2.9-2.9-2.9h-8.6v40.1L4264.1,1451.3L4264.1,1451.3z"/>
		<path d="M4336.4,1394l11.4,137.6h-17.2l-1.4-17.2h-12.9l-1.4,17.2h-17.2l11.4-137.6H4336.4z M4317.8,1497.2h10l-5-59.8
			L4317.8,1497.2z"/>
		<path d="M4372.8,1394v120.3h25.8v17.2h-43V1394H4372.8z"/>
		<path d="M4406.3,1394h17.2v137.6h-17.2V1394z"/>
		<path d="M4469.9,1394l11.4,137.6h-17.2l-1.4-17.2h-12.9l-1.4,17.2h-17.2l11.4-137.6H4469.9z M4451.3,1497.2h10l-5-59.8
			L4451.3,1497.2z"/>
	</g>
	<g>
		<g>
			<path class="st6" d="M4517.1,1626.8h-527.8c-34.9,0-63.3-28.4-63.3-63.3V995.4c0-11.5,3.1-22.8,9.1-32.7l197-326.7
				c11.4-18.9,32.1-30.6,54.2-30.6h330.9c34.9,0,63.3,28.4,63.3,63.3v894.9C4580.4,1598.4,4552,1626.8,4517.1,1626.8 M4517.1,1639.8
				c42.1,0,76.3-34.1,76.3-76.3V668.7c0-42.1-34.1-76.3-76.3-76.3h-330.9c-26.7,0-51.5,14-65.3,36.9L3924,956
				c-7.2,11.9-11,25.5-11,39.4v568.1c0,42.1,34.1,76.3,76.3,76.3H4517.1L4517.1,1639.8z"/>
		</g>
	</g>
	<g>
		<g transform="scale(840)">
			<g>
				<rect x="4.8" y="1.2" class="st6" width="0.3" height="0.2"/>
			</g>
			<g>
				<defs>
					<rect id="SVGID_1_" x="-58.1" y="-30.3" width="126" height="63"/>
				</defs>
				<clipPath id="SVGID_00000059286926695351197560000005205202110177226167_">
					<use xlink:href="#SVGID_1_"  style="overflow:visible;"/>
				</clipPath>
				<g style="clip-path:url(#SVGID_00000059286926695351197560000005205202110177226167_);">
					<path d="M4.8,1.2l0.2,0.1 M4.9,1.2L4.8,1.3"/>
					<polygon class="st5" points="4.9,1.3 4.9,1.2 4.8,1.3 4.8,1.3 4.9,1.2 4.8,1.2 4.8,1.2 4.9,1.2 4.9,1.2 4.9,1.2 4.9,1.2 
						4.9,1.3 					"/>
				</g>
			</g>
			<g>
				<defs>
					<path id="SVGID_00000014610854803594540870000016739599737981806011_" d="M4.8,1.2L4.8,1.2l0.2,0v0l0,0L4.8,1.2z M4.9,1.2
						L4.9,1.2L4.9,1.2L4.8,1.3l0,0L4.9,1.2z"/>
				</defs>
				<clipPath id="SVGID_00000051351617030039383930000012009032453610921095_">
					<use xlink:href="#SVGID_00000014610854803594540870000016739599737981806011_"  style="overflow:visible;"/>
				</clipPath>
				<g style="clip-path:url(#SVGID_00000051351617030039383930000012009032453610921095_);">
					<path d="M4.8,1.2l0.2,0.1 M4.9,1.2L4.8,1.3"/>
					<polygon class="st9" points="4.9,1.3 4.9,1.2 4.8,1.3 4.8,1.3 4.9,1.2 4.8,1.2 4.8,1.2 4.9,1.2 4.9,1.2 4.9,1.2 4.9,1.2 
						4.9,1.3 					"/>
				</g>
			</g>
			<g>
				<path d="M4.9,1.2L4.9,1.2 M4.8,1.2h0.2"/>
				<polygon class="st5" points="4.9,1.3 4.9,1.3 4.9,1.3 4.8,1.3 4.8,1.2 4.9,1.2 4.9,1.2 4.9,1.2 4.9,1.2 4.9,1.2 4.9,1.3 
					4.9,1.3 				"/>
			</g>
			<g>
				<polygon class="st9" points="4.9,1.3 4.9,1.3 4.9,1.2 4.8,1.2 4.8,1.2 4.9,1.2 4.9,1.2 4.9,1.2 4.9,1.2 4.9,1.2 4.9,1.2 
					4.9,1.2 				"/>
			</g>
		</g>
		<g>
			<g id="Comwlth_00000117647954897769735850000015605510544764861112_" transform="translate(2520, 3780) scale(2.1)">
				<g id="Star7_00000012472972729293645270000016309112009635603391_">
					<path class="st5" d="M4088.6,1084.4l3.6,11.3l11.1-4.2l-6.6,9.9l10.2,6.1l-11.9,1l1.6,11.8l-8.2-8.6l-8.2,8.6l1.6-11.8l-11.9-1
						l10.2-6.1l-6.6-9.9l11.1,4.2L4088.6,1084.4z"/>
				</g>
			</g>
			<g id="αCrucis_00000023979942498205861770000017600215223611087744_">
				<g id="Star7_00000058577021878998007390000018138232975947679129_">
					<path class="st5" d="M4214.6,1104.8l1.7,5.4l5.3-2l-3.1,4.7l4.9,2.9l-5.6,0.5l0.8,5.6l-3.9-4.1l-3.9,4.1l0.8-5.6l-5.6-0.5
						l4.9-2.9l-3.1-4.7l5.3,2L4214.6,1104.8z"/>
				</g>
			</g>
			<g id="βCrucis_00000053513860304638706380000005516764306796353682_">
				<g id="Star7_00000136380609896385837530000002519444963173418891_">
					<path class="st5" d="M4183.1,1054.9l1.7,5.4l5.3-2l-3.1,4.7l4.9,2.9l-5.6,0.5l0.8,5.6l-3.9-4.1l-3.9,4.1l0.8-5.6l-5.6-0.5
						l4.9-2.9l-3.1-4.7l5.3,2L4183.1,1054.9z"/>
				</g>
			</g>
			<g id="γCrucis_00000152259747158800994640000001938224566320605327_">
				<g id="Star7_00000039110876794481383600000017651678618865049503_">
					<path class="st5" d="M4214.6,1020.8l1.7,5.4l5.3-2l-3.1,4.7l4.9,2.9l-5.6,0.5l0.8,5.6l-3.9-4.1l-3.9,4.1l0.8-5.6l-5.6-0.5
						l4.9-2.9l-3.1-4.7l5.3,2L4214.6,1020.8z"/>
				</g>
			</g>
			<g id="δCrucis_00000161609519692095881200000008793313156183502220_">
				<g id="Star7_00000018204339530172581350000017205799043306432173_">
					<path class="st5" d="M4242.6,1046.5l1.7,5.4l5.3-2l-3.1,4.7l4.9,2.9l-5.6,0.5l0.8,5.6l-3.9-4.1l-3.9,4.1l0.8-5.6l-5.6-0.5
						l4.9-2.9l-3.1-4.7l5.3,2L4242.6,1046.5z"/>
				</g>
			</g>
			<g id="εCrucis_00000149377554950761525760000016137546624846781093_">
				<g id="Star5_00000105428576320101292370000004034900751588068514_">
					<path class="st5" d="M4227.2,1071.8l1.4,3.4l3.6,0.3l-2.8,2.3l0.9,3.5l-3.1-1.9l-3.1,1.9l0.9-3.5l-2.8-2.3l3.6-0.3
						L4227.2,1071.8z"/>
				</g>
			</g>
		</g>
	</g>
</g>
</svg>
