<?xml version="1.0" encoding="utf-8"?>
<!-- Generator: Adobe Illustrator 27.7.0, SVG Export Plug-In . SVG Version: 6.00 Build 0)  -->
<svg version="1.1" id="ëÎÓÈ_1" xmlns="http://www.w3.org/2000/svg" xmlns:xlink="http://www.w3.org/1999/xlink" x="0px" y="0px"
	 viewBox="0 0 5000 4000" style="enable-background:new 0 0 5000 4000;" xml:space="preserve">
<style type="text/css">
	.st0{fill:#B7B7B7;}
	.st1{fill:#E5E5E5;}
	.st2{fill:#000200;}
	.st3{fill:#FFFFFF;}
	.st4{fill:#0067E2;}
	.st5{fill:#FFE600;}
	.st6{fill:#FF5043;}
	.st7{clip-path:url(#SVGID_00000161613672225493594700000016135229204045065109_);}
	.st8{fill:#012169;}
	.st9{clip-path:url(#SVGID_00000141441864914868451110000003207274951482431896_);}
	.st10{fill:#C8102E;}
</style>
<g>
	<g>
		<path class="st0" d="M4596,2439.2c0.9-38.1-3-75.5-6.7-111.6l-17.5-168.1c-1.1-10.8-2.2-21.9-3.3-32.7
			c-2.2-22.3-4.4-45.3-7.3-68.3c-10.8-86.9-22.6-180.8-36-287c-4.2-32.9-7.8-66.8-11.3-99.5c-6.3-58.7-12.8-119.5-22.8-179.6
			c-3.8-22.8-8-43.3-12.9-62.7c-16.3-64.3-45.1-125.6-85.6-182.2c-35.4-49.5-80.9-96.8-135.1-140.5c-68.7-55.4-146.8-91.8-222.4-127
			c-9.4-4.4-19-8.9-28.4-13.3c-16.9-8-34-15.9-50.6-23.5c-18.4-8.5-37.3-17.3-55.8-26c-8.4-4.1-44.3-20.8-89.7-25
			c-73.4-6.9-136.6,21-178,78.6c-25.1,35-37.6,78.7-35.3,122.9c0,0.3,0,0.6,0.1,0.9c-0.4,7.3-0.5,14.7-0.1,22.1c0,0.3,0,0.6,0.1,0.9
			c-0.4,7.3-0.5,14.7-0.1,22.1c0,0.3,0,0.6,0.1,0.9c-0.4,7.3-0.5,14.7-0.1,22.1c0,0.3,0,0.6,0.1,0.9c-0.4,7.3-0.5,14.7-0.1,22.1
			c0,0.3,0,0.6,0.1,0.9c-0.4,7.3-0.5,14.7-0.1,22.1c2.3,42.8,18.4,84.4,45.4,117.1c28.9,34.9,69.8,57.8,121.7,68.1
			c39.5,7.8,78.7,7.3,111.9,5.7c5.1-0.2,10.3-0.5,15.6-0.9c30.2-2.2,43.6,7.7,52.4,19.7c-8.8,16.1-20.7,32.1-35,47.3l-1.1,1.2
			l-432.4,502.3l-0.3,0.4c-20,23.5-488.8,575.9-489.4,576.6c-17.5,20.6-38,29.3-64.7,27.3c-26.1-1.9-52.2-5-78.1-9.2
			c3.4-1.5,6.8-3.1,10.2-4.8c33.9-16.6,56.8-44.7,64.3-79.1c2.8-12.7,3.3-25.2,2.2-37.3c0.7-7.8,0.7-15.5,0-23
			c0.7-7.8,0.7-15.5,0-23c0.7-7.8,0.7-15.5,0-23c0.7-7.8,0.7-15.5,0-23c5.1-53.9-27.3-103.2-48.2-128.9
			c-50.1-61.5-95.4-116.9-138.5-169.1c-16.6-20.2-33.3-40.4-49.9-60.6c-11.1-13.5-22.3-27-33.4-40.6c-41.2-50-76.5-95.8-90.6-148.9
			c-0.5-2-1-4-1.5-6c0.6-4.6,1.1-9.2,1.7-13.9c1.1-9.1,2.3-18.5,3.4-28.1c7.2-63.3,11.5-132.1,13.1-210.4c0.1-7.3,0.1-14.3,0-21.2
			c0-0.6,0-1.2,0-1.8c0.1-7.3,0.1-14.3,0-21.2c0-0.6,0-1.2,0-1.8c0.1-7.3,0.1-14.3,0-21.2c0-0.6,0-1.2,0-1.8
			c0.1-7.3,0.1-14.3,0-21.2c0-0.6,0-1.2,0-1.8c0.1-7.3,0.1-14.3,0-21.2c0-0.6,0-1.2,0-1.8c1.1-53.1-6.2-95.3-23-132.6
			c-21.6-48.2-62.5-80.7-99.6-106.1c-2.2-1.5-4.6-3.1-7-4.7l-694-500.2l-0.3-0.2c0,0-172.8-123.2-174.4-124.4
			c-30.9-22-70-31.5-116.3-28.1c-31.4,2.3-61.8,10.1-87.4,17.4c-72.7,20.8-142.9,61.8-197.5,115.4c-3.2,3.1-6.8,6.5-10.5,10
			c-27,25.5-64.1,60.5-73.8,114.9c-1.7,9.7-2.6,21.2-1.5,34c-0.6,7-0.7,14.7,0,23c-0.6,7-0.7,14.7,0,23c-0.6,7-0.7,14.7,0,23
			c-0.6,7-0.7,14.7,0,23c-2,22.5,1.3,52,20.9,83.7c-9.9,8.5-19.9,17.4-29.8,27l-0.2,0.2c-15.8,15.4-32.2,31-48.1,46.1
			c-15.5,14.7-31.5,29.9-47.2,45.2l-0.3,0.2c-60.6,59.1-123.3,120.2-189.5,172.4c-9.3,7.3-18.6,14.4-27.7,21.1
			c-35.2,26-71.1,48.7-106.8,67.6c-3.6,1.9-7.2,3.7-10.7,5.5l-1.2,0.6l-1.2,0.7c-12.2,6.7-26.1,13.2-40.8,20
			c-36,16.8-76.8,35.8-110.6,67.1c-46.8,43.4-76,101.1-82.1,162.3c-2,19.6-2.7,38.3-2.1,56.1c-0.2,7.8-0.2,15.5,0,23
			c-0.2,7.8-0.2,15.5,0,23c-0.2,7.8-0.2,15.5,0,23c-0.2,7.8-0.2,15.5,0,23c-1.2,42.9,4.3,81.1,16.5,115.9
			c20.6,58.4,56.2,92.2,91.7,120.1c58.7,46.2,122.6,85.4,184.4,123.3c6.3,3.9,12.6,7.7,18.9,11.6c80.9,49.7,165.7,96.7,259.3,143.5
			l0.2,0.1c31.9,15.8,64.6,33,96.1,49.6c52.5,27.7,106.9,56.3,162.7,81.2l27.2,13.9l523.4,264.6c2,1,4,2,6,3l0,0l220.4,111.1
			c6.4,3.2,12.7,6.3,18.8,9.3c26.7,13.1,49.7,24.4,68.2,39.8c30.9,25.7,57.8,55.9,79.7,89.7c8.6,13.2,16.8,27.2,25.4,42.1
			c16.6,28.4,33.7,57.9,56.3,86c20.1,25.1,43.7,46,70,62.2c29.8,18.4,61.5,29.5,94.2,33.1l1.8,0.2c6.9,0.6,13.6,0.9,20.1,0.9
			c83.1,0,142.8-45,191.4-81.6c36.2-27.2,67.4-50.8,102.4-55c26.8-3.2,54-2.2,80.7,3c19.2,3.8,40,11.9,62,20.4
			c12.1,4.7,24.6,9.6,37.6,14.1c7.1,2.4,14.5,5.1,22.2,7.9c40.6,14.6,86.6,31.1,135.7,32.5c2.2,0.1,4.4,0.1,6.6,0.1
			c54.8,0,109-19.3,153.5-54.9c38.3-30.3,72.7-48.8,105.3-56.7c33.6-8.1,71.9-10.5,108.2-11.8l0.9,0l226.4-14l0.6,0
			c111.8-7.8,202.2-17.1,284.2-29.3c95-14,187.2-44.2,276.4-73.4l6.8-2.2c40.5-13.2,79.8-28.2,117.9-42.6
			c11.1-4.2,22.6-8.6,33.9-12.8l2.1-0.8l2-0.9c33-14.8,60.3-30.9,83.2-49.1c30.7-24.4,54-53.1,69.5-85.5
			c19.1-40,29.3-83.4,31.2-132.7c0.4-10,0.4-19.9,0.2-29.7c0.2-7.7,0.2-15.4,0-23c0.2-7.7,0.2-15.4,0-23c0.2-7.7,0.2-15.4,0-23
			C4596.2,2454.5,4596.2,2446.9,4596,2439.2z M4102.5,1391.2c0.4-7.7,0.4-15.4,0-23c1.6-31.2-3.2-61.8-14.1-90.8
			c29,16.1,56.4,33.5,81.3,53.6c44.3,35.8,81.1,73.8,109.1,113c30.3,42.3,51.8,87.8,63.7,135.1c3.9,15.6,7.4,32.3,10.5,51.3
			c9.3,56.1,15.6,114.7,21.7,171.5c3.6,33.4,7.3,68,11.6,102.2c13.4,106.2,25.2,200,36,286.7c2.6,21.1,4.7,42.2,6.8,64.5
			c1.1,11,2.2,22.4,3.3,33.6l17.5,168.1c0.7,6.4,1.3,12.7,1.9,18.9c-2.8,14.6-7.1,28.7-13.7,42.3c-12.1,25.4-38.1,46.5-81.7,66.3
			c-10.8,4.1-21.7,8.2-32.3,12.2c-38.2,14.5-74.4,28.2-111.7,40.5l-6.8,2.2c-83.6,27.4-170.1,55.7-253.3,68
			c-78.4,11.6-165.2,20.5-273.2,28.1l-224.4,13.9c-43.5,1.6-89.9,4.6-135.3,15.6c-52.7,12.8-104.8,40-159.3,83.1l-0.3,0.2
			c-20.4,16.3-44.8,24.9-68.8,24.2c-26.7-0.8-60-12.7-92.3-24.3c-7.9-2.8-16.1-5.8-24.1-8.5c-9.9-3.4-20-7.3-30.7-11.5
			c23.7-1.6,46.3-6.9,67.7-15.9c30.9-13,58.3-33.4,81.4-60.6c1.5-1.8,478.6-563.8,489.2-576.4l430.2-499.7
			c41.9-44.7,70.6-95.2,83.1-146.2c5.7-23.4,7.9-46.6,6.8-69.3c0.4-7.7,0.4-15.4,0-23c0.4-7.7,0.4-15.4,0-23
			C4102.8,1406.5,4102.8,1398.9,4102.5,1391.2z M593.3,1692.4c17.7-16.4,45.3-29.3,74.5-42.9c15.8-7.3,32-14.9,48-23.6
			c3.9-2,7.9-4,11.8-6.1l0.2-0.1c41.9-22.1,83.9-48.6,124.8-78.8c10.2-7.6,20.7-15.6,31.2-23.8c72-56.7,137.4-120.5,200.6-182.1
			l0.3-0.2c15-14.7,30.7-29.5,45.9-43.9c16.3-15.4,33.1-31.4,49.5-47.5c11.7-11.4,24.7-22.4,38.4-34c13.8-11.7,28.1-23.8,42.2-37.2
			c1.4-1.3,2.8-2.6,4.2-4c18.7-17.6,47-44.1,54.9-86c2.1-11,2.5-21.9,1.4-32.7c0.8-7.7,0.8-15.4,0-23c0.8-7.7,0.8-15.4,0-23
			c0.8-7.7,0.8-15.4,0-23c0.8-7.7,0.8-15.4,0-23c2.5-24.4-2.9-48.4-15.9-70c-4.2-7-9.1-13.6-14.9-20.1
			c35.5-30.4,79.3-54.3,122.8-66.8c19.7-5.6,40.4-11,59.1-12.4c19.2-1.4,24.8,2.4,24.8,2.4c1.6,1.1,169.5,120.9,174.3,124.3
			l695,500.9l1.3,0.9l1.3,0.9c2,1.3,4,2.6,5.9,3.9c10.5,7.2,42.5,29.1,50.9,47.9c3.8,8.5,6.6,18.4,8.4,29.9
			c-2.1,44.8-5.4,86.1-9.8,125c-1,8.9-2.1,17.9-3.2,26.6c-4.4,35.2-8.9,71.1-7.8,109.1c-0.2,7.6-0.2,15.3,0,23
			c-0.2,7.6-0.2,15.3,0,23c-0.2,7.6-0.2,15.3,0,23c-0.2,7.6-0.2,15.3,0,23c-0.9,32.5,1.6,66.3,11.3,102.3
			c21.4,80.2,67.9,141.2,117.8,201.8c11.1,13.5,22.2,27,33.3,40.5c16.7,20.2,33.3,40.5,50,60.7c24.5,29.7,49.6,60.3,76,92.6
			c-3.9,1.3-7.9,2.6-11.8,4c-15.4,5.4-31.1,10.9-46.3,16.2c-21.5,7.6-43.7,15.4-64.9,22.7c-31.1,10.7-56.7,31.5-72.1,58.4
			c-12.5,21.9-17.7,46.5-15.4,71.4c-0.7,7.6-0.7,15.3,0,23c-0.7,7.6-0.7,15.3,0,23c-0.7,7.6-0.7,15.3,0,23c-0.7,7.6-0.7,15.3,0,23
			c-1.6,17.1,0.4,34.7,6.2,51.9c9.8,29.4,29.5,53.2,58.6,70.7c19.2,11.5,39.2,18.3,55.3,23.8c4.4,1.5,8.6,2.9,12.1,4.2
			c33.1,12.2,66.6,22.8,100.4,31.7c-68,10.6-117.5,47.9-161.4,81c-47.6,35.8-76.5,56.1-114.5,53.2c-24-3-49.9-19.3-69.6-43.7
			c-16.1-20-29.9-43.7-44.5-68.8c-9.1-15.6-18.5-31.8-29-47.8c-29.6-45.6-65.8-86.3-107.6-121.1c-31.3-26-65.7-42.9-96-57.8
			c-6.1-3-11.8-5.8-17.5-8.7l-220.3-111c-1.6-0.8-519.4-262.6-528.8-267.3l-30.4-15.6l-1.8-0.8c-52.2-23.2-105-51-156.1-78
			c-32.3-17-65.6-34.6-99-51.1c-89.9-45-171.2-90-248.6-137.5c-6.3-3.9-12.7-7.8-19.1-11.7c-58.4-35.8-118.8-72.9-171.1-114
			c-27.5-21.6-38.7-35.4-46.2-56.6c-0.1-0.4-0.3-0.8-0.4-1.2C568.5,1721.3,579.3,1705.4,593.3,1692.4z"/>
	</g>
	<g>
		<g>
			<path class="st1" d="M2455.2,3071.4c-6.6,0-13.3-0.3-20.1-0.9l-1.8-0.2c-32.7-3.6-64.4-14.8-94.2-33.1
				c-26.3-16.2-49.8-37.1-70-62.2c-22.6-28.1-39.7-57.5-56.3-86c-8.7-14.8-16.8-28.9-25.4-42.1c-21.9-33.8-48.8-64-79.7-89.7
				c-18.5-15.4-41.5-26.7-68.2-39.8c-6.1-3-12.4-6.1-18.8-9.3l-220.4-111.1l0,0c-2-1-4-2-6-3L1271,2329.5l-27.2-13.9
				c-55.9-24.9-110.2-53.5-162.7-81.2c-31.6-16.6-64.2-33.8-96.1-49.6l-0.2-0.1c-93.6-46.8-178.5-93.8-259.3-143.5
				c-6.3-3.9-12.6-7.7-18.9-11.6c-61.8-37.9-125.8-77.1-184.4-123.3c-35.5-27.9-71.1-61.7-91.7-120.1c-15.4-43.5-20.1-92.3-14.4-149
				c6.1-61.2,35.3-118.9,82.1-162.3c33.8-31.4,74.6-50.4,110.6-67.1c14.7-6.9,28.6-13.3,40.8-20l1.2-0.7l1.2-0.6
				c3.5-1.8,7.1-3.6,10.7-5.5c35.7-18.8,71.6-41.6,106.8-67.6c9.1-6.7,18.4-13.8,27.7-21.1c66.2-52.2,128.9-113.3,189.5-172.4
				l0.3-0.2c15.7-15.3,31.7-30.5,47.2-45.2c15.9-15.1,32.4-30.7,48.1-46.1l0.2-0.2c15.1-14.7,30.6-27.8,45.5-40.4
				c12.9-10.9,25-21.2,36.1-31.8c1.6-1.6,3.3-3.1,5-4.7c0.8-0.7,1.6-1.5,2.5-2.4c-15.4-12.4-33.1-27.4-48.1-46.6
				c-34-43.2-35.5-84.1-30.7-110.8c9.8-54.4,46.8-89.4,73.8-114.9c3.8-3.5,7.3-6.9,10.5-10c54.6-53.6,124.8-94.5,197.5-115.4
				c25.6-7.3,56-15.1,87.4-17.4c46.3-3.4,85.4,6.1,116.3,28.1c1.6,1.1,174.4,124.4,174.4,124.4l0.3,0.2l694,500.2
				c2.4,1.6,4.7,3.1,7,4.7c37.1,25.4,77.9,57.9,99.6,106.1c16.7,37.4,24,79.5,23,132.6c-1.6,78.2-5.9,147-13.1,210.4
				c-1.1,9.6-2.3,19-3.4,28.1c-6.2,49.6-11.6,92.4-0.2,134.9c14.2,53.1,49.4,98.8,90.6,148.9c11.1,13.5,22.3,27,33.4,40.6
				c16.6,20.2,33.3,40.4,49.9,60.6c43.1,52.2,88.4,107.6,138.5,169.1c22.8,28,59,83.8,46,143.2c-7.6,34.4-30.4,62.5-64.3,79.1
				c-27.7,13.6-56.1,22.2-83.5,30.5c-12.2,3.7-23.7,7.2-34.4,10.9c-15.2,5.3-30.8,10.8-45.9,16.1c-10.9,3.8-21.9,7.7-32.9,11.6
				c4.9,1.7,9.9,3.4,14.9,5.2c80.9,30,165,48.3,249.7,54.6c26.6,1.9,47.2-6.7,64.7-27.3c0.6-0.8,469.5-553.1,489.4-576.6l0.3-0.4
				l432.4-502.3l1.1-1.2c25.5-27,43.3-57,50-84.4c6.6-27.1,2.6-51.4-12.4-74.2c-8.9-13.6-21.7-25.8-55-23.4
				c-5.3,0.4-10.6,0.7-15.6,0.9c-33.2,1.5-72.5,2.1-111.9-5.7c-51.9-10.3-92.9-33.2-121.7-68.1c-27-32.6-43.1-74.2-45.4-117.1
				c-2.4-44.3,10.1-87.9,35.3-122.9c41.4-57.6,104.6-85.5,178-78.6c45.4,4.3,81.3,20.9,89.7,25c18.5,8.7,37.4,17.5,55.8,26
				c16.6,7.7,33.7,15.6,50.6,23.5c9.4,4.4,19.1,8.9,28.4,13.3c75.5,35.2,153.6,71.6,222.4,127c54.2,43.7,99.6,91,135.1,140.5
				c40.5,56.6,69.3,117.9,85.6,182.2c4.9,19.4,9.1,39.8,12.9,62.7c10,60.1,16.5,120.8,22.8,179.6c3.5,32.8,7.1,66.7,11.3,99.5
				c13.4,106.3,25.2,200.2,36,287c2.9,23,5.1,46,7.3,68.3c1,10.8,2.1,21.9,3.3,32.7l17.5,168.1c4,38.3,8.1,77.8,6.5,118.3
				c-1.9,49.3-12.1,92.7-31.2,132.7c-15.4,32.3-38.8,61.1-69.5,85.5c-22.9,18.2-50.2,34.3-83.2,49.1l-2,0.9l-2.1,0.8
				c-11.3,4.2-22.8,8.6-33.9,12.8c-38.1,14.4-77.4,29.4-117.9,42.6l-6.8,2.2c-89.2,29.2-181.4,59.4-276.4,73.4
				c-82.1,12.1-172.4,21.4-284.2,29.3l-0.6,0l-226.4,14l-0.9,0c-36.4,1.3-74.7,3.7-108.2,11.8c-32.6,7.9-67,26.5-105.3,56.7
				c-44.4,35.5-98.7,54.9-153.5,54.9c-2.2,0-4.4,0-6.6-0.1c-49-1.4-95.1-17.9-135.7-32.5c-7.8-2.8-15.1-5.4-22.2-7.9
				c-13-4.5-25.5-9.3-37.6-14.1c-22-8.6-42.8-16.7-62-20.4c-26.7-5.2-53.9-6.2-80.7-3c-35,4.2-66.2,27.8-102.4,55
				C2598,3026.4,2538.3,3071.4,2455.2,3071.4z M2447.9,2931.1c38,2.9,66.9-17.3,114.5-53.2c45.7-34.4,97.5-73.4,169.8-82.1
				c41.4-5,83.3-3.5,124.4,4.6c31.5,6.2,60.4,17.4,85.9,27.4c11.3,4.4,21.9,8.5,32.2,12.1c8.1,2.8,16.2,5.7,24.1,8.5
				c32.2,11.6,65.6,23.6,92.3,24.3c23.9,0.7,48.4-7.9,68.8-24.2l0.3-0.2c54.5-43.1,106.6-70.3,159.3-83.1
				c45.4-11,91.8-14,135.3-15.6l224.4-13.9c108-7.6,194.9-16.5,273.2-28.1c83.2-12.3,169.7-40.6,253.3-68l6.8-2.2
				c37.4-12.2,73.5-25.9,111.7-40.5c10.5-4,21.4-8.1,32.3-12.2c43.6-19.8,69.6-40.9,81.7-66.3c24.7-51.7,18.7-109.4,11.7-176.2
				l-17.5-168.1c-1.2-11.3-2.3-22.6-3.3-33.6c-2.2-22.3-4.2-43.4-6.8-64.5c-10.8-86.8-22.5-180.6-36-286.7
				c-4.3-34.2-8-68.8-11.6-102.2c-6.1-56.7-12.3-115.4-21.7-171.5c-3.2-19-6.6-35.7-10.5-51.3c-12-47.3-33.4-92.7-63.7-135.1
				c-28.1-39.2-64.8-77.2-109.1-113c-55.4-44.7-122.5-76-193.6-109.1c-9.5-4.4-19.3-9-29-13.5c-16.5-7.8-33.4-15.6-49.7-23.1
				c-18.8-8.7-38.3-17.7-57.5-26.8l-1.9-0.9c-2.9-1.3-21.7-9.8-43.2-11.2c-27.9-1.8-40,9.6-48.2,21.1c-13.8,19.2-11.9,49.6,4.3,69.2
				c20.3,24.5,74.4,25.3,119.3,23.2c3.9-0.2,8-0.4,12.1-0.7c77.3-5.5,141.9,25.1,182,86.2c36.4,55.5,47.2,119.2,31.4,184.2
				c-12.4,50.9-41.2,101.5-83.1,146.2l-430.2,499.7c-10.7,12.6-487.7,574.6-489.2,576.4c-23.1,27.2-50.5,47.6-81.4,60.6
				c-31,13.1-64.7,18.4-100.3,15.8c-97.9-7.2-194.9-28.3-288.2-62.9c-3.6-1.3-7.7-2.7-12.1-4.2c-16.1-5.5-36.2-12.3-55.3-23.8
				c-29.1-17.5-48.8-41.2-58.6-70.7c-11.4-34.2-8.2-69.8,9.3-100.2c15.4-27,41-47.7,72.1-58.4c21.2-7.3,43.4-15.1,64.9-22.7
				c15.2-5.4,30.9-10.9,46.3-16.2c13.3-4.6,26.7-8.7,39.7-12.7c15.9-4.8,31.2-9.5,45-14.7c-2.7-4.6-6.3-10-10.9-15.7
				c-49.9-61.3-95-116.4-137.9-168.4c-16.7-20.2-33.3-40.5-50-60.7c-11.1-13.5-22.2-27-33.3-40.5c-49.9-60.6-96.4-121.6-117.8-201.8
				c-18.4-68.9-10.8-129.6-3.4-188.4c1.1-8.7,2.2-17.8,3.2-26.6c6.7-58.9,10.7-123.4,12.2-197.3c0.6-31.3-2.9-55-10.8-72.6
				c-8.4-18.8-40.4-40.7-50.9-47.9c-1.9-1.3-3.8-2.6-5.9-3.9l-1.3-0.9l-1.3-0.9l-695-500.9c-4.8-3.4-172.7-123.2-174.3-124.3
				c0,0-5.6-3.8-24.8-2.4c-18.7,1.4-39.4,6.7-59.1,12.4c-50,14.3-100.3,43.7-138,80.7c-4.2,4.1-8.4,8.1-12.5,11.9
				c-10.9,10.3-26.7,25.2-31.1,34.7c1.3,1.9,3.7,5,8,9.4c7.6,7.6,17.3,15.3,26.7,22.8l0.9,0.7c16.9,13.5,29,26.7,38,41.7
				c14.7,24.5,19.7,52,14.5,79.7c-7.9,41.9-36.2,68.4-54.9,86c-1.4,1.3-2.9,2.7-4.2,4c-14.1,13.4-28.3,25.5-42.2,37.2
				c-13.7,11.6-26.7,22.6-38.4,34c-16.5,16.1-33.3,32.1-49.5,47.5c-15.2,14.4-30.8,29.3-45.9,43.9l-0.3,0.2
				c-63.2,61.6-128.6,125.4-200.6,182.1c-10.4,8.2-20.9,16.2-31.2,23.8c-40.9,30.2-82.9,56.7-124.8,78.8l-0.2,0.1
				c-3.9,2.1-7.9,4.1-11.8,6.1c-15.9,8.7-32.2,16.3-48,23.6c-29.2,13.6-56.8,26.5-74.5,42.9c-21.5,19.9-35.3,46.7-38,73.6
				c-3.6,35.8-1.3,64.7,7.1,88.5c7.5,21.3,18.7,35,46.2,56.6c52.3,41.1,112.7,78.2,171.1,114c6.4,3.9,12.7,7.8,19.1,11.7
				c77.3,47.6,158.6,92.6,248.6,137.5c33.4,16.6,66.8,34.1,99,51.1c51.1,26.9,103.9,54.8,156.1,78l1.8,0.8l30.4,15.6
				c9.4,4.8,527.2,266.5,528.8,267.3l220.3,111c5.7,2.9,11.4,5.7,17.5,8.7c30.3,14.9,64.7,31.8,96,57.8
				c41.8,34.7,78,75.5,107.6,121.1c10.4,16.1,19.8,32.2,29,47.8c14.6,25.1,28.5,48.8,44.5,68.8
				C2398,2911.8,2423.9,2928.1,2447.9,2931.1z"/>
		</g>
	</g>
	<g>
		<path class="st2" d="M2455.3,3025.4c-5.2,0-10.4-0.2-15.8-0.7l-0.5,0c-47.8-5.3-95.2-33.2-130-76.6c-20.2-25.2-36.4-52.9-52-79.7
			c-8.6-14.7-17.4-29.9-26.7-44.2c-24.7-38.1-55-72.1-89.9-101.1c-23.2-19.3-50-32.4-78.4-46.4c-6-2.9-12.2-6-18.3-9.1l-220.4-111.1
			l0,0c-1.5-0.7-3.4-1.7-6-3l-523.1-264.4l-28.4-14.6c-54.8-24.4-108.8-52.8-161-80.3c-31.8-16.8-64.8-34.1-97.3-50.2
			c-92.4-46.2-175.9-92.4-255.5-141.4c-6.3-3.9-12.6-7.8-19-11.6c-60.6-37.2-123.2-75.6-179.6-119.9c-34-26.7-59.8-53.4-75.1-97
			c-12.8-36.3-16.7-77.8-11.7-126.9c4.9-48.8,28.3-95,66-130c27.9-25.9,63.3-42.4,97.4-58.3c15.5-7.2,30.2-14,43.9-21.6l0.7-0.4
			c3.8-1.9,7.7-3.9,11.6-5.9c37.9-20,76.1-44.1,113.4-71.7c9.5-7,19.3-14.5,29-22.1c68.3-53.8,132-115.9,193.6-175.9l0.3-0.3
			c15.5-15.1,31.4-30.2,46.7-44.7c16-15.2,32.6-31,48.6-46.6c14-13.6,28.7-26.1,43-38.2c12.8-10.9,26.1-22.1,38.3-33.8
			c1.5-1.5,3.1-2.9,4.7-4.5c12.1-11.3,25.8-24.2,28.3-37.5c2.2-11.7-3.7-21.9-20.5-35.2l-0.9-0.7c-30.8-24.5-77.5-61.5-68-114.5
			c6.8-37.9,34.3-63.9,58.6-86.8c3.9-3.7,7.7-7.2,11.2-10.7c48.7-47.7,111.1-84.2,175.8-102.7c24.3-6.9,50.4-13.6,77.1-15.6
			c34.1-2.5,62.1,3.8,83,18.7c1.6,1.1,174.4,124.4,174.4,124.4l694.9,500.9c2.4,1.6,4.8,3.2,7.1,4.7c31.2,21.4,65.4,48.2,81.8,84.9
			c13.5,30.2,19.4,65.4,18.5,110.8c-1.5,76.6-5.7,143.9-12.8,205.6c-1.1,9.3-2.2,18.6-3.3,27.5c-6.6,52.6-12.8,102.3,1.1,154.4
			c16.8,63,55.5,113.4,100.5,168.1c11.1,13.5,22.3,27,33.4,40.6c16.6,20.2,33.3,40.4,49.9,60.6c43,52.2,88.2,107.4,138.3,168.9
			c13.7,16.8,44.5,60.1,35.7,100c-2.9,13.4-11.7,31.9-36.9,44.2c-24.1,11.8-50.4,19.8-75.9,27.6c-12.7,3.9-24.7,7.5-36.3,11.6
			c-15.2,5.3-30.9,10.8-46.1,16.2c-21.6,7.6-44,15.5-65.4,22.9c-18.5,6.4-33.7,23.2-26,46.4c7,20.9,33,29.8,58.3,38.5
			c4.8,1.6,9.7,3.3,14.3,5c85.4,31.7,174.2,51,263.7,57.6c43,3.2,79.1-12.1,107.3-45.2c0.6-0.8,469.5-553.1,489.4-576.6l0.1-0.1
			l431.6-501.4l0.3-0.3c32-33.8,53.6-70.9,62.5-107.4c10-41,3.5-79.5-19.3-114.2c-22.6-34.4-55.7-49.6-101.3-46.3
			c-4.9,0.3-9.7,0.6-14.4,0.9c-69.6,3.2-146.9-0.8-192-55.4c-42.1-50.9-45.5-125.7-8-177.8c30.8-42.9,76.3-62.8,131.7-57.5
			c38.3,3.6,68.5,18.3,72.3,20.2c18.8,8.9,38,17.8,56.6,26.4c16.5,7.6,33.5,15.5,50.2,23.4c9.5,4.5,19.2,9,28.6,13.4
			c72.8,33.9,148,68.9,211.9,120.5c50.6,40.8,92.9,84.7,125.6,130.5c36.8,51.4,62.9,106.9,77.6,165c4.5,18,8.5,37.1,12.1,58.5
			c9.8,58.6,16.2,118.6,22.4,176.6c3.5,33,7.2,67.2,11.4,100.5c13.4,106.2,25.2,200.1,36,286.9c2.8,22.3,5,45,7.1,66.9
			c1.1,10.8,2.1,22.1,3.3,33l17.5,168.1c7.6,73.5,15.5,149.4-19.9,223.8c-28.8,60.3-86.6,91.7-127.5,110l-1.1,0.5
			c-11.4,4.3-22.9,8.6-34.1,12.9c-37.5,14.2-76.3,29-115.6,41.8l-6.8,2.2c-87.2,28.5-177.3,58.1-268,71.5
			c-80.8,11.9-169.8,21.1-280.3,28.8l-0.2,0l-225.8,14l-0.2,0c-39.1,1.4-80.4,4-118.4,13.2c-39.9,9.7-80.8,31.4-125,66.4
			c-36.8,29.4-81.9,45-126.9,43.7c-40.9-1.2-82.8-16.2-119.9-29.5c-7.9-2.9-15.5-5.6-22.9-8.1c-12-4.1-24-8.8-35.7-13.3
			c-24.2-9.4-47-18.3-70.7-23c-32-6.3-64.5-7.5-96.6-3.6c-48.6,5.9-86.7,34.5-126.9,64.9C2569.3,2989.1,2521.2,3025.4,2455.3,3025.4
			z M2442.9,2986.8c59.6,5,103.6-28.1,150.2-63.2c42.5-32,86.5-65.2,145.2-72.3c36.1-4.4,72.6-3,108.5,4c27,5.3,52.5,15.2,77.2,24.9
			c11.8,4.6,22.9,8.9,34.2,12.8c7.7,2.6,15.7,5.5,23.4,8.3c36,12.9,73.2,26.3,108.1,27.3c36,1,72.3-11.6,102.1-35.4l0.1-0.1
			c48.6-38.5,94.3-62.5,139.7-73.5c41.2-10,84.8-12.8,125.7-14.3l225.2-13.9c109.5-7.7,197.6-16.7,277.4-28.5
			c87.5-12.9,176-41.9,261.7-70l6.8-2.2c38.5-12.6,76.9-27.2,114-41.3c11-4.2,22.4-8.5,33.6-12.7c56.1-25.2,90.5-54.3,108.2-91.5
			c30.9-64.7,23.9-132.1,16.4-203.5l-17.5-168.1c-1.2-11.1-2.3-22.4-3.3-33.3c-2.1-21.7-4.3-44.1-7-65.9
			c-10.8-86.8-22.6-180.7-36-286.8c-4.3-33.7-7.9-68-11.5-101.2c-6.1-57.5-12.5-116.9-22.1-174.4c-3.4-20.4-7.1-38.5-11.4-55.4
			c-13.5-53.5-37.7-104.7-71.7-152.2c-30.8-43-70.7-84.4-118.6-123c-60.3-48.6-133.4-82.7-204.1-115.6c-9.4-4.4-19.2-9-28.8-13.5
			c-16.6-7.8-33.6-15.7-50-23.3c-18.7-8.7-38.1-17.7-57.2-26.7l-0.6-0.3c-0.2-0.1-26.8-13.5-59.8-16.4c-41.3-3.6-73.7,10.5-96.2,42
			c-27.5,38.3-24.8,93.6,6.5,131.4c34.4,41.7,100.7,44.4,161,41.6c4.3-0.2,8.9-0.5,13.4-0.8c58.8-4.2,105.8,17.7,135.7,63.4
			c28.4,43.3,36.9,93.2,24.4,144.1c-10.4,42.7-35.1,85.6-71.5,124.1l-431,500.7c-6.1,7.2-488.4,575.4-489.4,576.6
			c-35.9,42.3-84,62.6-139,58.5c-93.1-6.8-185.4-27-274.2-59.9c-4.2-1.6-8.7-3.1-13.4-4.7c-30.8-10.5-69.1-23.6-82-62.4
			c-13.4-40.1,7.5-79.8,49.6-94.4c21.3-7.4,43.6-15.2,65.2-22.8c15.2-5.3,30.9-10.9,46.2-16.2c12.4-4.3,25.3-8.2,37.8-12
			c24.1-7.3,48.9-14.9,70.3-25.3c12.6-6.1,15.4-13.3,16.5-18.2c3.5-16-7.5-42.6-28.1-67.9c-50-61.4-95.2-116.6-138.1-168.7
			c-16.7-20.2-33.3-40.4-50-60.7c-11.1-13.5-22.2-27-33.4-40.5c-46.2-56.1-89.2-112.2-107.9-182.5c-15.8-59.3-9.1-112.5-2.1-168.9
			c1.1-8.9,2.3-18,3.3-27.1c6.9-60.5,11-126.6,12.5-202c0.8-39.5-4-69.5-15.2-94.5c-12.6-28.1-41.8-50.7-68.6-69.1
			c-2.2-1.5-4.4-3-6.8-4.5l-0.7-0.5L1701,763.5c0,0-172.7-123.2-174.3-124.3c-34.1-24.3-97.2-6.3-127.6,2.4
			c-58.7,16.8-115.4,49.9-159.7,93.3c-3.8,3.8-7.9,7.6-11.8,11.2c-21,19.8-42.7,40.3-47.3,65.9c-5.5,30.6,27.6,56.9,54.2,78l0.9,0.7
			c10.3,8.2,41.5,33,34.2,72c-4.8,25.5-24.1,43.6-39.7,58.2c-1.5,1.4-3,2.9-4.5,4.3c-13,12.4-26.7,24-40,35.3
			c-13.8,11.7-28.1,23.8-41.1,36.4c-16.2,15.8-32.9,31.6-49,47c-15.3,14.5-31.1,29.5-46.3,44.4l-0.3,0.3
			c-62.3,60.7-126.7,123.5-196.6,178.6c-10,7.9-20.1,15.6-29.9,22.8c-38.8,28.7-78.6,53.8-118.3,74.7c-4,2.1-8,4.2-12,6.1
			c-14.7,8.1-30.5,15.5-45.8,22.6c-31.5,14.7-64.1,29.8-87.6,51.7c-30.5,28.3-50.2,66.9-54.1,105.9c-4.3,43.4-1.1,79.6,9.8,110.5
			c12.4,35,33.2,56.5,62.8,79.7c54.6,43,116.3,80.8,175.9,117.4c6.4,3.9,12.7,7.8,19,11.7c78.6,48.4,161.2,94.1,252.5,139.7
			c32.9,16.3,66,33.7,98.1,50.6c51.8,27.3,105.4,55.5,159.2,79.4l0.9,0.5l28.9,14.8c8,4,527.8,266.8,528.9,267.3l220.4,111.1
			c6,3,12.1,6,18,8.9c29.1,14.3,59.3,29.1,85.9,51.3c37.8,31.5,70.6,68.3,97.4,109.6c9.8,15,18.9,30.6,27.7,45.7
			c15.6,26.8,30.4,52.1,48.8,75.1C2367.1,2959.8,2405.1,2982.6,2442.9,2986.8z"/>
	</g>
	<g>
		<g>
			<g>
				
					<rect x="1820.7" y="633" transform="matrix(0.5806 -0.8142 0.8142 0.5806 241.3964 1769.2517)" class="st3" width="34.7" height="34.7"/>
			</g>
			<g>
				
					<rect x="1869" y="624.9" transform="matrix(0.5806 -0.8142 0.8142 0.5806 268.2673 1805.2201)" class="st3" width="34.7" height="34.7"/>
			</g>
			<g>
				
					<rect x="1828.8" y="681.3" transform="matrix(0.5806 -0.8142 0.8142 0.5806 205.4253 1796.1222)" class="st3" width="34.7" height="34.7"/>
			</g>
			<g>
				
					<rect x="1877.1" y="673.2" transform="matrix(0.5806 -0.8142 0.8142 0.5806 232.3004 1832.0966)" class="st3" width="34.7" height="34.7"/>
			</g>
			<g>
				
					<rect x="1925.5" y="665.1" transform="matrix(0.5806 -0.8142 0.8142 0.5806 259.1693 1868.0621)" class="st3" width="34.7" height="34.7"/>
			</g>
			<g>
				
					<rect x="1885.2" y="721.6" transform="matrix(0.5806 -0.8142 0.8142 0.5806 196.3274 1858.9642)" class="st3" width="34.7" height="34.7"/>
			</g>
			<g>
				
					<rect x="1933.6" y="713.5" transform="matrix(0.5806 -0.8142 0.8142 0.5806 223.1993 1894.9341)" class="st3" width="34.7" height="34.7"/>
			</g>
		</g>
		<g>
			<g>
				<rect x="1840.8" y="604.8" transform="matrix(0.5806 -0.8142 0.8142 0.5806 272.8148 1773.797)" width="34.7" height="34.7"/>
			</g>
			<g>
				<rect x="1800.5" y="661.2" transform="matrix(0.5806 -0.8142 0.8142 0.5806 209.9739 1764.7006)" width="34.7" height="34.7"/>
			</g>
			<g>
				<rect x="1848.9" y="653.1" transform="matrix(0.5806 -0.8142 0.8142 0.5806 236.8448 1800.6689)" width="34.7" height="34.7"/>
			</g>
			<g>
				<rect x="1897.2" y="645" transform="matrix(0.5806 -0.8142 0.8142 0.5806 263.7179 1836.6405)" width="34.7" height="34.7"/>
			</g>
			<g>
				<rect x="1857" y="701.5" transform="matrix(0.5806 -0.8142 0.8142 0.5806 200.8804 1827.5493)" width="34.7" height="34.7"/>
			</g>
			<g>
				<rect x="1905.3" y="693.4" transform="matrix(0.5806 -0.8142 0.8142 0.5806 227.7483 1863.5132)" width="34.7" height="34.7"/>
			</g>
			<g>
				<rect x="1953.7" y="685.3" transform="matrix(0.5806 -0.8142 0.8142 0.5806 254.6247 1899.4894)" width="34.7" height="34.7"/>
			</g>
			<g>
				<rect x="1913.4" y="741.7" transform="matrix(0.5806 -0.8142 0.8142 0.5806 191.7795 1890.387)" width="34.7" height="34.7"/>
			</g>
		</g>
	</g>
	<g>
		<g>
			<polygon points="2172,934.8 2173.6,944.1 2220,936.1 2211.9,889.7 2202.6,891.3 2209.1,928.4 			"/>
		</g>
		<g>
			<polygon points="2141,921.1 2187.3,913.1 2179.3,866.7 2170,868.3 2176.4,905.4 2139.4,911.8 			"/>
		</g>
		<g>
			<polygon points="2102.9,886.1 2104.5,895.4 2150.8,887.3 2142.8,841 2133.5,842.6 2139.9,879.7 			"/>
		</g>
	</g>
	<g>
		<path class="st4" d="M2455.3,3020.4c-5.2,0-10.4-0.2-15.8-0.7l-0.5,0c-47.8-5.3-95.2-33.2-130-76.6c-20.2-25.2-36.4-52.9-52-79.7
			c-8.6-14.7-17.4-29.9-26.7-44.2c-24.7-38.1-55-72.1-89.9-101.1c-23.2-19.3-50-32.4-78.4-46.4c-6-2.9-12.2-6-18.3-9.1l-85.6-43.1
			l17.1-33.9l85.6,43.1c6,3,12.1,6,18,8.9c29.1,14.3,59.3,29.1,85.9,51.3c37.8,31.5,70.6,68.3,97.4,109.6
			c9.8,15,18.9,30.6,27.7,45.7c15.6,26.8,30.4,52.1,48.8,75.1c28.5,35.5,66.5,58.3,104.3,62.6c59.6,5,103.6-28.1,150.2-63.2
			c42.5-32,86.5-65.2,145.2-72.3c36.1-4.4,72.6-3,108.5,4c27,5.3,52.5,15.2,77.2,24.8c11.8,4.6,22.9,8.9,34.2,12.8
			c7.7,2.6,15.7,5.5,23.4,8.3c36,12.9,73.2,26.3,108.1,27.3c36,1,72.3-11.6,102.1-35.4l0.1-0.1c48.6-38.5,94.3-62.5,139.7-73.5
			c41.2-10,84.8-12.8,125.7-14.3l225.2-13.9c109.5-7.7,197.6-16.7,277.4-28.5c87.5-12.9,176-41.9,261.7-70l6.8-2.2
			c38.5-12.6,76.9-27.2,114-41.3c11-4.2,22.4-8.5,33.6-12.7c56.1-25.2,90.5-54.3,108.3-91.5c30.9-64.7,23.9-132.1,16.4-203.5
			l-17.5-168.1c-1.2-11.1-2.3-22.4-3.3-33.3c-2.1-21.7-4.3-44.1-7-65.9c-10.8-86.8-22.6-180.7-36-286.8c-4.3-33.7-7.9-68-11.5-101.2
			c-6.1-57.5-12.5-116.9-22.1-174.4c-3.4-20.4-7.1-38.5-11.4-55.4c-13.5-53.5-37.7-104.7-71.7-152.2c-30.8-43-70.7-84.4-118.6-123
			c-60.3-48.6-133.4-82.7-204.1-115.6c-9.4-4.4-19.2-9-28.8-13.5c-16.6-7.8-33.6-15.7-50-23.3c-18.7-8.7-38.1-17.7-57.2-26.7
			l-0.6-0.3c-0.2-0.1-26.8-13.5-59.8-16.4c-41.3-3.6-73.7,10.5-96.2,42c-27.5,38.3-24.8,93.6,6.5,131.4
			c19.3,23.4,53.6,46.6,161,41.6c4.3-0.2,8.9-0.5,13.4-0.8c58.8-4.2,105.8,17.7,135.7,63.4c28.4,43.3,36.9,93.2,24.4,144.1
			c-10.4,42.7-35.1,85.6-71.5,124.1l-431,500.7l-34.7,40.9l-29-24.6l34.8-41l431.6-501.4l0.3-0.3c32-33.8,53.6-70.9,62.5-107.4
			c10-41,3.5-79.5-19.3-114.2c-22.6-34.4-55.7-49.6-101.3-46.3c-4.9,0.3-9.7,0.6-14.4,0.9c-69.6,3.2-146.9-0.8-192-55.4
			c-42.1-50.9-45.5-125.7-8-177.8c30.8-42.9,76.3-62.8,131.7-57.5c38.3,3.6,68.5,18.3,72.3,20.2c18.8,8.9,38,17.8,56.6,26.4
			c16.5,7.6,33.5,15.5,50.2,23.4c9.5,4.5,19.2,9,28.6,13.4c72.8,33.9,148,68.9,211.9,120.5c50.6,40.8,92.9,84.7,125.6,130.5
			c36.8,51.4,62.9,106.9,77.6,165c4.5,18,8.5,37.1,12.1,58.5c9.8,58.6,16.2,118.6,22.4,176.6c3.5,33,7.2,67.2,11.4,100.5
			c13.4,106.2,25.2,200.1,36,286.9c2.8,22.3,5,45,7.1,66.9c1.1,10.8,2.1,22.1,3.3,33l17.5,168.1c7.6,73.5,15.5,149.4-19.9,223.8
			c-28.8,60.3-86.6,91.7-127.5,110l-1.1,0.5c-11.4,4.3-22.9,8.6-34.1,12.9c-37.5,14.2-76.3,29-115.6,41.8l-6.8,2.2
			c-87.2,28.5-177.3,58.1-268,71.5c-80.8,11.9-169.8,21.1-280.3,28.8l-0.2,0l-225.8,14l-0.2,0c-39.1,1.4-80.4,4-118.4,13.2
			c-39.9,9.7-80.9,31.4-125.1,66.4c-36.8,29.4-81.8,45-126.8,43.7c-40.9-1.2-82.8-16.2-119.9-29.5c-8-2.9-15.5-5.6-22.9-8.1
			c-12-4.1-24-8.8-35.7-13.3c-24.2-9.4-47-18.3-70.7-23c-32-6.3-64.5-7.5-96.6-3.6c-48.6,5.9-86.7,34.5-126.9,64.9
			C2569.3,2984.1,2521.2,3020.4,2455.3,3020.4z"/>
	</g>
	<g>
		<path class="st5" d="M1958.1,2619.5l-134.8-67.9l0,0c-1.5-0.7-3.4-1.7-6-3l-523.1-264.4l-28.4-14.6
			c-54.8-24.4-108.7-52.8-161-80.3c-31.8-16.8-64.8-34.1-97.3-50.2c-92.4-46.2-175.9-92.4-255.5-141.4c-6.3-3.9-12.6-7.8-19-11.7
			c-60.6-37.2-123.2-75.6-179.6-119.9c-34-26.7-59.8-53.4-75.1-97c-12.8-36.3-16.7-77.8-11.7-126.9c4.9-48.8,28.3-95,66-130
			c27.9-25.9,63.3-42.4,97.4-58.3c15.5-7.2,30.2-14,43.9-21.6l0.7-0.4c3.8-1.9,7.7-3.9,11.6-5.9c37.9-20,76.1-44.1,113.4-71.7
			c9.5-7,19.3-14.5,29-22.1c68.3-53.8,132-115.9,193.6-175.9l0.3-0.3c15.5-15.1,31.4-30.2,46.7-44.7c16-15.2,32.6-31,48.6-46.6
			c14-13.6,28.7-26.1,43-38.2c12.8-10.9,26.1-22.1,38.3-33.8c1.5-1.5,3.1-2.9,4.7-4.5c12.1-11.3,25.8-24.2,28.3-37.5
			c2.2-11.7-3.7-21.9-20.5-35.2l-0.9-0.7c-30.8-24.5-77.5-61.5-68-114.5c6.8-37.9,34.3-63.9,58.6-86.8c3.9-3.7,7.7-7.2,11.2-10.7
			c48.7-47.7,111.1-84.2,175.8-102.7c24.3-6.9,50.4-13.6,77.1-15.6c34.1-2.5,62.1,3.8,83,18.7c1.6,1.1,174.4,124.4,174.4,124.4
			l97.6,70.3l-22.2,30.8l-97.5-70.3l0,0c0,0-172.7-123.2-174.3-124.3c-34.1-24.3-97.2-6.3-127.6,2.4
			c-58.7,16.8-115.4,49.9-159.7,93.3c-3.8,3.8-7.9,7.6-11.8,11.2c-21,19.8-42.7,40.3-47.3,65.9c-5.5,30.6,27.6,56.9,54.2,78l0.9,0.7
			c10.3,8.2,41.5,33,34.2,72c-4.8,25.5-24.1,43.6-39.7,58.2c-1.5,1.4-3,2.9-4.5,4.3c-13,12.4-26.7,24-40,35.3
			c-13.8,11.7-28.1,23.8-41.1,36.4c-16.2,15.8-32.9,31.6-49,47c-15.3,14.5-31.1,29.5-46.3,44.4l-0.3,0.3
			c-62.3,60.7-126.7,123.5-196.6,178.6c-10,7.9-20.1,15.6-29.9,22.8c-38.8,28.7-78.6,53.8-118.3,74.7c-4,2.1-8,4.2-12,6.1
			c-14.7,8.1-30.5,15.5-45.8,22.6c-31.5,14.7-64.1,29.8-87.6,51.7c-30.5,28.3-50.2,66.9-54.1,105.9c-4.3,43.4-1.1,79.6,9.8,110.5
			c12.4,35,33.2,56.5,62.8,79.7c54.6,43,116.3,80.8,175.9,117.4c6.4,3.9,12.7,7.8,19,11.7c78.6,48.4,161.2,94.1,252.5,139.7
			c32.9,16.3,66,33.7,98.1,50.6c51.8,27.3,105.4,55.5,159.2,79.4l0.9,0.5l28.9,14.8c7.5,3.8,527.8,266.8,528.9,267.3l134.8,67.9
			L1958.1,2619.5z"/>
	</g>
	<g>
		<path class="st6" d="M2928.9,2662.8c-4.5,0-9-0.2-13.6-0.5c-93.1-6.8-185.4-27-274.2-59.9c-4.2-1.6-8.7-3.1-13.4-4.7
			c-30.8-10.5-69.1-23.6-82-62.4c-13.4-40.1,7.5-79.8,49.6-94.4c21.3-7.4,43.6-15.2,65.2-22.8c15.2-5.3,30.9-10.9,46.2-16.2
			c12.4-4.3,25.3-8.2,37.8-12c24.1-7.3,49-14.9,70.3-25.3c12.6-6.1,15.4-13.3,16.5-18.2c3.5-16-7.5-42.6-28.1-67.9
			c-50-61.4-95.2-116.6-138.1-168.7c-16.7-20.3-33.4-40.5-50.1-60.8c-11.1-13.5-22.2-26.9-33.2-40.4
			c-46.2-56.1-89.2-112.2-107.9-182.5c-15.8-59.3-9.1-112.5-2.1-168.9c1.1-8.9,2.3-18,3.3-27.1c6.9-60.5,11-126.6,12.5-202
			c0.8-39.5-4-69.5-15.2-94.5c-12.6-28.1-41.8-50.7-68.6-69.1c-2.2-1.5-4.4-3-6.8-4.5l-0.7-0.5l-597.7-430.8l22.2-30.8l597.3,430.5
			c2.4,1.6,4.8,3.2,7.1,4.7c31.2,21.4,65.4,48.2,81.8,84.9c13.5,30.2,19.4,65.4,18.5,110.8c-1.5,76.6-5.7,143.9-12.8,205.6
			c-1.1,9.3-2.2,18.6-3.3,27.5c-6.6,52.6-12.8,102.3,1.1,154.4c16.8,63,55.5,113.4,100.5,168.1c11.1,13.5,22.2,26.9,33.2,40.4
			c16.7,20.3,33.4,40.5,50.1,60.8c43,52.2,88.2,107.4,138.3,168.9c13.7,16.8,44.5,60.1,35.7,100c-2.9,13.4-11.7,31.9-36.9,44.2
			c-24.1,11.8-50.4,19.8-75.9,27.6c-12.7,3.9-24.7,7.5-36.3,11.6c-15.2,5.3-30.9,10.8-46.1,16.2c-21.6,7.6-44,15.5-65.4,22.9
			c-18.5,6.4-33.7,23.2-26,46.4c7,20.9,33,29.8,58.3,38.4c4.8,1.6,9.7,3.3,14.3,5c85.4,31.7,174.2,51,263.7,57.6
			c43,3.1,79.1-12.1,107.3-45.2l454.7-535.7l29,24.6l-454.7,535.7C3021.3,2642.6,2978.2,2662.8,2928.9,2662.8z"/>
	</g>
	<g>
		<g>
			<ellipse transform="matrix(0.9925 -0.1222 0.1222 0.9925 -136.4664 329.4442)" cx="2618" cy="1277.4" rx="90.2" ry="90.2"/>
		</g>
	</g>
	<g>
		<g>
			<path class="st3" d="M2627.9,1248.8v61.2h-14.2v-49.9h-12.2v-11.4H2627.9z"/>
		</g>
	</g>
	<g>
		<g>
			<circle cx="2364.9" cy="1876" r="90.2"/>
		</g>
	</g>
	<g>
		<g>
			<path class="st3" d="M2388.3,1897v11.6H2342v-9.2l23.6-22.3c2.5-2.4,4.2-4.4,5.1-6.2c0.9-1.7,1.3-3.4,1.3-5.1
				c0-2.4-0.8-4.3-2.5-5.6c-1.7-1.3-4.1-2-7.3-2c-2.7,0-5.1,0.5-7.3,1.5c-2.2,1-4,2.6-5.4,4.6l-10.3-6.6c2.4-3.6,5.7-6.3,9.9-8.4
				c4.2-2,9-3,14.4-3c4.5,0,8.5,0.7,11.9,2.2c3.4,1.5,6.1,3.6,8,6.3c1.9,2.7,2.8,5.9,2.8,9.6c0,3.3-0.7,6.4-2.1,9.4
				c-1.4,2.9-4.1,6.2-8.1,10l-14.1,13.3H2388.3z"/>
		</g>
	</g>
	<g>
		<g>
			<circle cx="2979.8" cy="2354.2" r="90.2"/>
		</g>
	</g>
	<g>
		<g>
			<path class="st3" d="M2998.3,2356.5c2.9,3.1,4.3,7,4.3,11.6c0,3.6-0.9,6.8-2.8,9.8s-4.7,5.4-8.5,7.2c-3.8,1.8-8.5,2.7-14,2.7
				c-4.3,0-8.6-0.6-12.7-1.7c-4.2-1.1-7.7-2.8-10.6-4.9l5.5-10.9c2.3,1.8,5,3.1,8.1,4.1c3.1,1,6.2,1.4,9.4,1.4
				c3.6,0,6.4-0.7,8.4-2.1c2-1.4,3.1-3.3,3.1-5.8c0-5-3.8-7.5-11.5-7.5h-6.5v-9.4l12.6-14.3h-26.1v-11.4h42.9v9.2l-13.8,15.8
				C2991.3,2351.4,2995.4,2353.4,2998.3,2356.5z"/>
		</g>
	</g>
	<g>
		<g>
			<circle cx="2429.6" cy="2530.5" r="90.2"/>
		</g>
	</g>
	<g>
		<g>
			<path class="st3" d="M2459,2550.3h-10v12.9h-13.8v-12.9h-33v-9.5l28.9-38.8h14.9l-26.8,36.8h16.4v-11.5h13.4v11.5h10V2550.3z"/>
		</g>
	</g>
	<g>
		<g>
			<ellipse transform="matrix(0.7071 -0.7071 0.7071 0.7071 -1055.1207 2970.0935)" cx="3057.7" cy="2758.7" rx="90.2" ry="90.2"/>
		</g>
	</g>
	<g>
		<g>
			<path class="st3" d="M3075.2,2758.2c4.1,3.4,6.2,8.1,6.2,13.8c0,3.7-0.9,7.1-2.8,10.2c-1.9,3.1-4.7,5.5-8.5,7.4
				s-8.5,2.8-14.1,2.8c-4.3,0-8.6-0.6-12.7-1.7c-4.2-1.1-7.7-2.8-10.6-4.9l5.6-10.9c2.3,1.8,5,3.1,8.1,4.1c3,1,6.2,1.4,9.4,1.4
				c3.6,0,6.4-0.7,8.4-2.1c2-1.4,3.1-3.4,3.1-5.9c0-2.6-1.1-4.6-3.2-6c-2.1-1.3-5.8-2-11.1-2h-15.7l3.1-34.5h37.4v11.4H3052l-1,11.6
				h5C3064.7,2753.1,3071,2754.8,3075.2,2758.2z"/>
		</g>
	</g>
	<g>
		<g>
			<ellipse transform="matrix(0.7071 -0.7071 0.7071 0.7071 178.5375 3148.8743)" cx="3890.3" cy="1358.9" rx="90.2" ry="90.2"/>
		</g>
	</g>
	<g>
		<g>
			<path class="st3" d="M3906,1355.5c3.2,1.6,5.7,3.8,7.6,6.7c1.9,2.9,2.8,6.2,2.8,10c0,4.1-1,7.7-3.1,10.8c-2,3.1-4.8,5.5-8.4,7.1
				c-3.5,1.7-7.5,2.5-11.8,2.5c-8.6,0-15.3-2.6-20.1-7.9c-4.8-5.3-7.3-12.7-7.3-22.5c0-6.9,1.3-12.9,3.9-17.8c2.6-5,6.3-8.7,11-11.3
				c4.7-2.6,10.1-3.8,16.3-3.8c3.3,0,6.4,0.4,9.4,1.1c3,0.7,5.6,1.8,7.7,3.1l-5.3,10.4c-3-2-6.9-3.1-11.5-3.1
				c-5.2,0-9.3,1.5-12.3,4.6c-3,3-4.7,7.4-4.9,13.2c3.6-3.6,8.7-5.4,15.1-5.4C3899.2,1353.1,3902.8,1353.9,3906,1355.5z
				 M3899.8,1379.6c1.9-1.6,2.8-3.9,2.8-6.6c0-2.8-1-5-2.8-6.7c-1.9-1.7-4.4-2.5-7.6-2.5c-3.1,0-5.6,0.9-7.6,2.6c-2,1.7-3,3.9-3,6.6
				s1,4.9,2.9,6.6c1.9,1.7,4.5,2.5,7.9,2.5C3895.5,1382,3897.9,1381.2,3899.8,1379.6z"/>
		</g>
	</g>
	<g>
		<g>
			<ellipse transform="matrix(0.7071 -0.7071 0.7071 0.7071 314.4098 2806.7075)" cx="3545.2" cy="1023.8" rx="90.2" ry="90.2"/>
		</g>
	</g>
	<g>
		<g>
			<path class="st3" d="M3569.4,995.2v9.2l-22.7,52.1h-15.4l22-49.7H3533v10h-12.6v-21.5H3569.4z"/>
		</g>
	</g>
	<g>
		<g>
			<ellipse transform="matrix(0.7071 -0.7071 0.7071 0.7071 -481.7454 4032.4023)" cx="4626.7" cy="2597.7" rx="90.2" ry="90.2"/>
		</g>
	</g>
	<g>
		<g>
			<path class="st3" d="M4643.9,2575.9c4.8,5.2,7.3,12.7,7.3,22.5c0,6.9-1.3,12.9-3.9,17.8c-2.6,5-6.2,8.7-11,11.3
				c-4.7,2.6-10.2,3.9-16.4,3.9c-3.3,0-6.4-0.4-9.4-1.1c-3-0.7-5.5-1.8-7.6-3.1l5.2-10.4c3,2,6.8,3.1,11.5,3.1
				c5.2,0,9.3-1.5,12.3-4.6c3-3.1,4.7-7.5,4.9-13.3c-3.7,3.7-8.8,5.5-15.2,5.5c-3.9,0-7.5-0.8-10.7-2.4c-3.2-1.6-5.7-3.8-7.6-6.7
				s-2.8-6.2-2.8-10c0-4.1,1-7.7,3.1-10.8c2-3.1,4.8-5.5,8.4-7.1c3.5-1.7,7.4-2.5,11.8-2.5C4632.3,2568,4639,2570.7,4643.9,2575.9z
				 M4632.4,2594.3c2-1.7,2.9-3.9,2.9-6.6c0-2.7-1-4.9-2.8-6.6c-1.9-1.7-4.5-2.5-7.8-2.5c-3,0-5.5,0.8-7.4,2.5
				c-1.9,1.6-2.8,3.8-2.8,6.6c0,2.8,0.9,5,2.8,6.7c1.9,1.7,4.4,2.5,7.6,2.5C4627.9,2596.9,4630.4,2596.1,4632.4,2594.3z"/>
		</g>
	</g>
	<g>
		<g>
			<ellipse transform="matrix(0.7071 -0.7071 0.7071 0.7071 -1105.3781 3255.8271)" cx="3377.4" cy="2962.2" rx="90.2" ry="90.2"/>
		</g>
	</g>
	<g>
		<g>
			<path class="st3" d="M3357.6,2933.6v61.2h-14.2V2945h-12.2v-11.4H3357.6z"/>
		</g>
		<g>
			<path class="st3" d="M3381,2992.1c-4-2.5-7.1-6.1-9.3-10.9s-3.4-10.4-3.4-17s1.1-12.3,3.4-17s5.4-8.4,9.3-10.9
				c4-2.5,8.5-3.8,13.6-3.8c5.1,0,9.6,1.3,13.6,3.8c4,2.5,7.1,6.1,9.3,10.9s3.4,10.4,3.4,17s-1.1,12.3-3.4,17s-5.4,8.4-9.3,10.9
				c-4,2.5-8.5,3.8-13.6,3.8C3389.5,2995.9,3385,2994.6,3381,2992.1z M3403.3,2979.1c2.1-3.2,3.2-8.2,3.2-14.9s-1.1-11.7-3.2-14.9
				c-2.1-3.2-5.1-4.8-8.8-4.8c-3.7,0-6.6,1.6-8.7,4.8c-2.1,3.2-3.2,8.2-3.2,14.9s1.1,11.7,3.2,14.9c2.1,3.2,5,4.8,8.7,4.8
				C3398.3,2983.9,3401.2,2982.3,3403.3,2979.1z"/>
		</g>
	</g>
	<g>
		<g>
			<circle cx="3101.3" cy="3076.4" r="90.2"/>
		</g>
	</g>
	<g>
		<g>
			<path class="st3" d="M3094.1,3047.7v61.2h-14.2v-49.9h-12.2v-11.4H3094.1z"/>
		</g>
		<g>
			<path class="st3" d="M3128.4,3047.7v61.2h-14.2v-49.9H3102v-11.4H3128.4z"/>
		</g>
	</g>
	<g>
		<g>
			<circle cx="2774.8" cy="3011.3" r="90.2"/>
		</g>
	</g>
	<g>
		<g>
			<path class="st3" d="M2758.9,2982.7v61.2h-14.2v-49.9h-12.2v-11.4H2758.9z"/>
		</g>
		<g>
			<path class="st3" d="M2815.3,3032.4v11.6H2769v-9.2l23.6-22.3c2.5-2.4,4.2-4.4,5.1-6.2c0.9-1.7,1.3-3.4,1.3-5.1
				c0-2.4-0.8-4.3-2.5-5.6c-1.7-1.3-4.1-2-7.3-2c-2.7,0-5.1,0.5-7.3,1.5c-2.2,1-4,2.6-5.4,4.6l-10.3-6.6c2.4-3.6,5.7-6.3,9.9-8.4
				c4.2-2,9-3,14.4-3c4.5,0,8.5,0.7,11.9,2.2c3.4,1.5,6.1,3.6,8,6.3s2.8,5.9,2.8,9.6c0,3.3-0.7,6.4-2.1,9.4s-4.1,6.2-8.1,10
				l-14.1,13.3H2815.3z"/>
		</g>
	</g>
	<g>
		<g>
			<ellipse transform="matrix(0.7071 -0.7071 0.7071 0.7071 -1527.9664 2623.9822)" cx="2403.4" cy="3156.4" rx="90.2" ry="90.2"/>
		</g>
	</g>
	<g>
		<g>
			<path class="st3" d="M2387.4,3127.8v61.2h-14.2v-49.9H2361v-11.4H2387.4z"/>
		</g>
		<g>
			<path class="st3" d="M2439.1,3158.7c2.9,3.1,4.3,7,4.3,11.6c0,3.6-0.9,6.8-2.8,9.8c-1.9,3-4.7,5.4-8.5,7.2
				c-3.8,1.8-8.5,2.7-14,2.7c-4.3,0-8.6-0.6-12.7-1.7c-4.2-1.1-7.7-2.8-10.6-4.9l5.5-10.9c2.3,1.8,5,3.1,8.1,4.1
				c3.1,1,6.2,1.4,9.4,1.4c3.6,0,6.4-0.7,8.4-2.1c2-1.4,3.1-3.3,3.1-5.8c0-5-3.8-7.5-11.5-7.5h-6.5v-9.4l12.6-14.3h-26.1v-11.4h42.9
				v9.2l-13.8,15.8C2432.1,3153.6,2436.2,3155.6,2439.1,3158.7z"/>
		</g>
	</g>
	<g>
		<g>
			<ellipse transform="matrix(0.7071 -0.7071 0.7071 0.7071 -1391.5076 2308.6833)" cx="2091.1" cy="2834" rx="90.2" ry="90.2"/>
		</g>
	</g>
	<g>
		<g>
			<path class="st3" d="M2070.8,2805.4v61.2h-14.2v-49.9h-12.2v-11.4H2070.8z"/>
		</g>
		<g>
			<path class="st3" d="M2137.6,2853.8h-10v12.9h-13.8v-12.9h-33v-9.5l28.9-38.8h14.9l-26.8,36.8h16.4v-11.5h13.4v11.5h10V2853.8z"
				/>
		</g>
	</g>
	<g>
		<g>
			<ellipse transform="matrix(0.7071 -0.7071 0.7071 0.7071 -1114.7732 745.3116)" cx="342.3" cy="1718.3" rx="90.2" ry="90.2"/>
		</g>
	</g>
	<g>
		<g>
			<path class="st3" d="M326.1,1689.7v61.2H312v-49.9h-12.2v-11.4H326.1z"/>
		</g>
		<g>
			<path class="st3" d="M376.9,1717.9c4.1,3.4,6.2,8.1,6.2,13.8c0,3.7-0.9,7.1-2.8,10.2c-1.9,3.1-4.7,5.5-8.5,7.4
				c-3.8,1.8-8.5,2.8-14.1,2.8c-4.3,0-8.6-0.6-12.7-1.7c-4.2-1.1-7.7-2.8-10.6-4.9l5.6-10.9c2.3,1.8,5,3.1,8.1,4.1
				c3,1,6.2,1.4,9.4,1.4c3.6,0,6.4-0.7,8.4-2.1c2-1.4,3.1-3.4,3.1-5.9c0-2.6-1.1-4.6-3.2-6s-5.8-2-11.1-2h-15.7l3.1-34.5h37.4v11.4
				h-25.5l-1,11.6h5C366.5,1712.7,372.8,1714.4,376.9,1717.9z"/>
		</g>
	</g>
	<g>
		<g>
			<circle cx="1390.9" cy="963.6" r="90.2"/>
		</g>
	</g>
	<g>
		<g>
			<path class="st3" d="M1372.9,935v61.2h-14.2v-49.9h-12.2V935H1372.9z"/>
		</g>
		<g>
			<path class="st3" d="M1423.8,960.2c3.2,1.6,5.7,3.8,7.6,6.7c1.9,2.9,2.8,6.2,2.8,10c0,4.1-1,7.7-3.1,10.8c-2,3.1-4.8,5.5-8.4,7.1
				c-3.5,1.7-7.5,2.5-11.8,2.5c-8.6,0-15.3-2.6-20.1-7.9c-4.8-5.3-7.3-12.8-7.3-22.5c0-6.9,1.3-12.9,3.9-17.8c2.6-5,6.3-8.7,11-11.3
				c4.7-2.6,10.1-3.8,16.3-3.8c3.3,0,6.4,0.4,9.4,1.1c3,0.7,5.6,1.8,7.7,3.1l-5.3,10.4c-3-2-6.9-3.1-11.5-3.1
				c-5.2,0-9.3,1.5-12.3,4.5c-3,3-4.7,7.4-4.9,13.2c3.6-3.6,8.7-5.4,15.1-5.4C1417,957.8,1420.6,958.6,1423.8,960.2z M1417.6,984.3
				c1.9-1.6,2.8-3.9,2.8-6.7c0-2.8-1-5-2.8-6.7c-1.9-1.7-4.4-2.5-7.6-2.5c-3.1,0-5.6,0.9-7.6,2.6c-2,1.7-3,3.9-3,6.6
				c0,2.7,1,4.9,2.9,6.6c1.9,1.7,4.5,2.5,7.9,2.5C1413.2,986.7,1415.7,985.9,1417.6,984.3z"/>
		</g>
	</g>
	<g>
		<g>
			<circle class="st1" cx="2771.7" cy="2214.9" r="42.7"/>
		</g>
	</g>
	<g>
		<g>
			<circle cx="2771.7" cy="2214.9" r="25.4"/>
		</g>
	</g>
	<g>
		<g>
			<rect x="2288.6" y="2211.8" width="483.2" height="6.2"/>
		</g>
	</g>
	<g>
		<g>
			<path d="M2288.6,2133.6h27.8c6.6,0,12.5,1.3,17.6,3.8c5.1,2.5,9.1,6.1,11.9,10.7c2.8,4.6,4.2,10,4.2,16.1
				c0,6.1-1.4,11.5-4.2,16.1c-2.8,4.6-6.8,8.2-11.9,10.7c-5.1,2.5-11,3.8-17.6,3.8h-27.8V2133.6z M2315.7,2183.2
				c6.1,0,11-1.7,14.7-5.1c3.6-3.4,5.5-8,5.5-13.9c0-5.8-1.8-10.5-5.5-13.9c-3.6-3.4-8.5-5.1-14.7-5.1h-13v38H2315.7z"/>
		</g>
		<g>
			<path d="M2399.9,2194.9l-11.8-17.1h-0.7H2375v17.1h-14.2v-61.2h26.5c5.4,0,10.1,0.9,14.1,2.7c4,1.8,7.1,4.4,9.2,7.7
				c2.2,3.3,3.2,7.3,3.2,11.8s-1.1,8.5-3.3,11.8c-2.2,3.3-5.3,5.8-9.3,7.6l13.7,19.7H2399.9z M2396.3,2147.9
				c-2.2-1.8-5.5-2.8-9.7-2.8H2375v21.4h11.6c4.3,0,7.5-0.9,9.7-2.8c2.2-1.9,3.3-4.5,3.3-7.9
				C2399.6,2152.4,2398.5,2149.8,2396.3,2147.9z"/>
		</g>
		<g>
			<path d="M2431.2,2193.9c-4.5-1.3-8.1-3-10.9-5.1l4.8-10.7c2.6,1.9,5.7,3.5,9.4,4.6c3.6,1.2,7.2,1.8,10.9,1.8c4,0,7-0.6,8.9-1.8
				c1.9-1.2,2.9-2.8,2.9-4.8c0-1.5-0.6-2.7-1.7-3.6c-1.1-1-2.6-1.7-4.4-2.3c-1.8-0.6-4.2-1.2-7.2-1.9c-4.7-1.1-8.5-2.2-11.5-3.3
				c-3-1.1-5.5-2.9-7.7-5.3c-2.1-2.5-3.2-5.7-3.2-9.8c0-3.6,1-6.8,2.9-9.7c1.9-2.9,4.8-5.2,8.7-6.9c3.9-1.7,8.6-2.5,14.2-2.5
				c3.9,0,7.7,0.5,11.5,1.4c3.7,0.9,7,2.3,9.8,4l-4.4,10.8c-5.7-3.2-11.3-4.8-17-4.8c-4,0-6.9,0.6-8.8,1.9c-1.9,1.3-2.8,3-2.8,5.1
				c0,2.1,1.1,3.7,3.3,4.7c2.2,1,5.5,2,10,3c4.7,1.1,8.5,2.2,11.5,3.3c3,1.1,5.5,2.9,7.7,5.3c2.1,2.4,3.2,5.6,3.2,9.7
				c0,3.5-1,6.7-2.9,9.6c-2,2.9-4.9,5.2-8.8,6.9c-3.9,1.7-8.7,2.5-14.3,2.5C2440.4,2195.9,2435.7,2195.2,2431.2,2193.9z"/>
		</g>
	</g>
	<g>
		<g>
			
				<ellipse transform="matrix(0.9871 -0.1602 0.1602 0.9871 -422.5927 551.407)" class="st1" cx="3208.8" cy="2896.9" rx="42.7" ry="42.7"/>
		</g>
	</g>
	<g>
		<g>
			<ellipse transform="matrix(0.9239 -0.3827 0.3827 0.9239 -864.322 1448.4794)" cx="3208.8" cy="2896.9" rx="25.4" ry="25.4"/>
		</g>
	</g>
	<g>
		<g>
			<rect x="3205.7" y="2907.6" width="6.2" height="392.8"/>
		</g>
	</g>
	<g>
		<g>
			<path d="M3233.6,3238.1h27.8c6.6,0,12.5,1.3,17.6,3.8c5.1,2.5,9.1,6.1,11.9,10.7c2.8,4.6,4.2,10,4.2,16.1
				c0,6.1-1.4,11.5-4.2,16.1c-2.8,4.6-6.8,8.2-11.9,10.7c-5.1,2.5-11,3.8-17.6,3.8h-27.8V3238.1z M3260.7,3287.7
				c6.1,0,11-1.7,14.7-5.1c3.6-3.4,5.5-8,5.5-13.9s-1.8-10.5-5.5-13.9c-3.6-3.4-8.5-5.1-14.7-5.1h-13v38H3260.7z"/>
		</g>
		<g>
			<path d="M3344.9,3299.4l-11.8-17.1h-0.7H3320v17.1h-14.2v-61.2h26.5c5.4,0,10.1,0.9,14.1,2.7c4,1.8,7.1,4.4,9.2,7.7
				c2.2,3.3,3.2,7.3,3.2,11.8c0,4.6-1.1,8.5-3.3,11.8c-2.2,3.3-5.3,5.8-9.3,7.6l13.7,19.7H3344.9z M3341.3,3252.4
				c-2.2-1.8-5.5-2.8-9.7-2.8H3320v21.4h11.6c4.3,0,7.5-0.9,9.7-2.8c2.2-1.9,3.3-4.5,3.3-7.9
				C3344.6,3256.9,3343.5,3254.2,3341.3,3252.4z"/>
		</g>
		<g>
			<path d="M3376.3,3298.4c-4.5-1.3-8.1-3-10.9-5.1l4.8-10.7c2.6,1.9,5.7,3.5,9.4,4.6c3.6,1.2,7.2,1.8,10.9,1.8c4,0,7-0.6,8.9-1.8
				c1.9-1.2,2.9-2.8,2.9-4.8c0-1.5-0.6-2.7-1.7-3.6c-1.1-1-2.6-1.7-4.4-2.3c-1.8-0.6-4.2-1.2-7.2-1.9c-4.7-1.1-8.5-2.2-11.5-3.3
				c-3-1.1-5.5-2.9-7.7-5.3c-2.1-2.5-3.2-5.7-3.2-9.8c0-3.6,1-6.8,2.9-9.7c1.9-2.9,4.8-5.2,8.7-6.9c3.9-1.7,8.6-2.5,14.2-2.5
				c3.9,0,7.7,0.5,11.5,1.4c3.7,0.9,7,2.3,9.8,4l-4.4,10.8c-5.7-3.2-11.3-4.8-17-4.8c-4,0-6.9,0.6-8.8,1.9c-1.9,1.3-2.8,3-2.8,5.1
				s1.1,3.7,3.3,4.7c2.2,1,5.5,2,10,3c4.7,1.1,8.5,2.2,11.5,3.3c3,1.1,5.5,2.9,7.7,5.3c2.1,2.4,3.2,5.6,3.2,9.7c0,3.5-1,6.7-2.9,9.6
				c-2,2.9-4.9,5.2-8.8,6.9c-3.9,1.7-8.7,2.5-14.3,2.5C3385.5,3300.4,3380.8,3299.7,3376.3,3298.4z"/>
		</g>
	</g>
	<g>
		<g>
			<ellipse transform="matrix(0.7071 -0.7071 0.7071 0.7071 424.8279 3523.2537)" cx="4465.4" cy="1248.8" rx="90.2" ry="90.2"/>
		</g>
	</g>
	<g>
		<g>
			<path class="st3" d="M4488.8,1255.2c1.6,2.5,2.4,5.3,2.4,8.5c0,3.8-1.1,7.1-3.2,9.9c-2.2,2.8-5.2,5-9.1,6.6
				c-3.9,1.5-8.4,2.3-13.6,2.3c-5.1,0-9.6-0.8-13.5-2.3c-3.9-1.5-6.9-3.7-9-6.6s-3.2-6.1-3.2-9.9c0-3.2,0.8-6,2.4-8.5
				c1.6-2.4,3.9-4.4,6.9-5.9c-2.3-1.4-4-3.2-5.2-5.3c-1.2-2.1-1.8-4.6-1.8-7.3c0-3.6,1-6.6,3-9.3c2-2.6,4.7-4.7,8.3-6.1
				c3.6-1.4,7.6-2.1,12.2-2.1c4.7,0,8.8,0.7,12.4,2.1c3.6,1.4,6.4,3.5,8.4,6.1c2,2.6,3,5.7,3,9.3c0,2.7-0.6,5.2-1.8,7.3
				c-1.2,2.1-3,3.9-5.3,5.3C4484.8,1250.8,4487.2,1252.7,4488.8,1255.2z M4473.7,1269.7c2.1-1.6,3.1-3.7,3.1-6.4
				c0-2.7-1-4.8-3.1-6.4c-2.1-1.6-4.9-2.4-8.4-2.4c-3.5,0-6.3,0.8-8.3,2.4c-2,1.6-3.1,3.7-3.1,6.4c0,2.7,1,4.9,3.1,6.5
				c2,1.6,4.8,2.4,8.3,2.4C4468.8,1272.1,4471.7,1271.3,4473.7,1269.7z M4458.4,1231.6c-1.7,1.4-2.6,3.3-2.6,5.6
				c0,2.3,0.8,4.2,2.5,5.5c1.7,1.3,4,2,6.9,2c2.9,0,5.2-0.7,7-2c1.8-1.3,2.6-3.2,2.6-5.5c0-2.4-0.9-4.3-2.6-5.6
				c-1.7-1.4-4.1-2.1-7-2.1C4462.4,1229.6,4460.1,1230.2,4458.4,1231.6z"/>
		</g>
	</g>
	<g>
		<g>
			<path class="st4" d="M477.1,3635.1c-34.9,0-63.3-28.4-63.3-63.3V2677c0-34.9,28.4-63.3,63.3-63.3H1193c22,0,42.8,11.7,54.2,30.6
				l197,326.7c5.9,9.9,9.1,21.2,9.1,32.7v568.1c0,34.9-28.4,63.3-63.3,63.3H477.1 M477.1,3648.1h912.8c42.1,0,76.3-34.1,76.3-76.3
				v-568.1c0-13.9-3.8-27.5-11-39.4l-197-326.7c-13.8-22.9-38.6-36.9-65.3-36.9H477.1c-42.1,0-76.3,34.1-76.3,76.3v894.9
				C400.8,3614,435,3648.1,477.1,3648.1L477.1,3648.1z"/>
		</g>
	</g>
	<g>
		<g>
			<path d="M615.9,3207.4c0-19.1,9.5-28.7,28.6-28.7c19.1,0,28.7,9.6,28.7,28.7v18.9h-22.1v-18.9c0-5-2.2-7.5-6.5-7.5h-0.1
				c-4.3,0-6.4,2.5-6.4,7.5v11.8c0,5.4,5.7,12.2,17,20.3c12.1,8.6,18.2,19,18.2,31.1v16.5c0,19.2-9.5,28.8-28.6,28.8
				c-19.1,0-28.7-9.6-28.7-28.8v-18.9h22.1v18.9c0,5,2.2,7.5,6.6,7.5c4.3,0,6.5-2.5,6.5-7.5v-14.9c0-5.9-5.7-12.9-17-21.1
				c-12.1-8.6-18.2-19.2-18.2-31.6V3207.4z"/>
		</g>
		<g>
			<path d="M689.5,3180.8h22.1v133h-22.1V3180.8z"/>
		</g>
		<g>
			<path d="M729.3,3313.8v-133h22.1v111.8h30v21.2H729.3z"/>
		</g>
		<g>
			<path d="M831.6,3313.8h-28.7l-13.5-85.4l-6.3-47.6h22.3l11.8,104.2l11.8-104.2h22.3l-6.3,47.7L831.6,3313.8z"/>
		</g>
		<g>
			<path d="M862.6,3180.8h52.1v21.2h-30v34.7h25.8v21.3h-25.8v34.7h30v21.2h-52.1V3180.8z"/>
		</g>
		<g>
			<path d="M928.6,3180.8h29c17.8,0,26.7,9.6,26.7,28.8v19.6c0,12-4.8,19.8-14.5,23.4l21.3,61.2h-24.1l-15.1-57.2h-1.2v57.2h-22.1
				V3180.8z M950.7,3202v34.7h2.7c2.4,0,3.9-0.1,4.6-0.4c2.8-1.1,4.2-3.5,4.2-7.1v-19.6c0-5-2.2-7.6-6.5-7.6H950.7z"/>
		</g>
		<g>
			<path d="M1000.5,3207.4c0-19.1,9.5-28.7,28.6-28.7c19.1,0,28.7,9.6,28.7,28.7v18.9h-22.1v-18.9c0-5-2.2-7.5-6.5-7.5h-0.1
				c-4.3,0-6.4,2.5-6.4,7.5v11.8c0,5.4,5.7,12.2,17,20.3c12.1,8.6,18.2,19,18.2,31.1v16.5c0,19.2-9.5,28.8-28.6,28.8
				c-19.1,0-28.7-9.6-28.7-28.8v-18.9h22.1v18.9c0,5,2.2,7.5,6.6,7.5c4.3,0,6.5-2.5,6.5-7.5v-14.9c0-5.9-5.7-12.9-17-21.1
				c-12.1-8.6-18.2-19.2-18.2-31.6V3207.4z"/>
		</g>
		<g>
			<path d="M1125.8,3180.8v21.2h-17.6v111.8H1086V3202h-17.6v-21.2H1125.8z"/>
		</g>
		<g>
			<path d="M1193.7,3287.1c0,19.1-9.6,28.7-28.7,28.8c-19.1,0-28.6-9.6-28.6-28.8v-79.7c0-19.1,9.5-28.7,28.6-28.7
				c19.1,0,28.7,9.6,28.7,28.7V3287.1z M1171.6,3207.4c0-5-2.2-7.5-6.5-7.5h-0.1c-4.3,0-6.4,2.5-6.4,7.5v79.7c0,5,2.2,7.5,6.5,7.5
				c4.4,0,6.6-2.5,6.6-7.5V3207.4z"/>
		</g>
		<g>
			<path d="M1209.7,3180.8h21.9l14.7,65.5v-65.5h20.7v133h-21.9L1231,3250v63.7h-21.4V3180.8z"/>
		</g>
		<g>
			<path d="M1284.3,3180.8h52.1v21.2h-30v34.7h25.8v21.3h-25.8v34.7h30v21.2h-52.1V3180.8z"/>
		</g>
		<g>
			<path d="M563.7,3437.6h27.8v50.5c0,19.1-9.6,28.7-28.7,28.8c-19.1,0-28.6-9.6-28.6-28.8v-79.7c0-19.1,9.5-28.7,28.6-28.7
				c19.1,0,28.7,9.6,28.7,28.7v18.9h-22.1v-18.9c0-5-2.2-7.5-6.5-7.5h-0.1c-4.3,0-6.4,2.5-6.4,7.5v79.7c0,5,2.2,7.5,6.5,7.5
				c4.4,0,6.6-2.5,6.6-7.5v-29.2h-5.7V3437.6z"/>
		</g>
		<g>
			<path d="M607.4,3381.8h29c17.8,0,26.7,9.6,26.7,28.8v19.6c0,12-4.8,19.8-14.5,23.4l21.3,61.2h-24.1l-15.1-57.2h-1.2v57.2h-22.1
				V3381.8z M629.6,3403v34.7h2.7c2.4,0,3.9-0.1,4.6-0.4c2.8-1.1,4.2-3.5,4.2-7.1v-19.6c0-5-2.2-7.6-6.5-7.6H629.6z"/>
		</g>
		<g>
			<path d="M680.6,3381.8h52.1v21.2h-30v34.7h25.8v21.3h-25.8v34.7h30v21.2h-52.1V3381.8z"/>
		</g>
		<g>
			<path d="M802.6,3467.1l6.3,47.7h-22.3l-3.7-27.6h-16.3l-3.7,27.6h-22.3l6.3-47.5l13.5-85.5h28.7L802.6,3467.1z M780.1,3465.9
				l-5.3-40.3l-5.3,40.3H780.1z"/>
		</g>
		<g>
			<path d="M870.2,3381.8v21.2h-17.6v111.8h-22.1V3403h-17.6v-21.2H870.2z"/>
		</g>
		<g>
			<path d="M915.9,3381.8h30.6c17.8,0,26.7,9.6,26.7,28.8v19.6c0,9-3,15.1-8.9,18.1c5.9,3.1,8.9,9.1,8.9,18.1v19.7
				c0,19.1-9.3,28.7-27.8,28.7h-29.5V3381.8z M938,3403v34.7h4.3c2.4,0,3.9-0.1,4.6-0.4c2.8-1.1,4.2-3.5,4.2-7.1v-19.6
				c0-5-2.2-7.6-6.5-7.6H938z M938,3458.9v34.7h6.6c4.3,0,6.5-2.5,6.5-7.5v-19.7c0-3.6-1.4-6-4.2-7c-0.8-0.3-2.3-0.5-4.6-0.5H938z"
				/>
		</g>
		<g>
			<path d="M988.5,3381.8h29c17.8,0,26.7,9.6,26.7,28.8v19.6c0,12-4.8,19.8-14.5,23.4l21.3,61.2h-24.1l-15.1-57.2h-1.2v57.2h-22.1
				V3381.8z M1010.6,3403v34.7h2.7c2.4,0,3.9-0.1,4.6-0.4c2.8-1.1,4.2-3.5,4.2-7.1v-19.6c0-5-2.2-7.6-6.5-7.6H1010.6z"/>
		</g>
		<g>
			<path d="M1062,3381.8h22.1v133H1062V3381.8z"/>
		</g>
		<g>
			<path d="M1153.7,3381.8v21.2h-17.6v111.8H1114V3403h-17.6v-21.2H1153.7z"/>
		</g>
		<g>
			<path d="M1218,3467.1l6.3,47.7H1202l-3.7-27.6h-16.3l-3.7,27.6h-22.3l6.3-47.5l13.5-85.5h28.7L1218,3467.1z M1195.5,3465.9
				l-5.3-40.3l-5.3,40.3H1195.5z"/>
		</g>
		<g>
			<path d="M1236,3381.8h22.1v133H1236V3381.8z"/>
		</g>
		<g>
			<path d="M1275.7,3381.8h21.9l14.7,65.5v-65.5h20.7v133h-21.9l-14.1-63.7v63.7h-21.4V3381.8z"/>
		</g>
	</g>
	<g>
		<g>
			<defs>
				<rect id="SVGID_1_" x="1105.7" y="2963.1" width="235.9" height="141.5"/>
			</defs>
			<clipPath id="SVGID_00000078041456936336445740000011601231088083875985_">
				<use xlink:href="#SVGID_1_"  style="overflow:visible;"/>
			</clipPath>
			<g style="clip-path:url(#SVGID_00000078041456936336445740000011601231088083875985_);">
				<g>
					<g>
						<path class="st8" d="M1105.7,2963.1v141.5h235.9v-141.5H1105.7z"/>
					</g>
				</g>
				<g>
					<g>
						<path d="M1105.7,2963.1l235.9,141.5 M1341.6,2963.1l-235.9,141.5"/>
					</g>
					<g>
						<polygon class="st3" points="1334.4,3116.7 1223.7,3050.3 1113,3116.7 1098.5,3092.5 1196.2,3033.8 1098.5,2975.2 
							1113,2950.9 1223.7,3017.3 1334.4,2950.9 1348.9,2975.2 1251.2,3033.8 1348.9,3092.5 						"/>
					</g>
				</g>
				<g>
					<defs>
						<polygon id="SVGID_00000159435337879193653710000007727209243091016847_" points="1223.7,3033.8 1341.6,3033.8 1341.6,3104.6 
							1223.7,3104.6 1105.7,3104.6 1105.7,3033.8 1105.7,2963.1 1223.7,2963.1 1341.6,2963.1 						"/>
					</defs>
					<clipPath id="SVGID_00000005233621475249664670000013015475715785689506_">
						<use xlink:href="#SVGID_00000159435337879193653710000007727209243091016847_"  style="overflow:visible;"/>
					</clipPath>
					<g style="clip-path:url(#SVGID_00000005233621475249664670000013015475715785689506_);">
						<g>
							<path d="M1105.7,2963.1l235.9,141.5 M1341.6,2963.1l-235.9,141.5"/>
						</g>
						<g>
							<polygon class="st10" points="1336.8,3112.7 1223.7,3044.8 1110.6,3112.7 1100.9,3096.5 1205.4,3033.8 1100.9,2971.1 
								1110.6,2955 1223.7,3022.8 1336.8,2955 1346.5,2971.1 1242,3033.8 1346.5,3096.5 							"/>
						</g>
					</g>
				</g>
				<g>
					<g>
						<path class="st10" d="M1101,3015h103.8v-56.6h37.7v56.6h103.8v37.7h-103.8v56.6h-37.7v-56.6H1101V3015z"/>
					</g>
					<g>
						<path class="st3" d="M1247.3,3114h-47.2v-56.6h-103.8v-47.2h103.8v-56.6h47.2v56.6h103.8v47.2h-103.8V3114z M1209.5,3104.6
							h28.3V3048h103.8v-28.3h-103.8v-56.6h-28.3v56.6h-103.8v28.3h103.8V3104.6z"/>
					</g>
				</g>
			</g>
		</g>
	</g>
</g>
</svg>
